<?xml version="1.0" encoding="utf-8"?>
<!-- Generator: Adobe Illustrator 18.1.1, SVG Export Plug-In . SVG Version: 6.00 Build 0)  -->
<svg version="1.1" id="Calque_1" xmlns="http://www.w3.org/2000/svg" xmlns:xlink="http://www.w3.org/1999/xlink" x="0px" y="0px"
	 viewBox="213 0 324 283.5" enable-background="new 213 0 324 283.5" xml:space="preserve">
<g id="Calque_2_1_" display="none">
	<rect x="409.8" y="12.4" display="inline" fill="#F2F2F2" width="333" height="294.9"/>
</g>
<g id="Calque_1_2_">
	<g id="Calque_3" display="none">
		<rect id="background" x="242.2" y="2" display="inline" fill="#4E5D89" width="279" height="279"/>
	</g>
	<g id="Calque_1_1_">
	</g>
	<g id="Calque_2">
	</g>
	<path fill="#FFFEFF" d="M409.5,109.4c0-1.2-1-2.3-2.3-2.3c-1.2,0-2.3,1-2.3,2.3c0,1.2,1,2.3,2.3,2.3
		C408.4,111.6,409.5,110.6,409.5,109.4z"/>
	<path fill="#FFFEFF" d="M420.5,95.3c0,0-24.1,23.3-24.9,24.2c-0.1,0.1-0.1,0.1-0.1,0.2c0,11.8,0,36.1,0,56.3h2
		c0-19.9,0-43.9,0-55.5l0.1-0.2c2-2,15.7-15.2,24-23.1c16.7,0.1,46.6,0.2,58.5,0.4v-2C467.5,95.5,437.3,95.4,420.5,95.3z"/>
	<path fill="#FFFEFF" stroke="#F2F2F2" stroke-width="0.25" stroke-miterlimit="10" d="M461.3,123.6c0-6.8-5.4-12.2-12.2-12.2
		s-12.2,5.4-12.2,12.2s5.4,12.2,12.2,12.2S461.3,130.4,461.3,123.6z"/>
	<path fill="#FFFEFF" stroke="#F2F2F2" stroke-width="0.25" stroke-miterlimit="10" d="M506.8,20.8c0-9.8-8-17.8-17.8-17.8
		s-17.8,8-17.8,17.8s8,17.8,17.8,17.8S506.8,30.6,506.8,20.8z"/>
	<path fill="#FFFEFF" stroke="#F2F2F2" stroke-width="0.25" stroke-miterlimit="10" d="M475.4,56.8c0-5.7-4.5-10.2-10.2-10.2
		c-5.7,0-10.2,4.5-10.2,10.2S459.5,67,465.2,67C470.7,67,475.4,62.3,475.4,56.8z"/>
	<circle fill="#FFFEFF" stroke="#F2F2F2" stroke-width="0.25" stroke-miterlimit="10" cx="500" cy="97.2" r="17.1"/>
	<g>
		<path fill="#FFFEFF" d="M400.4,76.3c-0.2,0-0.6,0.1-1.1,0.1c-0.2-0.7-0.7-1.5-1.2-2c0.4-0.5,0.6-0.9,0.6-0.9
			c0.1-0.1,0-0.2-0.1-0.4c0,0-0.2-0.1-0.6-0.4c-0.4-0.2-0.5-0.4-0.6-0.5c-0.1-0.1-0.2-0.1-0.4,0c0,0-0.2,0.4-0.6,0.9
			c-0.6-0.2-1.4-0.5-2.1-0.5c-0.1-0.7-0.1-1.1-0.1-1.1c0-0.1-0.1-0.1-0.4-0.1c0,0-0.2,0-0.7,0.1c-0.4,0.1-0.7,0.1-0.7,0.1
			c-0.2,0-0.2,0.1-0.2,0.2c0,0,0,0.5,0.1,1.1c-0.7,0.2-1.4,0.6-2,1.1c-0.5-0.4-0.9-0.6-0.9-0.6c-0.1,0-0.2,0-0.4,0.1
			c0,0-0.1,0.2-0.4,0.6c-0.2,0.4-0.4,0.6-0.4,0.6c-0.1,0.1-0.1,0.2,0,0.4c0,0,0.4,0.2,0.9,0.6c-0.4,0.6-0.5,1.4-0.5,2.2
			c-0.7,0.1-1.1,0.1-1.1,0.1c-0.1,0-0.1,0.1-0.1,0.4c0,0,0,0.2,0.1,0.7c0,0.4,0.1,0.7,0.1,0.7c0,0.2,0.1,0.2,0.2,0.2
			c0,0,0.5,0,1.1-0.1c0.2,0.6,0.6,1.2,1,1.7c-0.4,0.4-0.6,0.7-0.7,1c-0.1,0.1,0,0.2,0.1,0.4c0,0,0,0,0.1,0c0.5,0.4,0.7,0.6,1,0.7
			c0,0,0,0,0.1,0c0.1,0.1,0.2,0.1,0.4,0c0.1-0.1,0.4-0.5,0.6-0.9c0.7,0.4,1.5,0.6,2.3,0.6c0.1,0.5,0.1,0.9,0.1,1.1
			c0,0.1,0.1,0.2,0.4,0.1c0,0,0,0,0.1,0c0.2,0,0.7-0.1,1.2-0.2c0,0,0,0,0.1,0c0.2,0,0.2-0.1,0.2-0.2c0-0.2-0.1-0.6-0.1-1.1
			c0.7-0.2,1.5-0.7,2-1.2c0.4,0.2,0.7,0.5,0.9,0.6c0.1,0.1,0.2,0,0.4-0.1c0,0,0,0,0-0.1c0.1-0.2,0.5-0.6,0.7-1c0,0,0,0,0-0.1
			c0.1-0.1,0.1-0.2,0-0.4c-0.1-0.1-0.5-0.4-0.9-0.6c0.2-0.6,0.5-1.4,0.5-2.1c0.5-0.1,0.9-0.1,1.1-0.1c0.1,0,0.2-0.1,0.1-0.4
			c0,0,0,0,0-0.1c0-0.2-0.1-0.7-0.2-1.2c0,0,0,0,0-0.1C400.7,76.3,400.7,76.3,400.4,76.3z M398.1,78.8
			C398.1,78.8,398,78.8,398.1,78.8c-0.1,1.2-1,2.3-2.1,2.9l0,0c-0.1,0-0.1,0.1-0.2,0.1l0,0l0,0c-0.4,0.1-0.6,0.2-1,0.2s-0.7,0-1.1,0
			l0,0l0,0c-0.1,0-0.2,0-0.2,0l0,0c-1-0.2-1.8-0.7-2.5-1.6l0,0l0,0c-0.1-0.1-0.1-0.1-0.1-0.2l0,0c0-0.1-0.1-0.1-0.1-0.2l0,0l0,0
			c-0.1-0.4-0.2-0.6-0.2-1c0-0.4,0-0.7,0-1.1l0,0l0,0c0.1-1.4,1-2.5,2.2-3.1l0,0l0,0c0.4-0.1,0.6-0.2,1-0.2c1.6-0.2,3.2,0.6,3.9,2
			c0,0,0,0,0,0.1c0,0.1,0.1,0.1,0.1,0.2l0,0l0,0c0.1,0.4,0.2,0.6,0.2,1C398.1,78.1,398.1,78.4,398.1,78.8L398.1,78.8z"/>
		<path fill="#FFFEFF" d="M394.9,75.8c-1.4-0.4-2.7,0.4-3.1,1.7s0.4,2.7,1.7,3.1c1.4,0.4,2.7-0.4,3.1-1.7
			C397,77.7,396.3,76.3,394.9,75.8z M393.7,80c-1-0.2-1.5-1.4-1.2-2.3c0.2-1,1.4-1.5,2.3-1.2s1.5,1.4,1.2,2.3
			C395.6,79.8,394.7,80.4,393.7,80z"/>
	</g>
	<g>
		<path fill="#FFFEFF" d="M368.1,78.7c-0.1,0-0.5,0.1-0.9,0.1c-0.2-0.6-0.6-1.2-1-1.6c0.2-0.4,0.5-0.6,0.5-0.6c0-0.1,0-0.1-0.1-0.2
			c0,0-0.2-0.1-0.5-0.4c-0.2-0.2-0.5-0.4-0.5-0.4c-0.1-0.1-0.2-0.1-0.2,0c0,0-0.2,0.2-0.5,0.7c-0.5-0.2-1.1-0.4-1.6-0.4
			c-0.1-0.5-0.1-0.9-0.1-0.9c0-0.1-0.1-0.1-0.2-0.1c0,0-0.2,0-0.6,0.1c-0.4,0-0.5,0.1-0.6,0.1c-0.1,0-0.2,0.1-0.2,0.1s0,0.4,0.1,0.9
			c-0.6,0.2-1.1,0.5-1.6,1c-0.5-0.4-0.7-0.5-0.7-0.5c-0.1,0-0.1,0-0.2,0.1c0,0-0.1,0.2-0.4,0.5c-0.2,0.2-0.4,0.5-0.4,0.5
			c-0.1,0.1-0.1,0.2,0,0.2c0,0,0.2,0.2,0.7,0.5c-0.2,0.5-0.4,1.1-0.5,1.7c-0.5,0.1-0.9,0.1-0.9,0.1c-0.1,0-0.1,0.1-0.1,0.2
			c0,0,0,0.2,0.1,0.6c0,0.4,0.1,0.5,0.1,0.6c0,0.1,0.1,0.2,0.1,0.2s0.4,0,0.9-0.1c0.1,0.5,0.5,1,0.9,1.4c-0.2,0.4-0.5,0.6-0.6,0.7
			c-0.1,0.1,0,0.2,0.1,0.2l0,0c0.4,0.2,0.6,0.5,0.9,0.6l0,0c0.1,0.1,0.2,0.1,0.4,0c0.1-0.1,0.2-0.4,0.5-0.7c0.6,0.4,1.2,0.5,2,0.5
			c0,0.4,0.1,0.7,0.1,0.9c0,0.1,0.1,0.1,0.2,0.1c0,0,0,0,0.1,0c0.2,0,0.6-0.1,1-0.1c0,0,0,0,0.1,0c0.1,0,0.2-0.1,0.2-0.2
			c0-0.1-0.1-0.5-0.1-0.9c0.6-0.2,1.1-0.6,1.6-1c0.4,0.2,0.6,0.4,0.7,0.5c0.1,0.1,0.2,0,0.2-0.1l0,0c0.1-0.2,0.4-0.5,0.6-0.9l0,0
			c0.1-0.1,0.1-0.2,0-0.4s-0.4-0.2-0.7-0.5c0.2-0.5,0.4-1.1,0.4-1.7c0.4,0,0.7-0.1,0.9-0.1c0.1,0,0.1-0.1,0.1-0.2c0,0,0,0,0-0.1
			c0-0.2-0.1-0.6-0.1-1c0,0,0,0,0-0.1C368.2,78.8,368.2,78.7,368.1,78.7z M366.2,80.6C366.2,80.6,366.2,80.8,366.2,80.6
			c-0.1,1-0.7,1.8-1.6,2.3l0,0c0,0-0.1,0.1-0.2,0.1l0,0l0,0c-0.2,0.1-0.5,0.2-0.9,0.2c-0.2,0-0.6,0-0.9,0l0,0l0,0
			c-0.1,0-0.1,0-0.2,0l0,0c-0.7-0.1-1.5-0.6-2-1.2l0,0l0,0c0-0.1-0.1-0.1-0.1-0.2l0,0c0-0.1-0.1-0.1-0.1-0.2l0,0l0,0
			c-0.1-0.2-0.2-0.5-0.2-0.9c0-0.2,0-0.6,0-0.9l0,0l0,0c0.1-1.1,0.9-2,1.8-2.5l0,0l0,0c0.2-0.1,0.5-0.2,0.9-0.2
			c1.4-0.2,2.6,0.5,3.2,1.6l0,0c0,0,0,0.1,0.1,0.1l0,0l0,0c0.1,0.2,0.2,0.5,0.2,0.9C366.2,80.1,366.2,80.4,366.2,80.6L366.2,80.6z"
			/>
		<path fill="#FFFEFF" d="M363.7,78.4c-1.1-0.4-2.2,0.2-2.5,1.4c-0.4,1.1,0.2,2.2,1.4,2.5c1.1,0.4,2.2-0.2,2.5-1.4
			C365.3,79.8,364.7,78.7,363.7,78.4z M362.6,81.7c-0.7-0.2-1.2-1.1-1-1.8s1.1-1.2,1.8-1s1.2,1.1,1,1.8
			C364.2,81.5,363.4,82,362.6,81.7z"/>
	</g>
	<path fill="#FFFEFF" d="M347.5,109.4c0-1.2,1-2.3,2.3-2.3c1.2,0,2.3,1,2.3,2.3c0,1.2-1,2.3-2.3,2.3
		C348.6,111.6,347.5,110.6,347.5,109.4z"/>
	<path fill="#FFFEFF" d="M336.4,95.3c0,0,24.1,23.3,25.1,24.2c0.1,0.1,0.1,0.1,0.1,0.2c0,11.8,0,36.1,0,56.3h-2
		c0-19.9,0-43.9,0-55.5l-0.1-0.2c-2.1-2-15.7-15.2-24-23.1c-16.8,0.1-51.7,0.2-63.6,0.4v-2C284.3,95.5,319.6,95.4,336.4,95.3z"/>
	<path fill="#FFFEFF" stroke="#F2F2F2" stroke-width="0.25" stroke-miterlimit="10" d="M284.8,83.6c0-4.8,3.9-8.7,8.7-8.7
		c4.8,0,8.7,3.9,8.7,8.7c0,4.8-3.9,8.7-8.7,8.7C288.6,92.3,284.8,88.4,284.8,83.6z"/>
	<path fill="#FFFEFF" stroke="#F2F2F2" stroke-width="0.25" stroke-miterlimit="10" d="M295.9,124.4c0-6.8,5.4-12.2,12.2-12.2
		c6.8,0,12.2,5.4,12.2,12.2c0,6.8-5.4,12.2-12.2,12.2C301.3,136.5,295.9,131,295.9,124.4z"/>
	<path fill="#FFFEFF" stroke="#F2F2F2" stroke-width="0.25" stroke-miterlimit="10" d="M249.2,21.9c0-9.8,8-17.8,17.8-17.8
		s17.8,8,17.8,17.8s-8,17.8-17.8,17.8S249.2,31.7,249.2,21.9z"/>
	<circle fill="#FFFEFF" stroke="#F2F2F2" stroke-width="0.25" stroke-miterlimit="10" cx="252.5" cy="97.2" r="17.1"/>
	<path fill="#707070" d="M392.9,117.4c0,0,31.7-30.7,31.8-30.8c0.1-0.1,0.4-0.1,0.4-0.1h28.5l-0.2-1.7h-26.7h-2.1c0,0-0.2,0-0.4,0.1
		c-0.1,0.1-32.8,31.8-32.8,31.8s-0.1,0.1-0.1,0.2c0,0.1,0.1,24.1,0.1,46.1h1.7c0-21.6-0.1-45.2-0.1-45.3
		C392.8,117.4,392.9,117.4,392.9,117.4z"/>
	<path fill="#707070" d="M468.9,31.1H466l0,0l0,0c-7.5,7.2-31.6,30.6-35.9,34.9h-4.3H423l0,0l0,0c-18.6,17.9-40.5,39.3-42.5,41.2
		c-0.1,0.1-0.1,0.1-0.1,0.2c0,13.3,0,42.5,0,63.8h2c0-21,0-49.9,0-62.9l0.1-0.2c3.9-3.8,24.2-23.5,41.4-40.2h4.3h2.8
		c0.6-0.6,1.4-1.2,2-2c4.8-4.7,27.5-26.8,33.9-32.9h4.3h1.8l-2.2-2L468.9,31.1L468.9,31.1z"/>
	<circle fill="#707070" cx="460.8" cy="38.1" r="3.1"/>
	<path fill="#707070" d="M431.1,51.8c0.1,0,3.6-0.4,4.7-0.4c0.2,0,0.2-0.1,0.1-0.4c0,0-0.4-0.4-0.7-0.9c0.9-0.7,2.8-2.6,3.3-3.1
		c0.6-0.6,0.7-1,0.4-1.4c-0.1-0.1-1.5-1.6-1.6-1.7c-0.4-0.4-0.7-0.4-1.4,0.2c-0.6,0.5-2.6,2.3-3.3,3.2c-0.4-0.5-0.7-0.7-0.7-0.9
		c-0.2-0.2-0.2-0.2-0.2,0c-0.1,1.1-0.5,4.7-0.5,4.8C430.9,51.8,431,51.8,431.1,51.8z"/>
	<path fill="#707070" d="M364.1,117.4c0,0-31.7-30.7-31.8-30.8c-0.1-0.1-0.4-0.1-0.4-0.1h-28.5l0.2-1.7h26.7h2.1c0,0,0.2,0,0.4,0.1
		c0.1,0.1,32.8,31.8,32.8,31.8s0.1,0.1,0.1,0.2c0,0.1-0.1,24.1-0.1,46.1h-1.5c0-21.6,0.1-45.2,0.1-45.3
		C364.2,117.4,364.1,117.4,364.1,117.4z"/>
	<path fill="#707070" d="M288.1,31.1h2.8l0,0l0,0c7.5,7.2,31.6,30.6,35.9,34.9h4.3h2.8l0,0l0,0c18.6,17.9,40.5,39.3,42.5,41.2
		c0.1,0.1,0.1,0.1,0.1,0.2c0,13.3,0,42.5,0,63.8h-2c0-21,0-49.9,0-62.9l-0.1-0.2c-3.9-3.8-24.2-23.5-41.4-40.2h-4.3H326
		c-0.6-0.6-1.4-1.2-2-2c-4.8-4.7-27.5-26.8-33.9-32.9h-4.3H284l1.5-1.8L288.1,31.1L288.1,31.1z"/>
	<circle fill="#707070" cx="296.4" cy="38.1" r="3.1"/>
	<path fill="#707070" d="M325.8,51.8c-0.1,0-3.6-0.4-4.7-0.4c-0.2,0-0.2-0.1-0.1-0.4c0,0,0.4-0.4,0.7-0.9c-0.9-0.7-2.8-2.6-3.3-3.1
		c-0.6-0.6-0.7-1-0.4-1.4c0.1-0.1,1.5-1.6,1.6-1.7c0.4-0.4,0.7-0.4,1.4,0.2c0.6,0.5,2.6,2.3,3.3,3.2c0.4-0.5,0.7-0.7,0.7-0.9
		c0.2-0.2,0.2-0.2,0.2,0c0.1,1.1,0.5,4.7,0.5,4.8C326.1,51.8,326,51.8,325.8,51.8z"/>
	<circle fill="#FFFFFF" stroke="#F2F2F2" stroke-width="0.25" stroke-miterlimit="10" cx="463.1" cy="83.7" r="8.2"/>
	<circle fill="#FFFFFF" stroke="#F2F2F2" stroke-width="0.25" stroke-miterlimit="10" cx="294.1" cy="57.7" r="8.7"/>
	<rect x="329.5" y="165.8" fill="#C19409" width="100.8" height="58.6"/>
	<g>
		<g>
			<path fill="#3996D3" d="M384.9,86.8c-0.2,0.1-0.7,0.4-1.2,0.6c-0.6-0.9-1.4-1.5-2.3-2c0.2-0.7,0.5-1.2,0.5-1.2
				c0-0.1-0.1-0.2-0.4-0.4c0,0-0.4-0.1-0.9-0.4c-0.5-0.2-0.9-0.2-0.9-0.4c-0.2-0.1-0.4-0.1-0.5,0.1c0,0-0.2,0.5-0.5,1.4
				c-0.9-0.1-1.8-0.1-2.7,0.1c-0.4-0.7-0.6-1.2-0.6-1.4c-0.1-0.1-0.2-0.1-0.5,0c0,0-0.4,0.1-0.9,0.4c-0.5,0.2-0.7,0.4-0.9,0.4
				c-0.2,0.1-0.4,0.2-0.2,0.4c0,0,0.2,0.5,0.6,1.4c-0.7,0.6-1.5,1.4-2,2.1c-0.9-0.2-1.4-0.5-1.4-0.5c-0.1,0-0.2,0.1-0.4,0.4
				c0,0-0.1,0.4-0.2,0.9c-0.1,0.5-0.2,0.9-0.2,0.9c-0.1,0.2-0.1,0.4,0.1,0.5c0,0,0.5,0.2,1.4,0.5c-0.1,1-0.1,1.8,0.1,2.8
				c-0.7,0.4-1.2,0.6-1.4,0.6c-0.1,0.1-0.1,0.2,0,0.5c0,0,0.1,0.4,0.4,0.9c0.2,0.5,0.4,0.7,0.4,0.9c0.1,0.2,0.2,0.4,0.4,0.2
				c0,0,0.5-0.2,1.4-0.6c0.5,0.7,1.1,1.4,1.8,1.7c-0.2,0.6-0.4,1.1-0.5,1.5c-0.1,0.1,0,0.4,0.2,0.4h0.1c0.6,0.2,1.2,0.5,1.6,0.6h0.1
				c0.2,0.1,0.4,0,0.5-0.1c0.1-0.2,0.2-0.7,0.5-1.4c1,0.2,2.1,0.1,3.2-0.1c0.2,0.6,0.5,1,0.6,1.2c0.1,0.1,0.2,0.2,0.5,0.1h0.1
				c0.4-0.1,0.9-0.4,1.5-0.7h0.1c0.2-0.1,0.4-0.2,0.2-0.5c-0.1-0.2-0.4-0.7-0.6-1.2c0.9-0.6,1.5-1.4,2-2.2c0.6,0.2,1.1,0.4,1.4,0.5
				c0.1,0,0.4,0,0.4-0.2v-0.1c0.1-0.4,0.2-0.9,0.5-1.6v-0.1c0.1-0.2,0-0.4-0.1-0.5c-0.2-0.1-0.7-0.2-1.4-0.5
				c0.1-0.9,0.1-1.8-0.1-2.7c0.6-0.2,1-0.5,1.2-0.6c0.1-0.1,0.2-0.2,0.1-0.5c0,0,0,0,0-0.1c-0.1-0.4-0.4-0.9-0.7-1.5v-0.1
				C385.2,86.8,385.1,86.8,384.9,86.8z M382.9,90.7L382.9,90.7c0.2,1.6-0.2,3.2-1.4,4.4l0,0c-0.1,0.1-0.1,0.1-0.2,0.2l0,0l0,0
				c-0.4,0.2-0.7,0.5-1.1,0.7s-0.9,0.4-1.2,0.4l0,0l0,0c-0.1,0-0.2,0-0.4,0l0,0c-1.2,0.1-2.6-0.2-3.6-1.1l0,0l0,0
				c-0.1-0.1-0.2-0.1-0.4-0.2l0,0c-0.1-0.1-0.2-0.1-0.2-0.2l0,0l0,0c-0.2-0.4-0.5-0.7-0.7-1.1s-0.4-0.9-0.4-1.2l0,0l0,0
				c-0.2-1.7,0.4-3.4,1.6-4.5l0,0l0,0c0.4-0.2,0.7-0.5,1.1-0.7c2-1,4.2-0.5,5.7,1c0,0,0,0,0.1,0.1c0.1,0.1,0.1,0.1,0.2,0.2l0,0l0,0
				c0.2,0.4,0.5,0.7,0.7,1.1C382.6,89.9,382.7,90.3,382.9,90.7L382.9,90.7z"/>
			<path fill="#3996D3" d="M377.9,88.4c-1.7,0-3.2,1.5-3.2,3.2s1.5,3.2,3.2,3.2c1.7,0,3.2-1.5,3.2-3.2
				C381.1,89.9,379.8,88.4,377.9,88.4z M377.9,93.9c-1.4,0-2.3-1.1-2.3-2.3c0-1.4,1.1-2.3,2.3-2.3c1.4,0,2.3,1.1,2.3,2.3
				C380.4,92.9,379.3,93.9,377.9,93.9z"/>
		</g>
	</g>
	<path fill="#3996D3" d="M439.4,113.3l-3.1-2.9l-2-2c0,0-17.2,0-18.1,0c-0.2,0.2-15.7,15.2-16.7,16.2c-0.1,0.1-0.1,0.1-0.1,0.2
		c0,11.4,0,34.8,0,54.6h2c0-19.5,0-42.5,0-53.7l0.1-0.2c2-2,8-7.7,15.6-15.1c5.5,0,11.1,0,16.5,0l3.1,2.9l1.7,1.6l1.4-1.6
		C439.5,113.3,439.4,113.3,439.4,113.3z"/>
	<path fill="#3996D3" d="M454.5,63.1c-4.7,4.4-9.1,9-12.4,12.2c-0.1,0.1-0.7,0.5-1.2,0.5c-9.5,0.1-17,0-18.4,0
		c-0.1,0-0.4,0.1-0.5,0.2c0,0-35,33.9-36.4,35.1c-0.2,0.2-0.4,0.4-0.4,0.7c0,12.8,0,39.8,0,60.7h2.7c0-25.4,0-59.2,0-59.5
		c0-0.4,0.2-0.6,0.4-0.7c2-2,34.6-33.5,34.8-33.7c0.2-0.1,0.5-0.2,0.6-0.2c2.2,0,14.7,0,17.9,0c0.7,0,1.4-0.2,1.5-0.4
		c3.8-3.7,7.5-7.4,13.4-13L454.5,63.1z"/>
	<circle fill="#3996D3" cx="442.2" cy="76.1" r="3.9"/>
	<path fill="#3996D3" d="M317.6,113.3l3.1-2.9l2-2c0,0,17.2,0,18.1,0c0.2,0.2,15.7,15.2,16.7,16.2c0.1,0.1,0.1,0.1,0.1,0.2
		c0,11.4,0,34.8,0,54.6h-2c0-19.5,0-42.5,0-53.7l-0.1-0.2c-2-2-8-7.7-15.6-15.1c-5.5,0-11.1,0-16.5,0l-3.1,2.9l-1.7,1.6l-1.4-1.6
		C317.5,113.3,317.6,113.3,317.6,113.3z"/>
	<path fill="#3996D3" d="M302.8,63.2c4.7,4.4,8.8,8.8,12.2,12c0.1,0.1,0.7,0.5,1.2,0.5c9.5,0.1,17,0,18.4,0c0.1,0,0.4,0.1,0.5,0.2
		c0,0,35,33.9,36.4,35.1c0.2,0.2,0.4,0.4,0.4,0.7c0,12.8,0,39.8,0,60.7H369c0-25.4,0-59.2,0-59.5c0-0.4-0.2-0.6-0.4-0.7
		c-2-2-34.6-33.5-34.8-33.7c-0.2-0.1-0.5-0.2-0.6-0.2c-2.2,0-14.7,0-17.9,0c-0.7,0-1.4-0.2-1.5-0.4c-3.8-3.7-7.1-7-13-12.8
		L302.8,63.2z"/>
	<circle fill="#3996D3" cx="314.8" cy="76.1" r="3.9"/>
	<path fill="#878787" d="M435.8,159.3H324.5c0,0-1.5,0-1.5,1.5c0,1.5,0,71.8,0,71.8h114.3c0,0,0-70.2,0-71.8
		C437.3,159.3,435.8,159.3,435.8,159.3z"/>
	<polygon fill="#878787" points="458.4,258.1 302.4,258.1 301.4,259 301.4,262.6 459.4,262.6 459.4,259 	"/>
	<polygon fill="#A3A3A3" points="437.3,232.5 323,232.5 301.4,259 459.4,259 	"/>
	<rect x="324.5" y="235.9" fill="#FFFFFF" width="45.6" height="1"/>
	<rect x="322.5" y="241.5" fill="#FFFFFF" width="45.6" height="1"/>
	<rect x="319.5" y="247.5" fill="#FFFFFF" width="45.6" height="1"/>
	<rect x="385.7" y="235.9" fill="#FFFFFF" width="45.6" height="1"/>
	<rect x="361.1" y="241.5" fill="#FFFFFF" width="72.2" height="1"/>
	<rect x="356.6" y="247.5" fill="#FFFFFF" width="79.7" height="1"/>
	<rect x="330.5" y="166.4" fill="#FFFFFF" width="98.8" height="57.6"/>
	<g>
		<path d="M312.7,125.4c0.2-0.2,0.5-0.7,0.6-1.1c0.1-0.1,0.4-0.2,0.4-0.5c0-0.2,0.1-0.6-0.1-0.9v-0.4c0-0.6,0-1.4-0.7-1.6
			c0-0.1-0.1-0.2-0.1-0.2v-0.6l-0.4,0.4c-0.1,0.1-0.7,0.2-1.1,0.2H311c-1.2,0.2-1.2,0.9-1.2,1.5c0,0.1,0,0.1,0,0.2v0.2
			c-0.2,0.1-0.2,0.4-0.1,0.9c0,0.2,0.2,0.4,0.4,0.5c0.1,0.2,0.2,0.7,0.6,1.1c-1.6,0.4-2.7,1.6-2.7,3.1v0.1h7.4v-0.1
			C315.4,127,314.3,125.7,312.7,125.4L312.7,125.4z M313.6,128.3v-0.7c0-0.1-0.1-0.1-0.1-0.1c-0.1,0-0.1,0.1-0.1,0.1v0.7h-3.2v-0.7
			c0-0.1-0.1-0.1-0.1-0.1c-0.1,0-0.1,0.1-0.1,0.1v0.7h-1.5c0-1.1,0.7-2.1,1.8-2.5c0.4,0.5,0.9,0.9,1.6,0.9c0.6,0,1.2-0.4,1.6-0.9
			c1.1,0.5,1.8,1.5,1.8,2.5H313.6z M310.5,125.7c0.1-0.1,0.4-0.1,0.5-0.1c0.2,0.1,0.5,0.2,0.7,0.2s0.5-0.1,0.7-0.2
			c0.2,0,0.4,0.1,0.5,0.1c-0.2,0.4-0.7,0.6-1.2,0.6C311.2,126.3,310.7,126.1,310.5,125.7L310.5,125.7z M310.2,124
			c-0.1,0-0.2-0.1-0.4-0.2c0-0.2-0.1-0.5,0-0.5h0.1v-0.5c0-0.9-0.2-1.4,1.1-1.5l0,0c0,0,1.1-0.1,1.4-0.4c0,0,0,0.2,0.1,0.5
			c0.6,0.2,0.7,0.9,0.7,1.4v0.5h0.1c0.1,0,0,0.4,0,0.6s-0.2,0.2-0.2,0.2c-0.1,0.4-0.4,1-0.7,1.2l-0.1,0.1c-0.1,0-0.2,0.1-0.2,0.1
			c-0.1,0-0.1,0-0.2,0s-0.1,0-0.2,0s-0.2,0-0.2-0.1l-0.1-0.1C310.7,125,310.4,124.5,310.2,124L310.2,124z"/>
	</g>
	<g>
		<g>
			<g>
				<g>
					<defs>
						<rect id="SVGID_1_" x="490.5" y="15.1" width="10" height="11.4"/>
					</defs>
					<clipPath id="SVGID_2_">
						<use xlink:href="#SVGID_1_"  overflow="visible"/>
					</clipPath>
					<path clip-path="url(#SVGID_2_)" d="M500.6,25.3l-0.4-1.7c-0.1-0.5-0.5-0.9-1-1l-1.6-0.4l-0.4-0.6c0,0,0,0-0.1-0.1
						c0.2-0.4,0.5-0.9,0.7-1.2c0.2-0.1,0.6-0.4,0.6-0.7c0.1-0.5,0-0.9-0.2-1v-0.4c0.2-0.7,0.4-2-0.7-2.6c-0.5-0.2-1-0.4-1.2-0.2
						c0-0.1,0.1-0.4,0.1-0.4c-0.2,0-0.4,0.1-0.5,0.2c-0.4-0.1-0.9-0.2-1.4-0.1c-1.8,0.4-2.1,2.8-1.7,3.4c-0.2,0.1-0.4,0.6-0.2,1
						c0.1,0.4,0.4,0.6,0.6,0.7c0.1,0.5,0.4,0.9,0.7,1.2c0,0,0,0-0.1,0.1l-0.4,0.7l-1.6,0.4c-0.5,0.1-0.9,0.5-1,1l-0.4,1.7
						c0,0.2,0,0.5,0.1,0.6c0.1,0.1,0.4,0.2,0.6,0.2h8.4c0.2,0,0.5-0.1,0.6-0.2C500.4,25.8,500.6,25.6,500.6,25.3L500.6,25.3z
						 M500.1,25.8c-0.1,0.1-0.2,0.1-0.4,0.1h-1.6v-1c0-0.1-0.1-0.1-0.1-0.1c-0.1,0-0.1,0.1-0.1,0.1v1h-4.4v-1c0-0.1-0.1-0.1-0.1-0.1
						c-0.1,0-0.1,0.1-0.1,0.1v1h-1.6c-0.1,0-0.2,0-0.4-0.1s-0.1-0.2-0.1-0.4l0.4-1.7c0-0.4,0.4-0.6,0.7-0.7l1.5-0.4l0,0l1.6,1
						c0,0,0,0,0.1,0l0,0c0,0,0.1,0,0.1-0.1l0.2-0.5l0.2,0.5l0.1,0.1l0,0h0.1l1.6-1l0,0l1.5,0.4c0.4,0.1,0.6,0.4,0.7,0.7l0.4,1.7
						C500.2,25.6,500.2,25.7,500.1,25.8L500.1,25.8z M493.9,22.2l0.1-0.2l0.2,0.1l0.2,0.1l0.2,0.1l0.5,0.4l-0.2,0.5l-1.1-0.6
						l-0.1-0.1l0,0L493.9,22.2z M497.1,22.2l0.1,0.2l0,0l-1.4,0.7l-0.2-0.5l0.5-0.4l0.2-0.1l0.2-0.1l0.2-0.1L497.1,22.2z
						 M493.4,19.9c-0.1,0-0.5-0.1-0.6-0.5c-0.1-0.2,0-0.5,0.1-0.6h0.1v-0.4l0,0l0,0v-0.1c0-0.4,0.4-1,2.2-0.4c0.6,0.2,1-0.1,1.2-0.6
						c0.6,0.1,1.1,0.7,1.2,1.2V19c0,0,0,0,0.1,0l0,0l0,0l0,0c0.1,0,0.2,0.4,0.1,0.6c-0.1,0.2-0.4,0.5-0.6,0.5
						c-0.2,0.7-0.7,1.7-1.5,2.1c-0.1,0.1-0.4,0.1-0.6,0.1s-0.4,0-0.6-0.1C494.2,21.7,493.7,20.7,493.4,19.9L493.4,19.9z"/>
				</g>
			</g>
		</g>
	</g>
	<g>
		<path d="M500.2,103.4L500.2,103.4L500.2,103.4L500.2,103.4z M498.7,101.8L498.7,101.8c0.2,1,1,1.7,1.7,1.7c0.6,0,1.5-0.7,1.7-1.7
			c0.1,0,0.2-0.1,0.2-0.4c0-0.2,0-0.4-0.1-0.4l0,0c0-1.6-0.7-2.1-1.7-2.2c-1,0-1.8,0.7-1.8,2.2l0,0c-0.1,0-0.2,0.2-0.1,0.4
			C498.5,101.6,498.6,101.8,498.7,101.8L498.7,101.8z M500.3,98.8L500.3,98.8C500.2,98.8,500.2,98.8,500.3,98.8L500.3,98.8
			L500.3,98.8z M494.9,104.6h-0.5l0.7-0.7c-1.6,0.1-2.7,0.7-2.7,2.3h3.4l-1.2-1.2L494.9,104.6z M501.7,103.7l-0.9,1.7l-0.1-1.1
			l0.2-0.1h-1l0.2,0.1l-0.1,1.1l-0.9-1.7c-1.6,0.2-2.7,0.9-2.7,2.5h7.9C504.4,104.6,503.3,103.9,501.7,103.7L501.7,103.7z
			 M497.4,101.4c0,0.7-0.4,1.5-0.7,2h1.6v-1.8c0-1.8-1-2.6-2.2-2.6s-2.2,0.7-2.2,2.6v1.8h1.6c-0.4-0.4-0.7-1.2-0.7-1.8l0,0
			c0.7,0,1.4-0.2,1.6-0.7C496.5,101,497,101.3,497.4,101.4L497.4,101.4z"/>
	</g>
	<g>
		<g>
			<g>
				<g>
					<defs>
						<rect id="SVGID_3_" x="253.4" y="92.2" width="10" height="11.4"/>
					</defs>
					<clipPath id="SVGID_4_">
						<use xlink:href="#SVGID_3_"  overflow="visible"/>
					</clipPath>
					<path clip-path="url(#SVGID_4_)" d="M262.9,102.4l-0.2-1.7c-0.1-0.5-0.5-0.9-1-1h-0.2V96c0-2.8-1.5-3.8-3.3-3.8
						c-1.8,0-3.3,1.1-3.3,3.8v3.7l-0.4,0.1c-0.5,0.1-0.9,0.5-1,1l-0.2,1.7c0,0.2,0,0.5,0.1,0.6c0.1,0.1,0.4,0.2,0.6,0.2h8.1
						c0.2,0,0.5-0.1,0.6-0.2C262.9,102.9,263.1,102.6,262.9,102.4L262.9,102.4z M262.6,102.8c-0.1,0.1-0.2,0.1-0.4,0.1h-1.6V102
						c0-0.1-0.1-0.1-0.1-0.1c-0.1,0-0.1,0.1-0.1,0.1v0.9h-4.3V102c0-0.1-0.1-0.1-0.1-0.1c-0.1,0-0.1,0.1-0.1,0.1v0.9h-1.6
						c-0.1,0-0.2,0-0.4-0.1c-0.1-0.1-0.1-0.2-0.1-0.4l0.2-1.7c0-0.2,0.4-0.6,0.6-0.7l1.1-0.2l0.5-0.1l0.1,0.1l1.2,0.7c0,0,0,0,0.1,0
						l0,0c0,0,0.1,0,0.1-0.1l0.2-0.5l0.2,0.5l0.1,0.1l0,0h0.1l1.2-0.7l0.1-0.1l0.5,0.1l1.1,0.2c0.2,0.1,0.6,0.4,0.6,0.7l0.2,1.7
						C262.7,102.6,262.7,102.8,262.6,102.8L262.6,102.8z M255.9,96.1h0.1V96h2.5l0.2-1.4v1.5h1.5v0.1h0.1c0.1,0,0.2,0.2,0.1,0.6
						c-0.1,0.2-0.4,0.5-0.5,0.4c-0.2,0.9-1.2,1.8-1.8,1.8c-0.7,0-1.6-1-1.8-1.8c-0.1,0-0.5-0.1-0.5-0.4
						C255.7,96.5,255.8,96.2,255.9,96.1L255.9,96.1z M259.9,99.4L259.9,99.4l-0.4,0.2l-0.4,0.2l-0.5,0.4l-0.1-0.4l-0.1-0.1l0.4-0.2
						l0.2-0.1l0.2-0.1l0.4-0.2L259.9,99.4L259.9,99.4z M256.7,98.9l0.4,0.2l0.2,0.1l0.2,0.1l0.4,0.2l-0.1,0.1l-0.1,0.4l-0.5-0.4
						l-0.4-0.2l-0.2-0.1h-0.1v-0.1L256.7,98.9z"/>
				</g>
			</g>
		</g>
	</g>
	<g>
		<path d="M294.1,54.6C294,54.6,294,54.6,294.1,54.6L294.1,54.6L294.1,54.6L294.1,54.6z M297.1,55.8
			C297.2,55.8,297.2,55.8,297.1,55.8C297.2,55.8,297.2,55.8,297.1,55.8L297.1,55.8z M292.7,57L292.7,57c0.2,0.9,0.9,1.4,1.4,1.5
			c0.5,0,1.2-0.6,1.4-1.5c0.1,0,0.2-0.1,0.2-0.2s0-0.4-0.1-0.4l0,0c0-1.4-0.6-1.8-1.5-1.8c-0.9,0-1.6,0.6-1.5,1.8l0,0
			c-0.1,0-0.1,0.1-0.1,0.4C292.4,56.9,292.6,57,292.7,57L292.7,57z M294,58.4L294,58.4L294,58.4L294,58.4L294,58.4z M296.1,57.5
			C296.1,57.5,296.2,57.5,296.1,57.5c0.1,0.6,0.6,1,1,1s0.9-0.5,1-1c0.1,0,0.1-0.1,0.1-0.2s0-0.2-0.1-0.2l0,0c0-1-0.5-1.4-1.1-1.4
			s-1.1,0.4-1.1,1.4l0,0c-0.1,0-0.1,0.1-0.1,0.2C296,57.5,296.1,57.5,296.1,57.5L296.1,57.5z M297.2,58.6L297.2,58.6L297.2,58.6
			L297.2,58.6z M295.1,58.6l-0.7,1.5l-0.1-1l0.1-0.1h-0.9l0.1,0.1l-0.1,1l-0.7-1.5c-1.2,0.1-2.2,0.7-2.2,2.1h6.6
			C297.3,59.4,296.5,58.9,295.1,58.6L295.1,58.6z M291,55.8L291,55.8L291,55.8L291,55.8z M291.2,59.1l0.1-0.1h-0.6l0.1,0.1l-0.1,0.7
			l-0.5-1.1c-1,0.1-1.6,0.5-1.6,1.5h2.1c0.1-0.4,0.2-0.6,0.5-0.9V59.1z M298,58.8l-0.5,1.1l-0.1-0.7l0.1-0.1h-0.6l0.1,0.1v0.2
			c0.2,0.2,0.4,0.5,0.5,0.9h2.1C299.6,59.3,298.9,58.9,298,58.8L298,58.8z M291,58.6L291,58.6L291,58.6L291,58.6z M290,57.5
			L290,57.5c0.1,0.6,0.6,1,1,1c0.4,0,0.9-0.5,1-1c0.1,0,0.1-0.1,0.1-0.2s0-0.2-0.1-0.2l0,0c0-1-0.5-1.4-1.1-1.4s-1.1,0.4-1.1,1.4
			l0,0c-0.1,0-0.1,0.1-0.1,0.2C289.8,57.5,289.8,57.5,290,57.5L290,57.5z"/>
	</g>
	<g>
		<path d="M260,18.1C259.9,18.1,259.9,18.1,260,18.1c-0.1,0-0.1,0-0.1,0H260z M259.9,24L259.9,24L259.9,24L259.9,24z M257.7,21.8
			L257.7,21.8c0.4,1.2,1.2,2.2,2.2,2.2c0.9,0,1.8-1,2.2-2.2c0.1,0,0.4-0.1,0.4-0.4c0-0.2,0-0.5-0.2-0.5l0,0c0-2.1-1-2.8-2.2-2.8
			s-2.5,0.9-2.3,2.8l0,0c-0.1,0-0.2,0.2-0.2,0.5C257.4,21.7,257.5,21.9,257.7,21.8L257.7,21.8z M261.6,24.4l-1.1,2.2l-0.1-1.5
			l0.2-0.2h-1.4l0.2,0.2l-0.1,1.5l-1.1-2.2c-2,0.2-3.4,1.1-3.4,3.2h10.3C265,25.5,263.6,24.6,261.6,24.4L261.6,24.4z"/>
	</g>
	<g>
		<g>
			<g>
				<g>
					<defs>
						
							<rect id="SVGID_5_" x="267.4" y="17.6" transform="matrix(-0.9999 -1.669869e-02 1.669869e-02 -0.9999 544.2791 50.2011)" width="10" height="10.4"/>
					</defs>
					<clipPath id="SVGID_6_">
						<use xlink:href="#SVGID_5_"  overflow="visible"/>
					</clipPath>
					<path clip-path="url(#SVGID_6_)" d="M277.3,27.1l-0.2-1.7c-0.1-0.5-0.5-0.9-1-1l-2.1-0.5c0.2-0.4,0.5-0.9,0.7-1.2
						c0.2-0.1,0.6-0.4,0.6-0.6c0.1-0.4,0-0.9-0.2-1v-0.2c0.2-0.7,0.4-2-0.7-2.6c-0.5-0.2-0.9-0.2-1.2-0.2c0-0.1,0.1-0.2,0.1-0.2
						c-0.2,0-0.4,0.1-0.5,0.2c-0.4-0.1-0.7-0.2-1.4-0.1c-1.8,0.4-2.1,2.7-1.7,3.3c-0.2,0.1-0.4,0.5-0.2,1c0.1,0.4,0.4,0.6,0.6,0.6
						c0.1,0.5,0.4,0.9,0.7,1.2l-0.7,0.1l-1.4,0.2c-0.5,0.1-0.9,0.5-1,1l-0.4,1.7c0,0.2,0,0.5,0.1,0.6c0.1,0.1,0.4,0.2,0.6,0.2
						l8.4,0.1l0,0c0.2,0,0.5-0.1,0.6-0.2C277.2,27.6,277.3,27.3,277.3,27.1L277.3,27.1z M274.4,24.4l-1.7,1.8l-0.2-1l0.4-0.2
						l-0.2-0.2c0.4-0.1,0.7-0.2,1-0.5L274.4,24.4z M270.3,22.3c-0.1,0-0.5-0.1-0.6-0.4c-0.1-0.2,0-0.5,0.1-0.6h0.1v-0.4l0,0l0,0
						v-0.1c0-0.4,0.4-1,2.2-0.4c0.6,0.2,1-0.1,1.2-0.5c0.6,0.1,1,0.7,1.2,1.2v0.1c0,0,0,0,0.1,0l0,0l0,0l0,0c0.1,0,0.2,0.2,0.1,0.6
						c-0.1,0.2-0.4,0.5-0.5,0.4c-0.1,0.2-0.1,0.4-0.2,0.6c-0.4,0.4-1,0.4-1.4,0.4c0-0.1-0.1-0.2-0.2-0.2c-0.1,0-0.4,0.1-0.4,0.4
						c0,0.1,0.1,0.4,0.4,0.4c0.1,0,0.2,0,0.2-0.1c0.1,0,0.1,0,0.2,0c0.2,0,0.6,0,0.9-0.1c-0.1,0.1-0.1,0.2-0.2,0.4l-0.1,0.1
						l-0.1,0.1c-0.2,0.1-0.5,0.2-0.9,0.2c-0.4,0-0.6-0.1-0.9-0.2l-0.1-0.1l-0.1-0.1C270.7,23.4,270.4,22.8,270.3,22.3L270.3,22.3z
						 M270.9,24.1c0.2,0.2,0.6,0.5,1,0.6l-0.2,0.1l0.4,0.2l-0.1,1.1l-1.6-2L270.9,24.1z M276.8,27.6c-0.1,0.1-0.2,0.1-0.4,0.1v0.1
						v-0.1h-1.6v-0.9c0-0.1-0.1-0.1-0.1-0.1l0,0c-0.1,0-0.1,0.1-0.1,0.1v0.9h-4.4v-0.9c0-0.1-0.1-0.1-0.1-0.1l0,0
						c-0.1,0-0.1,0.1-0.1,0.1v0.9h-1.6c-0.1,0-0.2,0-0.4-0.1c-0.1-0.1-0.1-0.2-0.1-0.4l0.4-1.7c0-0.4,0.4-0.6,0.7-0.7l1.1-0.2
						l2.3,2.7h0.1h0.1l2.3-2.7l1.2,0.2c0.4,0.1,0.6,0.4,0.7,0.7l0.2,1.7C276.9,27.3,276.9,27.4,276.8,27.6L276.8,27.6z"/>
				</g>
			</g>
		</g>
	</g>
	<g>
		<path d="M293.3,84.6L293.3,84.6L293.3,84.6L293.3,84.6z M292.1,83.3L292.1,83.3c0.2,0.7,0.7,1.2,1.2,1.2s1.1-0.5,1.2-1.2
			c0.1,0,0.1-0.1,0.2-0.2c0-0.1,0-0.2-0.1-0.2l0,0c0-1.2-0.6-1.6-1.4-1.6c-0.7,0-1.4,0.5-1.4,1.6l0,0c-0.1,0-0.1,0.1-0.1,0.2
			C291.9,83.2,291.9,83.3,292.1,83.3L292.1,83.3z M293.4,81.1L293.4,81.1C293.3,81.1,293.3,81.1,293.4,81.1L293.4,81.1L293.4,81.1z
			 M294.3,84.8l-0.6,1.4l-0.1-0.9l0.1-0.1h-0.7l0.1,0.1l-0.1,0.9l-0.6-1.4c-1.1,0.1-2,0.6-2,1.8h5.9
			C296.2,85.4,295.5,84.9,294.3,84.8L294.3,84.8z M289.2,85.4h-0.4l0.5-0.5c-1.1,0.1-2,0.6-2,1.7h2.6l-0.9-0.9L289.2,85.4z
			 M291.1,83c0,0.5-0.2,1.1-0.6,1.5h1.2v-1.4c0-1.5-0.7-2-1.7-2c-1,0-1.7,0.5-1.7,2v1.4h1.2c-0.2-0.4-0.5-0.9-0.6-1.4l0,0
			c0.5,0,1-0.2,1.2-0.5C290.5,82.7,290.7,83,291.1,83L291.1,83z M297.7,85.7l-0.9,0.9h2.6c0-1.2-0.9-1.6-2-1.7l0.5,0.5h-0.4
			L297.7,85.7z M296.4,82.5c0.2,0.4,0.7,0.5,1.2,0.5l0,0c0,0.5-0.2,1.1-0.6,1.4h1.2V83c0-1.5-0.7-2-1.7-2s-1.7,0.5-1.7,2v1.4h1.2
			c-0.4-0.4-0.5-1-0.6-1.5C295.9,83,296.2,82.7,296.4,82.5L296.4,82.5z"/>
	</g>
	<g>
		<g>
			<g>
				<g>
					<defs>
						
							<rect id="SVGID_7_" x="239" y="92.2" transform="matrix(-1 3.199961e-03 -3.199961e-03 -1 489.2113 195.0179)" width="10.9" height="11.4"/>
					</defs>
					<clipPath id="SVGID_8_">
						<use xlink:href="#SVGID_7_"  overflow="visible"/>
					</clipPath>
					<path clip-path="url(#SVGID_8_)" d="M249.7,102.4l-0.4-1.8c-0.1-0.5-0.5-1-1-1.1l-2.3-0.5c0.4-0.4,0.6-0.9,0.7-1.4
						c0.2-0.1,0.6-0.4,0.7-0.7c0.1-0.5,0-0.9-0.2-1v-0.4c0.2-0.7,0.4-2.1-0.7-2.7c-0.5-0.2-1-0.4-1.4-0.2c0-0.1,0.1-0.4,0.1-0.4
						c-0.2,0-0.4,0.1-0.5,0.2c-0.4-0.1-0.9-0.2-1.5-0.1c-2,0.4-2.2,2.9-1.8,3.6c-0.2,0.1-0.4,0.6-0.2,1c0.1,0.4,0.4,0.6,0.7,0.7
						c0.1,0.5,0.5,1,0.7,1.4l-0.7,0.1l-1.5,0.2c-0.5,0.1-1,0.6-1,1.1l-0.4,1.8c0,0.2,0,0.5,0.1,0.7s0.4,0.2,0.6,0.2l9,0.1l0,0
						c0.2,0,0.5-0.1,0.6-0.2C249.5,102.9,249.7,102.6,249.7,102.4L249.7,102.4z M244.1,100.3l-0.2,1.1l-1.7-2.1l0.7-0.1
						c0.4,0.4,0.7,0.5,1.1,0.6l-0.2,0.2L244.1,100.3z M244.8,101.4l-0.2-1.1l0.4-0.4l-0.2-0.2c0.4-0.1,0.7-0.2,1.1-0.6l0.9,0.1
						L244.8,101.4z M242.2,97.1c-0.1,0-0.5-0.1-0.6-0.5c-0.1-0.2,0-0.6,0.1-0.6h0.1v-0.5l0,0l0,0v-0.1c0-0.4,0.4-1.1,2.3-0.5
						c0.6,0.2,1.1-0.1,1.2-0.6c0.6,0.1,1.1,0.9,1.2,1.2v0.4c0,0,0,0,0.1,0l0,0l0,0l0,0c0.1,0,0.2,0.4,0.1,0.6s-0.5,0.5-0.6,0.5
						c-0.1,0.5-0.5,1.1-0.9,1.6l-0.1,0.1l-0.1,0.1c-0.2,0.2-0.6,0.4-0.9,0.4c-0.4,0-0.6-0.1-0.9-0.4c-0.1,0-0.1-0.1-0.1-0.1
						l-0.1-0.1C242.5,98.3,242.3,97.7,242.2,97.1L242.2,97.1z M248.8,102.9h-1.7v-1c0-0.1-0.1-0.1-0.1-0.1l0,0
						c-0.1,0-0.1,0.1-0.1,0.1v1h-4.8v-1c0-0.1-0.1-0.2-0.1-0.2l0,0c-0.1,0-0.1,0.1-0.1,0.1v1h-1.7c-0.1,0-0.2,0-0.4-0.1
						c-0.1-0.1-0.1-0.2-0.1-0.4l0.4-1.8c0.1-0.4,0.4-0.7,0.7-0.7l1.2-0.2l2.5,2.9l0.1,0.1l0,0c0,0,0.1,0,0.1-0.1l2.5-2.8l1.2,0.2
						c0.4,0.1,0.7,0.5,0.7,0.7l0.4,1.8c0,0.1,0,0.2-0.1,0.4C249.1,102.9,248.9,102.9,248.8,102.9v0.1V102.9z"/>
				</g>
			</g>
		</g>
	</g>
	<g>
		<path d="M483,21.9c0.4-0.4,0.6-0.9,0.9-1.5c0.2-0.1,0.4-0.4,0.5-0.6c0.1-0.2,0.2-0.9-0.1-1.1v-0.5c0-0.7-0.1-1.7-1-2.1
			c-0.1-0.2-0.1-0.4-0.1-0.4L483,15l-0.6,0.5c-0.1,0.1-1,0.4-1.6,0.4h-0.2c-1.6,0.2-1.6,1.1-1.6,2c0,0.1,0,0.2,0,0.4v0.4
			c-0.2,0.1-0.2,0.5-0.1,1.1c0.1,0.2,0.2,0.5,0.5,0.6c0.1,0.2,0.4,1,0.9,1.5c-2.1,0.5-3.6,2.2-3.6,4.2v0.2h9.8V26
			C486.6,24.1,485.1,22.4,483,21.9L483,21.9z M484.2,26v-1c0-0.1-0.1-0.1-0.1-0.1c-0.1,0-0.2,0.1-0.2,0.1v1h-4.3v-1
			c0-0.1-0.1-0.1-0.1-0.1c-0.1,0-0.1,0.1-0.1,0.1v1h-2c0.1-1.4,1-2.6,2.2-3.2l2.2,2.5h0.1c0,0,0.1,0,0.1-0.1l2.1-2.5
			c1.2,0.6,2.2,1.8,2.2,3.2C486.2,26,484.2,26,484.2,26z M481.3,22.5l-0.2,0.2l0.4,0.4l-0.2,1.1l-1.5-1.6c0.4-0.1,0.6-0.2,1-0.2
			C480.9,22.4,481.2,22.4,481.3,22.5L481.3,22.5z M482.8,22.3c0.4,0.1,0.6,0.1,1,0.2l-1.5,1.7L482,23l0.4-0.4l-0.4-0.1
			C482.3,22.5,482.5,22.4,482.8,22.3L482.8,22.3z M479.8,20.2c-0.1,0-0.4-0.1-0.4-0.4c-0.1-0.2-0.1-0.7,0-0.7h0.1v-0.7
			c0-1.1-0.2-1.8,1.5-2l0,0c0,0,1.4-0.1,1.7-0.5c0,0,0,0.2,0.1,0.6c0.9,0.4,1,1.1,0.9,1.8v0.7h0.1c0.1,0,0.1,0.5,0,0.7
			c-0.1,0.2-0.2,0.4-0.4,0.4c-0.1,0.5-0.5,1.2-1.1,1.7c-0.1,0-0.1,0.1-0.2,0.1c-0.1,0.1-0.2,0.1-0.4,0.1c-0.1,0-0.1,0-0.2,0
			s-0.1,0-0.2,0c-0.1,0-0.2-0.1-0.4-0.1c-0.1,0-0.1-0.1-0.2-0.1C480.3,21.4,479.9,20.8,479.8,20.2L479.8,20.2z"/>
	</g>
	<g>
		<g>
			<g>
				<g>
					<defs>
						<rect id="SVGID_9_" x="457.4" y="53.1" width="14.4" height="9"/>
					</defs>
					<clipPath id="SVGID_10_">
						<use xlink:href="#SVGID_9_"  overflow="visible"/>
					</clipPath>
					<path clip-path="url(#SVGID_10_)" d="M471.7,60.2l-0.1-1c0-0.2-0.2-0.5-0.6-0.6l-0.9-0.1l-0.1-0.4c0,0,0,0-0.1-0.1
						c0.1-0.2,0.2-0.4,0.4-0.6c0.1,0,0.2-0.2,0.4-0.4c0-0.2,0-0.5-0.1-0.5v-0.1c0.1-0.4,0.2-1.1-0.4-1.4c-0.2-0.1-0.5-0.1-0.6-0.1
						c0-0.1,0-0.1,0-0.1c-0.1,0-0.2,0.1-0.2,0.1c-0.2-0.1-0.4-0.1-0.7,0c-1,0.2-1.1,1.5-1,1.8c-0.1,0.1-0.2,0.2-0.1,0.5
						c0,0.1,0.2,0.4,0.4,0.4c0.1,0.2,0.2,0.4,0.4,0.6c0,0,0,0-0.1,0.1l-0.1,0.4l-0.9,0.1c-0.1,0-0.1,0-0.2,0.1l-0.5-0.1l-0.2-0.7
						c0,0,0,0-0.1-0.1c0.2-0.2,0.4-0.6,0.5-1c0.2-0.1,0.5-0.2,0.5-0.5c0.1-0.4,0-0.6-0.2-0.7v-0.2c0.2-0.6,0.2-1.6-0.6-2.1
						c-0.4-0.2-0.7-0.2-1-0.1c0-0.1,0.1-0.2,0.1-0.2c-0.2,0-0.4,0.1-0.4,0.1c-0.2-0.1-0.6-0.1-1.1-0.1c-1.5,0.4-1.6,2.2-1.4,2.7
						c-0.2,0.1-0.2,0.5-0.2,0.7c0.1,0.2,0.2,0.5,0.5,0.5c0.1,0.4,0.2,0.7,0.5,1c0,0,0,0-0.1,0.1l-0.2,0.5l-0.5,0.1
						c0,0-0.1,0-0.2-0.1l-0.9-0.1l-0.1-0.4c0,0,0,0-0.1-0.1c0.1-0.2,0.2-0.4,0.4-0.6c0.1,0,0.2-0.2,0.4-0.4c0-0.2,0-0.5-0.1-0.5
						v-0.1c0.1-0.4,0.2-1.1-0.4-1.4c-0.2-0.1-0.5-0.1-0.6-0.1c0-0.1,0-0.1,0-0.1c-0.1,0-0.2,0.1-0.2,0.1c-0.2-0.1-0.4-0.1-0.7,0
						c-1,0.2-1.1,1.5-1,1.8c-0.1,0.1-0.2,0.2-0.1,0.5c0,0.1,0.2,0.4,0.4,0.4c0.1,0.2,0.2,0.4,0.4,0.6c0,0,0,0-0.1,0.1l-0.1,0.4
						l-0.9,0.1c-0.2,0-0.5,0.4-0.6,0.6l-0.1,1c0,0.1,0,0.2,0.1,0.4c0.1,0.1,0.2,0.1,0.4,0.1h2.7v0.2c0,0.2,0,0.4,0.1,0.5
						c0.1,0.1,0.2,0.2,0.5,0.2h6.6c0.2,0,0.4-0.1,0.5-0.2c0.1-0.1,0.1-0.4,0.1-0.5V61h2.7c0.1,0,0.2-0.1,0.4-0.1
						C471.7,60.5,471.7,60.4,471.7,60.2L471.7,60.2z M470.2,59.9c-0.1,0-0.1,0.1-0.1,0.1v0.5h-1.6l-0.1-0.7
						c-0.1-0.4-0.4-0.7-0.7-0.9h0.2l0.9,0.5c0,0,0,0,0.1,0l0,0c0,0,0.1,0,0.1-0.1v-0.1v0.1c0,0,0,0.1,0.1,0.1l0,0c0,0,0,0,0.1,0
						l0.9-0.5l0.7,0.1c0.1,0,0.2,0.1,0.4,0.4l0.1,1v0.1h-0.1h-0.7V60C470.3,60,470.3,59.9,470.2,59.9L470.2,59.9z M468.1,61.1
						c0,0.1,0,0.2,0,0.2c0,0.1-0.1,0.1-0.2,0.1h-1.2v-0.7l0,0c0-0.1-0.1-0.1-0.1-0.1h-0.1l-0.1,0.1v0.7h-3.4v-0.7c0,0,0-0.1-0.1-0.1
						h-0.1c-0.1,0-0.1,0.1-0.1,0.1l0,0v0.7h-1.2c-0.1,0-0.2,0-0.2-0.1s-0.1-0.1,0-0.2l0.1-0.4v-0.1v-0.1l0.1-0.6
						c0-0.2,0.2-0.5,0.5-0.5l0.6-0.1h0.2h0.1h0.2l0,0l1.2,0.7c0,0,0,0,0.1,0l0,0c0,0,0.1,0,0.1-0.1l0.1-0.4l0.1,0.4
						c0,0,0,0.1,0.1,0.1l0,0c0,0,0,0,0.1,0l1.2-0.7l0,0h0.2h0.1h0.2l0.6,0.1c0.2,0,0.5,0.2,0.5,0.5l0.1,0.6v0.1v0.1L468.1,61.1z
						 M458.9,59.9c-0.1,0-0.1,0.1-0.1,0.1v0.5h-0.7h-0.1v-0.1l0.1-1c0-0.1,0.1-0.2,0.4-0.4l0.7-0.1l0.7,0.5c0,0,0,0,0.1,0l0,0
						c0,0,0.1,0,0.1-0.1v-0.1v0.1c0,0,0,0.1,0.1,0.1l0,0c0,0,0,0,0.1,0l0.9-0.5h0.2c-0.4,0.1-0.7,0.5-0.7,0.9l-0.1,0.7H459V60
						C459.2,60,459,59.9,458.9,59.9L458.9,59.9z M461.1,58.6l-0.2,0.1l-0.4,0.2l-0.1-0.1l0.2-0.1l0.2-0.1l0.1-0.1L461.1,58.6
						L461.1,58.6z M459.4,58.5l0.1,0.1l0.2,0.1l0.2,0.1l-0.1,0.1l-0.4-0.2l-0.2-0.1L459.4,58.5L459.4,58.5z M463.3,58.5L463.3,58.5
						h0.2l0.2,0.1l0.2,0.1l0.4,0.2l-0.1,0.4l-0.7-0.5l-0.1-0.1l0,0L463.3,58.5z M465.9,58.8L465.9,58.8l-0.1,0.1l-0.7,0.5l-0.1-0.4
						l0.4-0.2l0.2-0.1l0.2-0.1l0.1-0.1v0.1V58.8z M469.7,58.6l-0.2,0.1l-0.4,0.2l-0.1-0.1l0.2-0.1l0.2-0.1l0.1-0.1L469.7,58.6
						L469.7,58.6z M468.1,58.5l0.1,0.1l0.2,0.1l0.2,0.1l-0.1,0.1l-0.4-0.2l-0.2-0.1L468.1,58.5L468.1,58.5z M467.9,57.3
						c-0.1,0-0.2-0.1-0.2-0.2s0-0.2,0.1-0.4c0,0,0,0,0.1,0v-0.2l0,0l0,0v-0.1c0-0.2,0.2-0.6,1.2-0.2c0.4,0.1,0.6-0.1,0.6-0.2
						c0.4,0,0.6,0.4,0.6,0.6v0.2c0,0,0,0,0.1,0c0.1,0,0.1,0.1,0.1,0.4c0,0.1-0.2,0.2-0.2,0.2c-0.1,0.2-0.2,0.6-0.5,0.9l-0.1,0.1
						c-0.1,0-0.1,0.1-0.2,0.1c-0.1,0-0.1,0-0.2,0c-0.1,0-0.1,0-0.2,0c-0.1,0-0.1,0-0.2-0.1l-0.1-0.1C468.1,58,467.9,57.7,467.9,57.3
						L467.9,57.3z M463,56.8c-0.1,0-0.4-0.1-0.5-0.4c0-0.2,0-0.4,0.1-0.5h0.1v-0.2l0,0l0,0v-0.1c0-0.2,0.2-0.9,1.7-0.4
						c0.5,0.1,0.9-0.1,1-0.5c0.5,0,0.9,0.6,1,1v0.2l0,0l0,0l0,0l0,0c0.1,0,0.1,0.2,0.1,0.5c0,0.2-0.4,0.4-0.5,0.4
						c-0.1,0.6-0.6,1.4-1.1,1.6c-0.1,0.1-0.4,0.1-0.5,0.1c-0.1,0-0.4,0-0.5-0.1C463.6,58.2,463.1,57.4,463,56.8L463,56.8z
						 M459.2,57.3c-0.1,0-0.2-0.1-0.2-0.2s0-0.2,0.1-0.4c0,0,0,0,0.1,0v-0.2l0,0l0,0v-0.1c0-0.2,0.2-0.6,1.2-0.2
						c0.4,0.1,0.6-0.1,0.6-0.2c0.4,0,0.6,0.4,0.6,0.6v0.2c0,0,0,0,0.1,0c0.1,0,0.1,0.1,0.1,0.4c0,0.1-0.2,0.2-0.2,0.2
						c-0.1,0.2-0.2,0.6-0.5,0.9l-0.1,0.1c-0.1,0-0.1,0.1-0.2,0.1c-0.1,0-0.1,0-0.2,0c-0.1,0-0.1,0-0.2,0c-0.1,0-0.1,0-0.2-0.1
						l-0.1-0.1C459.4,58,459.3,57.7,459.2,57.3L459.2,57.3z"/>
				</g>
			</g>
		</g>
	</g>
	<g>
		<path d="M465.9,85.9v-3.1c0-2.3-1.2-3.2-2.7-3.2c-1.5,0-2.7,0.9-2.7,3.2v3.1c-0.5,0.6-0.7,1.4-0.7,2.1v0.1h6.9V88
			C466.5,87.3,466.3,86.5,465.9,85.9L465.9,85.9z M459.9,87.9c0-0.6,0.2-1.2,0.6-1.7c0.2-0.2,0.5-0.5,0.7-0.7l0.6,0.7l1.2,1.4h0.1
			l0,0h0.1l1.1-1.4l0.6-0.7c0.2,0.2,0.5,0.5,0.7,0.7c0.4,0.5,0.6,1.1,0.6,1.7H459.9z M461.5,82.8c0.9,0,1.6-0.4,2-0.9
			c0.2,0.4,0.7,0.7,1.4,0.9v0.4h0.1c0.1,0,0.1,0.2,0.1,0.5c0,0.2-0.4,0.4-0.5,0.4c-0.1,0.2-0.2,0.6-0.5,0.9l-0.1,0.1l-0.1,0.1
			c0.2,0.1,0.5,0.2,0.7,0.4l-0.7,0.9l-0.6,0.6l-0.1-0.6L463,86l0.2-0.2l-0.4-0.4l-0.4,0.4l0.2,0.2l-0.1,0.4l-0.1,0.6l-0.5-0.6
			l-0.7-0.9c0.2-0.1,0.5-0.2,0.7-0.4l-0.1-0.1l-0.1-0.1c-0.2-0.2-0.4-0.6-0.5-0.9c-0.1,0-0.4-0.1-0.5-0.4c0-0.2,0-0.5,0.1-0.5h0.1
			V83L461.5,82.8z"/>
	</g>
	<g>
		<path d="M507.2,95.9h-4.4l1.6-1.6l-0.5-0.5h0.7l-0.9-0.9C505.6,93,507.2,93.8,507.2,95.9L507.2,95.9z M500.9,93.8h-0.7l0.9-0.9
			c-2,0.2-3.4,1-3.4,2.9h4.4l-1.6-1.6L500.9,93.8z M504.3,89.6c-0.1,0.9-0.5,2-1,2.5h2.1v-2.3c0-2.5-1.4-3.4-2.9-3.4s-2.9,1-2.9,3.4
			v2.3h2.1c-0.5-0.5-0.9-1.6-1-2.5l0,0c0.9,0,1.7-0.4,2.1-1C503,89.1,503.6,89.5,504.3,89.6L504.3,89.6z"/>
	</g>
	<g>
		<path d="M452.3,123.1c0-0.1,0-0.4,0.1-0.4l0,0c0-1.2,0.6-1.7,1.5-1.7c0.7,0,1.4,0.5,1.4,1.7l0,0c0.1,0,0.1,0.1,0.1,0.4
			c0,0.1-0.1,0.2-0.2,0.2c-0.2,0.7-0.9,1.4-1.4,1.4c-0.6,0-1.1-0.6-1.4-1.4l0,0C452.4,123.4,452.3,123.3,452.3,123.1L452.3,123.1z
			 M443.2,121.1L443.2,121.1C443.3,121.1,443.3,121.1,443.2,121.1L443.2,121.1z M453.9,124.7L453.9,124.7L453.9,124.7L453.9,124.7z
			 M453.8,121.1C453.9,121.1,453.9,121.1,453.8,121.1C453.9,121.1,453.9,121.1,453.8,121.1L453.8,121.1z M443.2,124.7L443.2,124.7
			L443.2,124.7L443.2,124.7z M450.3,121.7c-0.1,0.9-0.4,1.8-1,2.3h2v-2.2c0-2.3-1.2-3.3-2.8-3.3s-2.8,0.9-2.8,3.3v2.2h2
			c-0.5-0.5-0.9-1.5-1-2.3l0,0c0.9,0,1.6-0.4,2.1-0.9C449.2,121.3,449.7,121.6,450.3,121.7L450.3,121.7z M457.1,127
			c0-1.2-0.9-1.8-2.1-2l-0.7,1.4l-0.1-0.9l0.1-0.1h-0.9l0.1,0.1l-0.1,0.9l-0.7-1.4c-0.5,0-0.9,0.1-1.1,0.4c-0.5-0.2-1.2-0.4-2-0.5
			l0.9,0.9h-0.7l0.5,0.5l-1.5,1.5h4.2c0-0.2,0-0.5-0.1-0.7L457.1,127L457.1,127L457.1,127z M441.8,123.4L441.8,123.4
			c0.2,0.7,0.7,1.4,1.4,1.4c0.5,0,1.1-0.6,1.4-1.4c0.1,0,0.2-0.1,0.2-0.2c0-0.1,0-0.4-0.1-0.4l0,0c0-1.2-0.6-1.7-1.4-1.7
			c-0.7,0-1.5,0.5-1.5,1.7l0,0c-0.1,0-0.1,0.1-0.1,0.4C441.7,123.3,441.8,123.4,441.8,123.4L441.8,123.4z M447.1,125.6h-0.7l0.9-0.9
			c-0.7,0.1-1.4,0.2-2,0.5c-0.4-0.1-0.7-0.2-1.1-0.4l-0.7,1.4l-0.1-0.9l0.1-0.1h-0.9l0.1,0.1l-0.1,0.9l-0.7-1.4
			c-1.2,0.1-2.1,0.7-2.1,2h4.1c0,0.2-0.1,0.5-0.1,0.7h4.2l-1.5-1.5L447.1,125.6z"/>
	</g>
	<g>
		<path d="M306.7,124.3c-0.1-2.3-1.2-3.2-2.7-3.2s-2.6,0.9-2.7,3.2c-0.1,1.2-0.1,3.3-0.6,4.1h6.5
			C306.8,127.7,306.8,125.5,306.7,124.3L306.7,124.3z M305.9,124.9c0,0.2-0.4,0.4-0.4,0.4c-0.2,0.7-1,1.6-1.6,1.6s-1.4-0.9-1.6-1.6
			c-0.1,0-0.4-0.1-0.4-0.4c0-0.2,0-0.5,0.1-0.5h0.1v-0.2h0.2c0.9,0,1.6-0.4,2-0.9c0.2,0.4,0.7,0.6,1.4,0.9v0.4h0.1
			C305.9,124.4,306.1,124.6,305.9,124.9L305.9,124.9z"/>
	</g>
</g>
<g id="Calque_3_1_">
	<path fill="#444444" d="M348.8,190.6c0.7,0,1.4,0.1,2.1,0.4c0.6,0.2,1.2,0.6,1.7,1.1c0.5,0.5,0.9,1,1.1,1.7
		c0.2,0.6,0.4,1.4,0.4,2.1H353c0-0.6-0.1-1.1-0.4-1.6c-0.2-0.5-0.5-1-0.9-1.4c-0.4-0.4-0.9-0.7-1.4-0.9c-0.5-0.2-1.1-0.4-1.6-0.4
		c-0.6,0-1.1,0.1-1.6,0.4c-0.5,0.2-1,0.5-1.4,0.9c-0.4,0.4-0.7,0.9-0.9,1.4c-0.2,0.5-0.4,1.1-0.4,1.6v5.3h-1.1v-5.3
		c0-0.7,0.1-1.5,0.4-2.1c0.2-0.6,0.6-1.2,1.1-1.7c0.5-0.5,1-0.9,1.7-1.1C347.4,190.7,348,190.6,348.8,190.6z"/>
	<path fill="#444444" d="M371.9,190.6c0.7,0,1.4,0.1,2.1,0.4c0.6,0.2,1.2,0.6,1.7,1.1c0.5,0.5,0.9,1.1,1.1,1.7
		c0.2,0.6,0.4,1.4,0.4,2.1h-1.1c0-0.6-0.1-1.1-0.4-1.6c-0.2-0.5-0.5-1-0.9-1.4c-0.4-0.4-0.9-0.7-1.4-0.9c-0.5-0.2-1.1-0.4-1.6-0.4
		c-0.6,0-1.1,0.1-1.6,0.4c-0.5,0.2-1,0.5-1.4,0.9c-0.4,0.4-0.7,0.9-0.9,1.4c-0.2,0.5-0.4,1.1-0.4,1.6v5.3h-1.1v-5.3
		c0-0.7,0.1-1.4,0.4-2.1c0.2-0.6,0.6-1.2,1.1-1.7c0.5-0.5,1-0.9,1.7-1.1C370.5,190.7,371.2,190.6,371.9,190.6z"/>
	<path fill="#312782" d="M412.6,200.2c0.9,0,1.7-0.2,2.5-0.7c0.7-0.5,1.2-1.1,1.5-2h1.2c-0.1,0.5-0.5,1-0.7,1.5
		c-0.4,0.5-0.7,0.9-1.2,1.2c-0.5,0.4-1,0.6-1.5,0.7c-0.5,0.2-1.1,0.2-1.7,0.2c-0.7,0-1.5-0.1-2.1-0.4c-0.6-0.2-1.2-0.6-1.7-1.1
		c-0.5-0.5-0.9-1-1.1-1.7c-0.2-0.6-0.4-1.4-0.4-2.1c0-0.7,0.1-1.5,0.4-2.1c0.2-0.6,0.6-1.2,1.1-1.7c0.5-0.5,1-0.9,1.7-1.1
		c0.6-0.2,1.4-0.4,2.1-0.4c0.7,0,1.5,0.1,2.1,0.4c0.6,0.2,1.2,0.6,1.7,1.1c0.5,0.5,0.9,1,1.1,1.7c0.2,0.6,0.4,1.4,0.4,2.1v0.5h-2
		h-7.6c0.1,0.5,0.2,1,0.5,1.5c0.2,0.5,0.6,0.9,1,1.2s0.9,0.6,1.2,0.7C411.5,200.1,412.1,200.2,412.6,200.2z M412.6,191.7
		c-0.5,0-1.1,0.1-1.5,0.2c-0.5,0.2-0.9,0.5-1.2,0.7c-0.4,0.4-0.7,0.7-1,1.2c-0.2,0.5-0.4,1-0.5,1.5h8.5c-0.1-0.5-0.2-1-0.5-1.5
		c-0.2-0.5-0.6-0.9-1-1.2c-0.4-0.4-0.9-0.6-1.4-0.7C413.6,191.8,413.1,191.7,412.6,191.7z"/>
	<path fill="#444444" d="M412.6,200.2c0.9,0,1.7-0.2,2.5-0.7c0.7-0.5,1.2-1.1,1.5-2h1.2c-0.1,0.5-0.5,1-0.7,1.5
		c-0.4,0.5-0.7,0.9-1.2,1.2c-0.5,0.4-1,0.6-1.5,0.7c-0.5,0.2-1.1,0.2-1.7,0.2c-0.7,0-1.5-0.1-2.1-0.4c-0.6-0.2-1.2-0.6-1.7-1.1
		c-0.5-0.5-0.9-1-1.1-1.7c-0.2-0.6-0.4-1.4-0.4-2.1c0-0.7,0.1-1.5,0.4-2.1c0.2-0.6,0.6-1.2,1.1-1.7c0.5-0.5,1-0.9,1.7-1.1
		c0.6-0.2,1.4-0.4,2.1-0.4c0.7,0,1.5,0.1,2.1,0.4c0.6,0.2,1.2,0.6,1.7,1.1c0.5,0.5,0.9,1,1.1,1.7c0.2,0.6,0.4,1.4,0.4,2.1v0.5h-2
		h-7.6c0.1,0.5,0.2,1,0.5,1.5c0.2,0.5,0.6,0.9,1,1.2s0.9,0.6,1.2,0.7C411.5,200.1,412.1,200.2,412.6,200.2z M412.6,191.7
		c-0.5,0-1.1,0.1-1.5,0.2c-0.5,0.2-0.9,0.5-1.2,0.7c-0.4,0.4-0.7,0.7-1,1.2c-0.2,0.5-0.4,1-0.5,1.5h8.5c-0.1-0.5-0.2-1-0.5-1.5
		c-0.2-0.5-0.6-0.9-1-1.2c-0.4-0.4-0.9-0.6-1.4-0.7C413.6,191.8,413.1,191.7,412.6,191.7z"/>
	<path fill="#444444" d="M400.7,190.6c0.7,0,1.5,0.1,2.1,0.4c0.6,0.2,1.2,0.6,1.7,1.1c0.5,0.5,0.9,1,1.1,1.7
		c0.2,0.6,0.4,1.4,0.4,2.1v5.3h-1.1v-5.3c0-0.6-0.1-1.1-0.4-1.6c-0.2-0.5-0.5-1-0.9-1.4c-0.4-0.4-0.9-0.7-1.4-0.9
		c-0.5-0.2-1.1-0.4-1.6-0.4c-0.6,0-1.1,0.1-1.6,0.4c-0.5,0.2-1,0.5-1.4,0.9c-0.4,0.4-0.7,0.9-0.9,1.4c-0.2,0.5-0.4,1.1-0.4,1.6v5.3
		h-1.1v-5.3c0-0.6-0.1-1.1-0.4-1.6c-0.2-0.5-0.5-1-0.9-1.4c-0.4-0.4-0.9-0.7-1.4-0.9c-0.5-0.2-1.1-0.4-1.6-0.4
		c-0.5,0-1.1,0.1-1.6,0.4c-0.5,0.2-1,0.5-1.4,0.9s-0.7,0.9-0.9,1.4c-0.2,0.5-0.4,1.1-0.4,1.6v1.6l-1.1-1v-0.6c0-0.7,0.1-1.5,0.5-2.1
		c0.2-0.6,0.6-1.2,1.1-1.7c0.5-0.5,1.1-0.9,1.7-1.1c0.6-0.2,1.4-0.4,2.1-0.4c0.5,0,1,0.1,1.5,0.2c0.5,0.1,1,0.4,1.4,0.6
		c0.4,0.2,0.7,0.6,1.1,1c0.4,0.4,0.6,0.7,0.9,1.2c0.2-0.4,0.5-0.9,0.9-1.2c0.4-0.4,0.7-0.7,1.1-1c0.4-0.2,0.9-0.5,1.4-0.6
		C399.7,190.7,400.2,190.6,400.7,190.6z"/>
	<rect x="356.4" y="190.6" fill="#444444" width="1" height="10.7"/>
	<rect x="363.2" y="190.6" fill="#444444" width="1" height="10.7"/>
	<circle fill="#444444" cx="360.4" cy="188.3" r="1.5"/>
	<g>
		<path fill="#3996D2" d="M377.8,199.7c0.5,0.5,1.1,0.9,1.7,1.1c0.6,0.2,1.4,0.4,2.1,0.4c0.9,0,1.7-0.2,2.5-0.6
			c0.2-0.1,0.6-0.4,0.9-0.5l-0.6-0.9c-0.2,0.2-0.6,0.5-1,0.6c-0.5,0.2-1.1,0.4-1.7,0.4s-1.1-0.1-1.6-0.4c-0.5-0.2-1-0.5-1.4-0.9
			c-0.4-0.4-0.7-0.9-0.9-1.4c-0.2-0.5-0.4-1.1-0.4-1.6c0-0.6,0.1-1.1,0.4-1.6c0.2-0.5,0.5-1,0.9-1.4c0.4-0.4,0.9-0.7,1.4-0.9
			c0.5-0.2,1.1-0.4,1.6-0.4c0.6,0,1.2,0.1,1.7,0.4c0.5,0.2,1,0.5,1.4,0.9c0.4,0.4,0.7,0.9,0.9,1.4c0.2,0.5,0.4,1.1,0.4,1.6
			c0,0.2,0,0.6,0,0.6l1.1,1V196c0-0.7-0.1-1.5-0.4-2.1c-0.2-0.6-0.6-1.2-1.1-1.7c-0.5-0.5-1-0.9-1.7-1.1c-0.6-0.2-1.4-0.4-2.1-0.4
			c-0.7,0-1.4,0.1-2.1,0.4c-0.6,0.2-1.2,0.6-1.7,1.1c-0.5,0.5-0.9,1-1.1,1.7c-0.2,0.6-0.4,1.4-0.4,2.1s0.1,1.5,0.4,2.1
			C377,198.7,377.3,199.2,377.8,199.7z"/>
		<path fill="#3996D2" d="M385.8,201.3c0,0.6-0.1,1.1-0.4,1.6c-0.2,0.5-0.5,1-0.9,1.4c-0.4,0.4-0.9,0.7-1.4,0.9
			c-0.5,0.2-1.1,0.4-1.7,0.4s-1.1-0.1-1.6-0.4c-0.5-0.2-1-0.5-1.4-0.9c-0.4-0.4-0.7-0.9-0.9-1.4c-0.2-0.5-0.4-1.1-0.4-1.6h-1.1
			c0,0.7,0.1,1.4,0.4,2.1c0.2,0.6,0.6,1.2,1.1,1.7c0.5,0.5,1.1,0.9,1.7,1.1c0.6,0.2,1.4,0.4,2.1,0.4c0.7,0,1.5-0.1,2.1-0.4
			c0.6-0.2,1.2-0.6,1.7-1.1c0.5-0.5,0.9-1.1,1.1-1.7c0.2-0.6,0.4-1.4,0.4-2.1H385.8z"/>
	</g>
	<g>
		<path fill="#3996D2" d="M377.3,200.6L377.3,200.6l-0.9-0.9c-0.1,0.5-0.1,0.9-0.1,1.4v0.2h1.1V201
			C377.2,200.8,377.3,200.7,377.3,200.6z"/>
		<path fill="#3996D2" d="M377.6,197.5c-0.2,0.4-0.5,0.6-0.7,1.1c0.2,0.2,0.4,0.6,0.7,1v-0.1c0.1-0.4,0.4-0.6,0.5-0.9
			C377.8,198.1,377.7,197.6,377.6,197.5z"/>
		<path fill="#3996D2" d="M386.4,199c-0.2-0.6-0.6-1.2-1.1-1.7c-0.5-0.5-1.1-0.9-1.7-1.1c-0.6-0.2-1.4-0.4-2.1-0.4
			c-0.7,0-1.5,0.1-2.1,0.4c-0.4,0.2-0.9,0.4-1.1,0.7l0.5,0.9c0.2-0.2,0.6-0.5,1-0.6c0.5-0.2,1.1-0.4,1.7-0.4s1.1,0.1,1.6,0.4
			c0.5,0.2,1,0.5,1.4,0.9c0.4,0.4,0.7,0.9,0.9,1.4c0.2,0.5,0.4,1.1,0.4,1.6v0.2h1.1v-0.2C386.8,200.3,386.7,199.6,386.4,199z"/>
	</g>
	<rect x="359.9" y="190.6" fill="#3996D2" width="1" height="10.7"/>
	<circle fill="#3996D2" cx="356.9" cy="188.3" r="0.7"/>
	<circle fill="#3996D2" cx="363.8" cy="188.3" r="0.7"/>
</g>
<g id="Calque_4" display="none">
	<path display="inline" fill="#63B34B" d="M661.7,73.5c5.8,0,10.4,4.7,10.4,10.4c0,5.8-4.7,10.4-10.4,10.4
		c-5.8,0-10.4-4.7-10.4-10.4C651.2,78.2,655.9,73.5,661.7,73.5L661.7,73.5L661.7,73.5z"/>
	<path display="inline" fill="#F29816" d="M490.6,76.4c4.8,0,8.7,3.9,8.7,8.7c0,4.8-3.9,8.7-8.7,8.7c-4.8,0-8.7-3.9-8.7-8.7
		S485.8,76.4,490.6,76.4L490.6,76.4L490.6,76.4z"/>
	<path display="inline" fill="#A33D80" d="M462.7,31.5c9.6,0,17.4,7.9,17.4,17.4s-7.9,17.4-17.4,17.4c-9.6,0-17.4-7.7-17.4-17.4
		C445.3,39.4,453.2,31.5,462.7,31.5L462.7,31.5L462.7,31.5z"/>
	<path display="inline" fill="#E4261B" d="M684.8,31.5c9.6,0,17.4,7.9,17.4,17.4s-7.9,17.4-17.4,17.4c-9.6,0-17.4-7.7-17.4-17.4
		C667.3,39.4,675.2,31.5,684.8,31.5L684.8,31.5L684.8,31.5z"/>
	<path display="inline" fill="#00999A" d="M696,109.3c8.7,0,15.7,7,15.7,15.7c0,8.6-7,15.7-15.7,15.7c-8.6,0-15.7-7-15.7-15.7
		C680.2,116.4,687.2,109.3,696,109.3L696,109.3L696,109.3z"/>
	<path display="inline" fill="#A33D80" d="M660.2,102.8c4.8,0,8.7,3.9,8.7,8.7s-3.9,8.7-8.7,8.7c-4.8,0-8.7-3.9-8.7-8.7
		C651.5,106.7,655.4,102.8,660.2,102.8L660.2,102.8L660.2,102.8z"/>
	<path display="inline" fill="#E4261B" d="M489.5,102.7c4.8,0,8.7,3.9,8.7,8.7c0,4.8-3.9,8.7-8.7,8.7c-4.8,0-8.7-3.9-8.7-8.7
		C480.9,106.6,484.7,102.7,489.5,102.7L489.5,102.7L489.5,102.7z"/>
	<path display="inline" fill="#00999A" d="M504.4,139.9c6.8,0,12.2,5.5,12.2,12.2c0,6.8-5.5,12.2-12.2,12.2
		c-6.8,0-12.3-5.5-12.3-12.2C492.2,145.3,497.6,139.9,504.4,139.9L504.4,139.9L504.4,139.9z"/>
	<path display="inline" fill="#F29816" d="M645.1,139c6.8,0,12.2,5.5,12.2,12.2c0,6.8-5.5,12.2-12.2,12.2c-6.8,0-12.2-5.4-12.2-12.2
		C632.9,144.6,638.5,139,645.1,139L645.1,139L645.1,139z"/>
	<path display="inline" fill="#57859D" d="M448,109.3c8.7,0,15.7,7,15.7,15.7s-7,15.7-15.7,15.7c-8.6,0-15.7-7-15.7-15.7
		C432.3,116.4,439.3,109.3,448,109.3L448,109.3L448,109.3z"/>
</g>
</svg>
