<?xml version="1.0" encoding="utf-8"?>
<!-- Generator: Adobe Illustrator 18.1.1, SVG Export Plug-In . SVG Version: 6.00 Build 0)  -->
<svg version="1.1" xmlns="http://www.w3.org/2000/svg" xmlns:xlink="http://www.w3.org/1999/xlink" x="0px" y="0px"
	 viewBox="151.7 18.5 264 230.7" enable-background="new 151.7 18.5 264 230.7" xml:space="preserve">
<g id="Calque_2_1_" display="none">
	<rect x="147.7" y="13.5" display="inline" fill="#F2F2F2" width="271" height="240"/>
</g>
<g id="Calque_1">
	<g id="Calque_3" display="none">
		<rect id="background" x="170.8" y="27.3" display="inline" fill="#4E5D89" width="227.1" height="227.1"/>
	</g>
	<g id="Calque_1_1_">
	</g>
	<g id="Calque_2">
	</g>
	<path fill="#FFFEFF" d="M307,114.7c0-1-0.8-1.9-1.9-1.9c-1,0-1.9,0.8-1.9,1.9c0,1,0.8,1.9,1.9,1.9C306.1,116.5,307,115.7,307,114.7
		z"/>
	<path fill="#FFFEFF" d="M315.9,103.2c0,0-19.6,19-20.3,19.7c-0.1,0.1-0.1,0.1-0.1,0.2c0,9.6,0,29.4,0,45.8h1.6
		c0-16.2,0-35.7,0-45.2c0,0,0.1-0.2,0.1-0.2c1.6-1.6,12.8-12.4,19.5-18.8c13.6,0.1,37.9,0.2,47.6,0.3v-1.6
		C354.2,103.4,329.6,103.3,315.9,103.2z"/>
	<path fill="#FFFEFF" stroke="#F2F2F2" stroke-width="0.25" stroke-miterlimit="10" d="M349.1,126.3c0-5.5-4.4-9.9-9.9-9.9
		c-5.5,0-9.9,4.4-9.9,9.9c0,5.5,4.4,9.9,9.9,9.9C344.7,136.2,349.1,131.8,349.1,126.3z"/>
	<path fill="#FFFEFF" stroke="#F2F2F2" stroke-width="0.25" stroke-miterlimit="10" d="M386.2,42.6c0-8-6.5-14.5-14.5-14.5
		c-8,0-14.5,6.5-14.5,14.5c0,8,6.5,14.5,14.5,14.5C379.7,57.1,386.2,50.6,386.2,42.6z"/>
	<path fill="#FFFEFF" stroke="#F2F2F2" stroke-width="0.25" stroke-miterlimit="10" d="M360.6,71.9c0-4.6-3.7-8.3-8.3-8.3
		c-4.6,0-8.3,3.7-8.3,8.3c0,4.6,3.7,8.3,8.3,8.3C356.8,80.2,360.6,76.4,360.6,71.9z"/>
	<circle fill="#FFFEFF" stroke="#F2F2F2" stroke-width="0.25" stroke-miterlimit="10" cx="380.6" cy="104.8" r="13.9"/>
	<g>
		<path fill="#FFFEFF" d="M299.6,87.8c-0.2,0-0.5,0.1-0.9,0.1c-0.2-0.6-0.6-1.2-1-1.6c0.3-0.4,0.5-0.7,0.5-0.7
			c0.1-0.1,0-0.2-0.1-0.3c0,0-0.2-0.1-0.5-0.3c-0.3-0.2-0.4-0.3-0.5-0.4c-0.1-0.1-0.2-0.1-0.3,0c0,0-0.2,0.3-0.5,0.7
			c-0.5-0.2-1.1-0.4-1.7-0.4c-0.1-0.6-0.1-0.9-0.1-0.9c0-0.1-0.1-0.1-0.3-0.1c0,0-0.2,0-0.6,0.1c-0.3,0.1-0.6,0.1-0.6,0.1
			c-0.2,0-0.2,0.1-0.2,0.2c0,0,0,0.4,0.1,0.9c-0.6,0.2-1.1,0.5-1.6,0.9c-0.4-0.3-0.7-0.5-0.7-0.5c-0.1,0-0.2,0-0.3,0.1
			c0,0-0.1,0.2-0.3,0.5c-0.2,0.3-0.3,0.5-0.3,0.5c-0.1,0.1-0.1,0.2,0,0.3c0,0,0.3,0.2,0.7,0.5c-0.3,0.5-0.4,1.1-0.4,1.8
			c-0.6,0.1-0.9,0.1-0.9,0.1c-0.1,0-0.1,0.1-0.1,0.3c0,0,0,0.2,0.1,0.6c0,0.3,0.1,0.6,0.1,0.6c0,0.2,0.1,0.2,0.2,0.2
			c0,0,0.4,0,0.9-0.1c0.2,0.5,0.5,1,0.8,1.4c-0.3,0.3-0.5,0.6-0.6,0.8c-0.1,0.1,0,0.2,0.1,0.3c0,0,0,0,0.1,0
			c0.4,0.3,0.6,0.5,0.8,0.6c0,0,0,0,0.1,0c0.1,0.1,0.2,0.1,0.3,0c0.1-0.1,0.3-0.4,0.5-0.7c0.6,0.3,1.2,0.5,1.9,0.5
			c0.1,0.4,0.1,0.7,0.1,0.9c0,0.1,0.1,0.2,0.3,0.1c0,0,0,0,0.1,0c0.2,0,0.6-0.1,1-0.2c0,0,0,0,0.1,0c0.2,0,0.2-0.1,0.2-0.2
			c0-0.2-0.1-0.5-0.1-0.9c0.6-0.2,1.2-0.6,1.6-1c0.3,0.2,0.6,0.4,0.7,0.5c0.1,0.1,0.2,0,0.3-0.1c0,0,0,0,0-0.1
			c0.1-0.2,0.4-0.5,0.6-0.8c0,0,0,0,0-0.1c0.1-0.1,0.1-0.2,0-0.3c-0.1-0.1-0.4-0.3-0.7-0.5c0.2-0.5,0.4-1.1,0.4-1.7
			c0.4-0.1,0.7-0.1,0.9-0.1c0.1,0,0.2-0.1,0.1-0.3c0,0,0,0,0-0.1c0-0.2-0.1-0.6-0.2-1c0,0,0,0,0-0.1
			C299.8,87.8,299.8,87.8,299.6,87.8z M297.7,89.8C297.7,89.8,297.6,89.8,297.7,89.8c-0.1,1-0.8,1.9-1.7,2.4c0,0,0,0,0,0
			c-0.1,0-0.1,0.1-0.2,0.1c0,0,0,0,0,0l0,0c-0.3,0.1-0.5,0.2-0.8,0.2c-0.3,0-0.6,0-0.9,0l0,0c0,0,0,0,0,0c-0.1,0-0.2,0-0.2,0
			c0,0,0,0,0,0c-0.8-0.2-1.5-0.6-2-1.3l0,0c0,0,0,0,0,0c-0.1-0.1-0.1-0.1-0.1-0.2c0,0,0,0,0,0c0-0.1-0.1-0.1-0.1-0.2c0,0,0,0,0,0
			c0,0,0,0,0,0c-0.1-0.3-0.2-0.5-0.2-0.8c0-0.3,0-0.6,0-0.9c0,0,0,0,0,0c0,0,0,0,0,0c0.1-1.1,0.8-2,1.8-2.5l0,0l0,0
			c0.3-0.1,0.5-0.2,0.8-0.2c1.3-0.2,2.6,0.5,3.2,1.6c0,0,0,0,0,0.1c0,0.1,0.1,0.1,0.1,0.2c0,0,0,0,0,0c0,0,0,0,0,0
			c0.1,0.3,0.2,0.5,0.2,0.8C297.7,89.2,297.7,89.5,297.7,89.8C297.7,89.8,297.7,89.8,297.7,89.8z"/>
		<path fill="#FFFEFF" d="M295.1,87.4c-1.1-0.3-2.2,0.3-2.5,1.4c-0.3,1.1,0.3,2.2,1.4,2.5c1.1,0.3,2.2-0.3,2.5-1.4
			C296.8,88.9,296.2,87.8,295.1,87.4z M294.1,90.8c-0.8-0.2-1.2-1.1-1-1.9c0.2-0.8,1.1-1.2,1.9-1c0.8,0.2,1.2,1.1,1,1.9
			C295.7,90.6,294.9,91.1,294.1,90.8z"/>
	</g>
	<g>
		<path fill="#FFFEFF" d="M273.3,89.7c-0.1,0-0.4,0.1-0.7,0.1c-0.2-0.5-0.5-1-0.8-1.3c0.2-0.3,0.4-0.5,0.4-0.5c0-0.1,0-0.1-0.1-0.2
			c0,0-0.2-0.1-0.4-0.3c-0.2-0.2-0.4-0.3-0.4-0.3c-0.1-0.1-0.2-0.1-0.2,0c0,0-0.2,0.2-0.4,0.6c-0.4-0.2-0.9-0.3-1.3-0.3
			c-0.1-0.4-0.1-0.7-0.1-0.7c0-0.1-0.1-0.1-0.2-0.1c0,0-0.2,0-0.5,0.1c-0.3,0-0.4,0.1-0.5,0.1c-0.1,0-0.2,0.1-0.2,0.1
			c0,0,0,0.3,0.1,0.7c-0.5,0.2-0.9,0.4-1.3,0.8c-0.4-0.3-0.6-0.4-0.6-0.4c-0.1,0-0.1,0-0.2,0.1c0,0-0.1,0.2-0.3,0.4
			c-0.2,0.2-0.3,0.4-0.3,0.4c-0.1,0.1-0.1,0.2,0,0.2c0,0,0.2,0.2,0.6,0.4c-0.2,0.4-0.3,0.9-0.4,1.4c-0.4,0.1-0.7,0.1-0.7,0.1
			c-0.1,0-0.1,0.1-0.1,0.2c0,0,0,0.2,0.1,0.5c0,0.3,0.1,0.4,0.1,0.5c0,0.1,0.1,0.2,0.1,0.2c0,0,0.3,0,0.7-0.1
			c0.1,0.4,0.4,0.8,0.7,1.1c-0.2,0.3-0.4,0.5-0.5,0.6c-0.1,0.1,0,0.2,0.1,0.2c0,0,0,0,0,0c0.3,0.2,0.5,0.4,0.7,0.5c0,0,0,0,0,0
			c0.1,0.1,0.2,0.1,0.3,0c0.1-0.1,0.2-0.3,0.4-0.6c0.5,0.3,1,0.4,1.6,0.4c0,0.3,0.1,0.6,0.1,0.7c0,0.1,0.1,0.1,0.2,0.1
			c0,0,0,0,0.1,0c0.2,0,0.5-0.1,0.8-0.1c0,0,0,0,0.1,0c0.1,0,0.2-0.1,0.2-0.2c0-0.1-0.1-0.4-0.1-0.7c0.5-0.2,0.9-0.5,1.3-0.8
			c0.3,0.2,0.5,0.3,0.6,0.4c0.1,0.1,0.2,0,0.2-0.1c0,0,0,0,0,0c0.1-0.2,0.3-0.4,0.5-0.7c0,0,0,0,0,0c0.1-0.1,0.1-0.2,0-0.3
			c-0.1-0.1-0.3-0.2-0.6-0.4c0.2-0.4,0.3-0.9,0.3-1.4c0.3,0,0.6-0.1,0.7-0.1c0.1,0,0.1-0.1,0.1-0.2c0,0,0,0,0-0.1
			c0-0.2-0.1-0.5-0.1-0.8c0,0,0,0,0-0.1C273.4,89.8,273.4,89.7,273.3,89.7z M271.7,91.3C271.7,91.3,271.7,91.4,271.7,91.3
			c-0.1,0.8-0.6,1.5-1.3,1.9c0,0,0,0,0,0c0,0-0.1,0.1-0.2,0.1c0,0,0,0,0,0l0,0c-0.2,0.1-0.4,0.2-0.7,0.2c-0.2,0-0.5,0-0.7,0l0,0
			c0,0,0,0,0,0c-0.1,0-0.1,0-0.2,0c0,0,0,0,0,0c-0.6-0.1-1.2-0.5-1.6-1l0,0c0,0,0,0,0,0c0-0.1-0.1-0.1-0.1-0.2c0,0,0,0,0,0
			c0-0.1-0.1-0.1-0.1-0.2c0,0,0,0,0,0c0,0,0,0,0,0c-0.1-0.2-0.2-0.4-0.2-0.7c0-0.2,0-0.5,0-0.7c0,0,0,0,0,0c0,0,0,0,0,0
			c0.1-0.9,0.7-1.6,1.5-2l0,0l0,0c0.2-0.1,0.4-0.2,0.7-0.2c1.1-0.2,2.1,0.4,2.6,1.3c0,0,0,0,0,0c0,0,0,0.1,0.1,0.1c0,0,0,0,0,0
			c0,0,0,0,0,0c0.1,0.2,0.2,0.4,0.2,0.7C271.7,90.9,271.7,91.1,271.7,91.3C271.7,91.3,271.7,91.3,271.7,91.3z"/>
		<path fill="#FFFEFF" d="M269.7,89.5c-0.9-0.3-1.8,0.2-2,1.1c-0.3,0.9,0.2,1.8,1.1,2c0.9,0.3,1.8-0.2,2-1.1
			C271,90.6,270.5,89.7,269.7,89.5z M268.8,92.2c-0.6-0.2-1-0.9-0.8-1.5c0.2-0.6,0.9-1,1.5-0.8c0.6,0.2,1,0.9,0.8,1.5
			C270.1,92,269.5,92.4,268.8,92.2z"/>
	</g>
	<path fill="#FFFEFF" d="M256.5,114.7c0-1,0.8-1.9,1.9-1.9c1,0,1.9,0.8,1.9,1.9c0,1-0.8,1.9-1.9,1.9
		C257.4,116.5,256.5,115.7,256.5,114.7z"/>
	<path fill="#FFFEFF" d="M247.5,103.2c0,0,19.6,19,20.4,19.7c0.1,0.1,0.1,0.1,0.1,0.2c0,9.6,0,29.4,0,45.8h-1.6
		c0-16.2,0-35.7,0-45.2c0,0-0.1-0.2-0.1-0.2c-1.7-1.6-12.8-12.4-19.5-18.8c-13.7,0.1-42.1,0.2-51.8,0.3v-1.6
		C205.1,103.4,233.8,103.3,247.5,103.2z"/>
	<path fill="#FFFEFF" stroke="#F2F2F2" stroke-width="0.25" stroke-miterlimit="10" d="M205.5,93.7c0-3.9,3.2-7.1,7.1-7.1
		c3.9,0,7.1,3.2,7.1,7.1c0,3.9-3.2,7.1-7.1,7.1C208.6,100.8,205.5,97.6,205.5,93.7z"/>
	<path fill="#FFFEFF" stroke="#F2F2F2" stroke-width="0.25" stroke-miterlimit="10" d="M214.5,126.9c0-5.5,4.4-9.9,9.9-9.9
		c5.5,0,9.9,4.4,9.9,9.9c0,5.5-4.4,9.9-9.9,9.9C218.9,136.8,214.5,132.3,214.5,126.9z"/>
	<path fill="#FFFEFF" stroke="#F2F2F2" stroke-width="0.25" stroke-miterlimit="10" d="M176.5,43.5c0-8,6.5-14.5,14.5-14.5
		c8,0,14.5,6.5,14.5,14.5c0,8-6.5,14.5-14.5,14.5C183,58,176.5,51.5,176.5,43.5z"/>
	<circle fill="#FFFEFF" stroke="#F2F2F2" stroke-width="0.25" stroke-miterlimit="10" cx="179.2" cy="104.8" r="13.9"/>
	<path fill="#707070" d="M293.5,121.2c0,0,25.8-25,25.9-25.1c0.1-0.1,0.3-0.1,0.3-0.1h23.2l-0.2-1.4l-21.7,0h-1.7c0,0-0.2,0-0.3,0.1
		c-0.1,0.1-26.7,25.9-26.7,25.9s-0.1,0.1-0.1,0.2c0,0.1,0.1,19.6,0.1,37.5h1.4c0-17.6-0.1-36.8-0.1-36.9
		C293.4,121.2,293.5,121.2,293.5,121.2z"/>
	<path fill="#707070" d="M355.3,51H353h0v0c-6.1,5.9-25.7,24.9-29.2,28.4h-3.5H318h0v0c-15.1,14.6-33,32-34.6,33.5
		c-0.1,0.1-0.1,0.1-0.1,0.2c0,10.8,0,34.6,0,51.9h1.6c0-17.1,0-40.6,0-51.2c0,0,0.1-0.2,0.1-0.2c3.2-3.1,19.7-19.1,33.7-32.7h3.5
		h2.3c0.5-0.5,1.1-1,1.6-1.6c3.9-3.8,22.4-21.8,27.6-26.8h3.5h1.5l-1.8-1.6L355.3,51L355.3,51z"/>
	<circle fill="#707070" cx="348.7" cy="56.7" r="2.5"/>
	<path fill="#707070" d="M324.6,67.8c0.1,0,2.9-0.3,3.8-0.3c0.2,0,0.2-0.1,0.1-0.3c0,0-0.3-0.3-0.6-0.7c0.7-0.6,2.3-2.1,2.7-2.5
		c0.5-0.5,0.6-0.8,0.3-1.1c-0.1-0.1-1.2-1.3-1.3-1.4c-0.3-0.3-0.6-0.3-1.1,0.2c-0.5,0.4-2.1,1.9-2.7,2.6c-0.3-0.4-0.6-0.6-0.6-0.7
		c-0.2-0.2-0.2-0.2-0.2,0c-0.1,0.9-0.4,3.8-0.4,3.9C324.4,67.8,324.5,67.8,324.6,67.8z"/>
	<path fill="#707070" d="M270,121.2c0,0-25.8-25-25.9-25.1c-0.1-0.1-0.3-0.1-0.3-0.1h-23.2l0.2-1.4l21.7,0h1.7c0,0,0.2,0,0.3,0.1
		c0.1,0.1,26.7,25.9,26.7,25.9s0.1,0.1,0.1,0.2c0,0.1-0.1,19.6-0.1,37.5H270c0-17.6,0.1-36.8,0.1-36.9
		C270.1,121.2,270,121.2,270,121.2z"/>
	<path fill="#707070" d="M208.2,51h2.3h0v0c6.1,5.9,25.7,24.9,29.2,28.4h3.5h2.3h0v0c15.1,14.6,33,32,34.6,33.5
		c0.1,0.1,0.1,0.1,0.1,0.2c0,10.8,0,34.6,0,51.9h-1.6c0-17.1,0-40.6,0-51.2c0,0-0.1-0.2-0.1-0.2c-3.2-3.1-19.7-19.1-33.7-32.7h-3.5
		h-2.3c-0.5-0.5-1.1-1-1.6-1.6c-3.9-3.8-22.4-21.8-27.6-26.8h-3.5h-1.5l1.2-1.5L208.2,51L208.2,51z"/>
	<circle fill="#707070" cx="214.9" cy="56.7" r="2.5"/>
	<path fill="#707070" d="M238.9,67.8c-0.1,0-2.9-0.3-3.8-0.3c-0.2,0-0.2-0.1-0.1-0.3c0,0,0.3-0.3,0.6-0.7c-0.7-0.6-2.3-2.1-2.7-2.5
		c-0.5-0.5-0.6-0.8-0.3-1.1c0.1-0.1,1.2-1.3,1.3-1.4c0.3-0.3,0.6-0.3,1.1,0.2c0.5,0.4,2.1,1.9,2.7,2.6c0.3-0.4,0.6-0.6,0.6-0.7
		c0.2-0.2,0.2-0.2,0.2,0c0.1,0.9,0.4,3.8,0.4,3.9C239.1,67.8,239,67.8,238.9,67.8z"/>
	<circle fill="#FFFFFF" stroke="#F2F2F2" stroke-width="0.25" stroke-miterlimit="10" cx="350.6" cy="93.8" r="6.7"/>
	<circle fill="#FFFFFF" stroke="#F2F2F2" stroke-width="0.25" stroke-miterlimit="10" cx="213.1" cy="72.6" r="7.1"/>
	<rect x="241.9" y="160.6" fill="#C19409" width="82" height="47.7"/>
	<g>
		<g>
			<path fill="#3996D3" d="M287,96.3c-0.2,0.1-0.6,0.3-1,0.5c-0.5-0.7-1.1-1.2-1.9-1.6c0.2-0.6,0.4-1,0.4-1c0-0.1-0.1-0.2-0.3-0.3
				c0,0-0.3-0.1-0.7-0.3c-0.4-0.2-0.7-0.2-0.7-0.3c-0.2-0.1-0.3-0.1-0.4,0.1c0,0-0.2,0.4-0.4,1.1c-0.7-0.1-1.5-0.1-2.2,0.1
				c-0.3-0.6-0.5-1-0.5-1.1c-0.1-0.1-0.2-0.1-0.4,0c0,0-0.3,0.1-0.7,0.3c-0.4,0.2-0.6,0.3-0.7,0.3c-0.2,0.1-0.3,0.2-0.2,0.3
				c0,0,0.2,0.4,0.5,1.1c-0.6,0.5-1.2,1.1-1.6,1.7c-0.7-0.2-1.1-0.4-1.1-0.4c-0.1,0-0.2,0.1-0.3,0.3c0,0-0.1,0.3-0.2,0.7
				c-0.1,0.4-0.2,0.7-0.2,0.7c-0.1,0.2-0.1,0.3,0.1,0.4c0,0,0.4,0.2,1.1,0.4c-0.1,0.8-0.1,1.5,0.1,2.3c-0.6,0.3-1,0.5-1.1,0.5
				c-0.1,0.1-0.1,0.2,0,0.4c0,0,0.1,0.3,0.3,0.7c0.2,0.4,0.3,0.6,0.3,0.7c0.1,0.2,0.2,0.3,0.3,0.2c0,0,0.4-0.2,1.1-0.5
				c0.4,0.6,0.9,1.1,1.5,1.4c-0.2,0.5-0.3,0.9-0.4,1.2c-0.1,0.1,0,0.3,0.2,0.3c0,0,0.1,0,0.1,0c0.5,0.2,1,0.4,1.3,0.5
				c0,0,0.1,0,0.1,0c0.2,0.1,0.3,0,0.4-0.1c0.1-0.2,0.2-0.6,0.4-1.1c0.8,0.2,1.7,0.1,2.6-0.1c0.2,0.5,0.4,0.8,0.5,1
				c0.1,0.1,0.2,0.2,0.4,0.1c0,0,0.1,0,0.1,0c0.3-0.1,0.7-0.3,1.2-0.6c0,0,0.1,0,0.1,0c0.2-0.1,0.3-0.2,0.2-0.4
				c-0.1-0.2-0.3-0.6-0.5-1c0.7-0.5,1.2-1.1,1.6-1.8c0.5,0.2,0.9,0.3,1.1,0.4c0.1,0,0.3,0,0.3-0.2c0,0,0-0.1,0-0.1
				c0.1-0.3,0.2-0.7,0.4-1.3c0,0,0-0.1,0-0.1c0.1-0.2,0-0.3-0.1-0.4c-0.2-0.1-0.6-0.2-1.1-0.4c0.1-0.7,0.1-1.5-0.1-2.2
				c0.5-0.2,0.8-0.4,1-0.5c0.1-0.1,0.2-0.2,0.1-0.4c0,0,0,0,0-0.1c-0.1-0.3-0.3-0.7-0.6-1.2c0,0,0-0.1,0-0.1
				C287.2,96.3,287.1,96.3,287,96.3z M285.3,99.5C285.3,99.5,285.3,99.5,285.3,99.5c0.2,1.3-0.2,2.6-1.1,3.6c0,0,0,0,0,0
				c-0.1,0.1-0.1,0.1-0.2,0.2c0,0,0,0,0,0l0,0c-0.3,0.2-0.6,0.4-0.9,0.6c-0.3,0.2-0.7,0.3-1,0.3l0,0c0,0,0,0,0,0c-0.1,0-0.2,0-0.3,0
				c0,0,0,0,0,0c-1,0.1-2.1-0.2-2.9-0.9v0c0,0,0,0,0,0c-0.1-0.1-0.2-0.1-0.3-0.2c0,0,0,0,0,0c-0.1-0.1-0.2-0.1-0.2-0.2c0,0,0,0,0,0
				c0,0,0,0,0,0c-0.2-0.3-0.4-0.6-0.6-0.9c-0.2-0.3-0.3-0.7-0.3-1c0,0,0,0,0,0c0,0,0,0,0,0c-0.2-1.4,0.3-2.8,1.3-3.7h0l0,0
				c0.3-0.2,0.6-0.4,0.9-0.6c1.6-0.8,3.4-0.4,4.6,0.8c0,0,0,0,0.1,0.1c0.1,0.1,0.1,0.1,0.2,0.2c0,0,0,0,0,0c0,0,0,0,0,0
				c0.2,0.3,0.4,0.6,0.6,0.9C285.1,98.8,285.2,99.2,285.3,99.5C285.3,99.5,285.3,99.5,285.3,99.5z"/>
			<path fill="#3996D3" d="M281.3,97.6c-1.4,0-2.6,1.2-2.6,2.6c0,1.4,1.2,2.6,2.6,2.6c1.4,0,2.6-1.2,2.6-2.6
				C283.9,98.8,282.8,97.6,281.3,97.6z M281.3,102.1c-1.1,0-1.9-0.9-1.9-1.9c0-1.1,0.9-1.9,1.9-1.9c1.1,0,1.9,0.9,1.9,1.9
				C283.3,101.3,282.4,102.1,281.3,102.1z"/>
		</g>
	</g>
	<path fill="#3996D3" d="M331.3,117.9l-2.5-2.4l-1.6-1.6c0,0-14,0-14.7,0c-0.2,0.2-12.8,12.4-13.6,13.2c-0.1,0.1-0.1,0.1-0.1,0.2
		c0,9.3,0,28.3,0,44.4h1.6c0-15.9,0-34.6,0-43.7c0,0,0.1-0.2,0.1-0.2c1.6-1.6,6.5-6.3,12.7-12.3c4.5,0,9,0,13.4,0l2.5,2.4l1.4,1.3
		l1.1-1.3C331.4,117.9,331.3,117.9,331.3,117.9z"/>
	<path fill="#3996D3" d="M343.6,77c-3.8,3.6-7.4,7.3-10.1,9.9c-0.1,0.1-0.6,0.4-1,0.4c-7.7,0.1-13.8,0-15,0c-0.1,0-0.3,0.1-0.4,0.2
		c0,0-28.5,27.6-29.6,28.6c-0.2,0.2-0.3,0.3-0.3,0.6c0,10.4,0,32.4,0,49.4h2.2c0-20.7,0-48.2,0-48.4c0-0.3,0.2-0.5,0.3-0.6
		c1.6-1.6,28.2-27.3,28.3-27.4c0.2-0.1,0.4-0.2,0.5-0.2c1.8,0,12,0,14.6,0c0.6,0,1.1-0.2,1.2-0.3c3.1-3,6.1-6,10.9-10.6L343.6,77z"
		/>
	<circle fill="#3996D3" cx="333.6" cy="87.6" r="3.2"/>
	<path fill="#3996D3" d="M232.2,117.9l2.5-2.4l1.6-1.6c0,0,14,0,14.7,0c0.2,0.2,12.8,12.4,13.6,13.2c0.1,0.1,0.1,0.1,0.1,0.2
		c0,9.3,0,28.3,0,44.4h-1.6c0-15.9,0-34.6,0-43.7c0,0-0.1-0.2-0.1-0.2c-1.6-1.6-6.5-6.3-12.7-12.3c-4.5,0-9,0-13.4,0l-2.5,2.4
		l-1.4,1.3l-1.1-1.3C232.1,117.9,232.2,117.9,232.2,117.9z"/>
	<path fill="#3996D3" d="M220.1,77.1c3.8,3.6,7.2,7.2,9.9,9.8c0.1,0.1,0.6,0.4,1,0.4c7.7,0.1,13.8,0,15,0c0.1,0,0.3,0.1,0.4,0.2
		c0,0,28.5,27.6,29.6,28.6c0.2,0.2,0.3,0.3,0.3,0.6c0,10.4,0,32.4,0,49.4H274c0-20.7,0-48.2,0-48.4c0-0.3-0.2-0.5-0.3-0.6
		c-1.6-1.6-28.2-27.3-28.3-27.4c-0.2-0.1-0.4-0.2-0.5-0.2c-1.8,0-12,0-14.6,0c-0.6,0-1.1-0.2-1.2-0.3c-3.1-3-5.8-5.7-10.6-10.4
		L220.1,77.1z"/>
	<circle fill="#3996D3" cx="229.9" cy="87.6" r="3.2"/>
	<path fill="#878787" d="M328.4,155.3h-90.6c0,0-1.2,0-1.2,1.2c0,1.2,0,58.4,0,58.4h93c0,0,0-57.1,0-58.4
		C329.6,155.3,328.4,155.3,328.4,155.3z"/>
	<polygon fill="#878787" points="346.8,235.7 219.8,235.7 219,236.5 219,239.4 347.6,239.4 347.6,236.5 	"/>
	<polygon fill="#A3A3A3" points="329.6,214.9 236.6,214.9 219,236.5 347.6,236.5 	"/>
	<rect x="237.8" y="217.7" fill="#FFFFFF" width="37.1" height="0.8"/>
	<rect x="236.2" y="222.2" fill="#FFFFFF" width="37.1" height="0.8"/>
	<rect x="233.7" y="227.1" fill="#FFFFFF" width="37.1" height="0.8"/>
	<rect x="287.6" y="217.7" fill="#FFFFFF" width="37.1" height="0.8"/>
	<rect x="267.6" y="222.2" fill="#FFFFFF" width="58.8" height="0.8"/>
	<rect x="263.9" y="227.1" fill="#FFFFFF" width="64.9" height="0.8"/>
	<rect x="242.7" y="161.1" fill="#FFFFFF" width="80.4" height="46.9"/>
	<g>
		<path d="M228.2,127.7c0.2-0.2,0.4-0.6,0.5-0.9c0.1-0.1,0.3-0.2,0.3-0.4c0-0.2,0.1-0.5-0.1-0.7v-0.3c0-0.5,0-1.1-0.6-1.3
			c0-0.1-0.1-0.2-0.1-0.2l0-0.5l-0.3,0.3c-0.1,0.1-0.6,0.2-0.9,0.2l-0.2,0c-1,0.2-1,0.7-1,1.2c0,0.1,0,0.1,0,0.2l0,0.2
			c-0.2,0.1-0.2,0.3-0.1,0.7c0,0.2,0.2,0.3,0.3,0.4c0.1,0.2,0.2,0.6,0.5,0.9c-1.3,0.3-2.2,1.3-2.2,2.5v0.1h6v-0.1
			C230.4,129,229.5,128,228.2,127.7L228.2,127.7z M228.9,130.1v-0.6c0-0.1-0.1-0.1-0.1-0.1c-0.1,0-0.1,0.1-0.1,0.1v0.6h-2.6v-0.6
			c0-0.1-0.1-0.1-0.1-0.1c-0.1,0-0.1,0.1-0.1,0.1v0.6h-1.2c0-0.9,0.6-1.7,1.5-2c0.3,0.4,0.7,0.7,1.3,0.7c0.5,0,1-0.3,1.3-0.7
			c0.9,0.4,1.5,1.2,1.5,2H228.9z M226.4,128c0.1-0.1,0.3-0.1,0.4-0.1c0.2,0.1,0.4,0.2,0.6,0.2c0.2,0,0.4-0.1,0.6-0.2
			c0.2,0,0.3,0.1,0.4,0.1c-0.2,0.3-0.6,0.5-1,0.5C227,128.5,226.6,128.3,226.4,128L226.4,128z M226.2,126.6c-0.1,0-0.2-0.1-0.3-0.2
			c0-0.2-0.1-0.4,0-0.4c0,0,0.1,0,0.1,0v-0.4c0-0.7-0.2-1.1,0.9-1.2l0,0c0,0,0.9-0.1,1.1-0.3c0,0,0,0.2,0.1,0.4
			c0.5,0.2,0.6,0.7,0.6,1.1v0.4c0,0,0.1,0,0.1,0c0.1,0,0,0.3,0,0.5c0,0.2-0.2,0.2-0.2,0.2c-0.1,0.3-0.3,0.8-0.6,1
			c0,0-0.1,0.1-0.1,0.1c-0.1,0-0.2,0.1-0.2,0.1c-0.1,0-0.1,0-0.2,0c-0.1,0-0.1,0-0.2,0c-0.1,0-0.2,0-0.2-0.1c0,0-0.1-0.1-0.1-0.1
			C226.6,127.4,226.3,127,226.2,126.6L226.2,126.6z"/>
	</g>
	<g>
		<g>
			<g>
				<defs>
					<rect id="SVGID_1_" x="372.9" y="38" width="8.1" height="9.3"/>
				</defs>
				<clipPath id="SVGID_2_">
					<use xlink:href="#SVGID_1_"  overflow="visible"/>
				</clipPath>
				<path clip-path="url(#SVGID_2_)" d="M381.1,46.3l-0.3-1.4c-0.1-0.4-0.4-0.7-0.8-0.8l-1.3-0.3l-0.3-0.5c0,0,0,0-0.1-0.1
					c0.2-0.3,0.4-0.7,0.6-1c0.2-0.1,0.5-0.3,0.5-0.6c0.1-0.4,0-0.7-0.2-0.8v-0.3c0.2-0.6,0.3-1.6-0.6-2.1c-0.4-0.2-0.8-0.3-1-0.2
					c0-0.1,0.1-0.3,0.1-0.3c-0.2,0-0.3,0.1-0.4,0.2c-0.3-0.1-0.7-0.2-1.1-0.1c-1.5,0.3-1.7,2.3-1.4,2.8c-0.2,0.1-0.3,0.5-0.2,0.8
					c0.1,0.3,0.3,0.5,0.5,0.6c0.1,0.4,0.3,0.7,0.6,1c0,0,0,0-0.1,0.1l-0.3,0.6l-1.3,0.3c-0.4,0.1-0.7,0.4-0.8,0.8l-0.3,1.4
					c0,0.2,0,0.4,0.1,0.5c0.1,0.1,0.3,0.2,0.5,0.2h6.8c0.2,0,0.4-0.1,0.5-0.2C381,46.7,381.1,46.5,381.1,46.3L381.1,46.3z
					 M380.7,46.7c-0.1,0.1-0.2,0.1-0.3,0.1h-1.3V46c0-0.1-0.1-0.1-0.1-0.1c-0.1,0-0.1,0.1-0.1,0.1v0.8h-3.6V46
					c0-0.1-0.1-0.1-0.1-0.1c-0.1,0-0.1,0.1-0.1,0.1v0.8h-1.3c-0.1,0-0.2,0-0.3-0.1c-0.1-0.1-0.1-0.2-0.1-0.3l0.3-1.4
					c0-0.3,0.3-0.5,0.6-0.6l1.2-0.3c0,0,0,0,0,0l1.3,0.8c0,0,0,0,0.1,0c0,0,0,0,0,0c0,0,0.1,0,0.1-0.1l0.2-0.4l0.2,0.4
					c0,0,0.1,0.1,0.1,0.1c0,0,0,0,0,0c0,0,0.1,0,0.1,0l1.3-0.8c0,0,0,0,0,0l1.2,0.3c0.3,0.1,0.5,0.3,0.6,0.6l0.3,1.4
					C380.8,46.5,380.8,46.6,380.7,46.7L380.7,46.7z M375.7,43.7l0.1-0.2l0.2,0.1l0.2,0.1l0.2,0.1l0.4,0.3l-0.2,0.4l-0.9-0.5
					l-0.1-0.1l0,0L375.7,43.7z M378.3,43.7l0.1,0.2l0,0l-1.1,0.6l-0.2-0.4l0.4-0.3l0.2-0.1l0.2-0.1l0.2-0.1L378.3,43.7z M375.3,41.9
					c-0.1,0-0.4-0.1-0.5-0.4c-0.1-0.2,0-0.4,0.1-0.5c0,0,0.1,0,0.1,0v-0.3c0,0,0,0,0,0c0,0,0,0,0,0v-0.1c0-0.3,0.3-0.8,1.8-0.3
					c0.5,0.2,0.8-0.1,1-0.5c0.5,0.1,0.9,0.6,1,1v0.3c0,0,0,0,0.1,0c0,0,0,0,0,0c0,0,0,0,0,0c0,0,0,0,0,0c0.1,0,0.2,0.3,0.1,0.5
					c-0.1,0.2-0.3,0.4-0.5,0.4c-0.2,0.6-0.6,1.4-1.2,1.7c-0.1,0.1-0.3,0.1-0.5,0.1c-0.2,0-0.3,0-0.5-0.1
					C375.9,43.3,375.5,42.5,375.3,41.9L375.3,41.9z"/>
			</g>
		</g>
	</g>
	<g>
		<path d="M380.8,109.8C380.8,109.8,380.8,109.8,380.8,109.8C380.8,109.8,380.8,109.8,380.8,109.8L380.8,109.8z M379.6,108.5
			C379.6,108.5,379.6,108.5,379.6,108.5c0.2,0.8,0.8,1.4,1.4,1.4c0.5,0,1.2-0.6,1.4-1.4c0.1,0,0.2-0.1,0.2-0.3c0-0.2,0-0.3-0.1-0.3
			c0,0,0,0,0,0c0-1.3-0.6-1.7-1.4-1.8c-0.8,0-1.5,0.6-1.5,1.8c0,0,0,0,0,0c-0.1,0-0.2,0.2-0.1,0.3
			C379.4,108.4,379.5,108.5,379.6,108.5L379.6,108.5z M380.9,106.1L380.9,106.1C380.8,106.1,380.8,106.1,380.9,106.1
			C380.9,106.1,380.9,106.1,380.9,106.1L380.9,106.1z M376.5,110.8h-0.4l0.6-0.6c-1.3,0.1-2.2,0.6-2.2,1.9h2.8l-1-1L376.5,110.8z
			 M382,110.1l-0.7,1.4l-0.1-0.9l0.2-0.1h-0.8l0.2,0.1l-0.1,0.9l-0.7-1.4c-1.3,0.2-2.2,0.7-2.2,2h6.4
			C384.2,110.8,383.3,110.2,382,110.1L382,110.1z M378.5,108.2c0,0.6-0.3,1.2-0.6,1.6h1.3v-1.5c0-1.5-0.8-2.1-1.8-2.1
			c-1,0-1.8,0.6-1.8,2.1v1.5h1.3c-0.3-0.3-0.6-1-0.6-1.5l0,0c0.6,0,1.1-0.2,1.3-0.6C377.8,107.9,378.2,108.1,378.5,108.2
			L378.5,108.2z"/>
	</g>
	<g>
		<g>
			<g>
				<defs>
					<rect id="SVGID_3_" x="179.9" y="100.7" width="8.1" height="9.3"/>
				</defs>
				<clipPath id="SVGID_4_">
					<use xlink:href="#SVGID_3_"  overflow="visible"/>
				</clipPath>
				<path clip-path="url(#SVGID_4_)" d="M187.7,109l-0.2-1.4c-0.1-0.4-0.4-0.7-0.8-0.8l-0.2,0v-3c0-2.3-1.2-3.1-2.7-3.1
					c-1.5,0-2.7,0.9-2.7,3.1v3l-0.3,0.1c-0.4,0.1-0.7,0.4-0.8,0.8l-0.2,1.4c0,0.2,0,0.4,0.1,0.5c0.1,0.1,0.3,0.2,0.5,0.2h6.6
					c0.2,0,0.4-0.1,0.5-0.2C187.7,109.4,187.8,109.2,187.7,109L187.7,109z M187.4,109.3c-0.1,0.1-0.2,0.1-0.3,0.1h-1.3v-0.7
					c0-0.1-0.1-0.1-0.1-0.1c-0.1,0-0.1,0.1-0.1,0.1v0.7h-3.5v-0.7c0-0.1-0.1-0.1-0.1-0.1c-0.1,0-0.1,0.1-0.1,0.1v0.7h-1.3
					c-0.1,0-0.2,0-0.3-0.1c-0.1-0.1-0.1-0.2-0.1-0.3l0.2-1.4c0-0.2,0.3-0.5,0.5-0.6l0.9-0.2l0.4-0.1l0.1,0.1l1,0.6c0,0,0,0,0.1,0
					c0,0,0,0,0,0c0,0,0.1,0,0.1-0.1l0.2-0.4l0.2,0.4c0,0,0.1,0.1,0.1,0.1c0,0,0,0,0,0c0,0,0.1,0,0.1,0l1-0.6l0.1-0.1l0.4,0.1
					l0.9,0.2c0.2,0.1,0.5,0.3,0.5,0.6l0.2,1.4C187.5,109.2,187.5,109.3,187.4,109.3L187.4,109.3z M182,103.9c0,0,0.1,0,0.1,0v-0.1h2
					l0.2-1.1v1.2h1.2v0.1c0,0,0.1,0,0.1,0c0.1,0,0.2,0.2,0.1,0.5c-0.1,0.2-0.3,0.4-0.4,0.3c-0.2,0.7-1,1.5-1.5,1.5
					c-0.6,0-1.3-0.8-1.5-1.5c-0.1,0-0.4-0.1-0.4-0.3C181.8,104.2,181.9,104,182,103.9L182,103.9z M185.2,106.6L185.2,106.6l-0.3,0.2
					l-0.3,0.2l-0.4,0.3l-0.1-0.3l-0.1-0.1l0.3-0.2l0.2-0.1l0.2-0.1l0.3-0.2L185.2,106.6L185.2,106.6z M182.6,106.2l0.3,0.2l0.2,0.1
					l0.2,0.1l0.3,0.2l-0.1,0.1l-0.1,0.3l-0.4-0.3l-0.3-0.2l-0.2-0.1l-0.1,0l0-0.1L182.6,106.2z"/>
			</g>
		</g>
	</g>
	<g>
		<path d="M213.1,70.1C213,70.1,213,70.1,213.1,70.1L213.1,70.1C213.1,70.1,213.1,70.1,213.1,70.1L213.1,70.1z M215.5,71.1
			C215.6,71.1,215.6,71.1,215.5,71.1C215.6,71.1,215.6,71.1,215.5,71.1L215.5,71.1z M211.9,72.1C211.9,72.1,211.9,72.1,211.9,72.1
			c0.2,0.7,0.7,1.1,1.1,1.2c0.4,0,1-0.5,1.1-1.2c0.1,0,0.2-0.1,0.2-0.2c0-0.1,0-0.3-0.1-0.3c0,0,0,0,0,0c0-1.1-0.5-1.5-1.2-1.5
			c-0.7,0-1.3,0.5-1.2,1.5c0,0,0,0,0,0c-0.1,0-0.1,0.1-0.1,0.3C211.7,72,211.8,72.1,211.9,72.1L211.9,72.1z M213,73.2L213,73.2
			C213,73.2,213,73.2,213,73.2C213,73.2,213,73.2,213,73.2L213,73.2z M214.7,72.5C214.7,72.5,214.8,72.5,214.7,72.5
			c0.1,0.5,0.5,0.8,0.8,0.8c0.3,0,0.7-0.4,0.8-0.8c0.1,0,0.1-0.1,0.1-0.2c0-0.1,0-0.2-0.1-0.2c0,0,0,0,0,0c0-0.8-0.4-1.1-0.9-1.1
			c-0.5,0-0.9,0.3-0.9,1.1c0,0,0,0,0,0c-0.1,0-0.1,0.1-0.1,0.2C214.6,72.5,214.7,72.5,214.7,72.5L214.7,72.5z M215.6,73.4
			C215.6,73.4,215.6,73.4,215.6,73.4C215.6,73.4,215.6,73.4,215.6,73.4L215.6,73.4z M213.9,73.4l-0.6,1.2l-0.1-0.8l0.1-0.1h-0.7
			l0.1,0.1l-0.1,0.8l-0.6-1.2c-1,0.1-1.8,0.6-1.8,1.7h5.4C215.7,74,215,73.6,213.9,73.4L213.9,73.4z M210.5,71.1
			C210.5,71.1,210.5,71.1,210.5,71.1C210.5,71.1,210.5,71.1,210.5,71.1L210.5,71.1z M210.7,73.8l0.1-0.1h-0.5l0.1,0.1l-0.1,0.6
			l-0.4-0.9c-0.8,0.1-1.3,0.4-1.3,1.2h1.7c0.1-0.3,0.2-0.5,0.4-0.7L210.7,73.8z M216.2,73.5l-0.4,0.9l-0.1-0.6l0.1-0.1h-0.5l0.1,0.1
			l0,0.2c0.2,0.2,0.3,0.4,0.4,0.7h1.7C217.5,73.9,217,73.6,216.2,73.5L216.2,73.5z M210.5,73.4C210.5,73.4,210.5,73.4,210.5,73.4
			C210.5,73.4,210.5,73.4,210.5,73.4L210.5,73.4z M209.7,72.5C209.7,72.5,209.7,72.5,209.7,72.5c0.1,0.5,0.5,0.8,0.8,0.8
			c0.3,0,0.7-0.4,0.8-0.8c0.1,0,0.1-0.1,0.1-0.2c0-0.1,0-0.2-0.1-0.2c0,0,0,0,0,0c0-0.8-0.4-1.1-0.9-1.1c-0.5,0-0.9,0.3-0.9,1.1
			c0,0,0,0,0,0c-0.1,0-0.1,0.1-0.1,0.2C209.6,72.5,209.6,72.5,209.7,72.5L209.7,72.5z"/>
	</g>
	<g>
		<path d="M185.3,40.4C185.2,40.4,185.2,40.4,185.3,40.4c-0.1,0-0.1,0-0.1,0H185.3z M185.2,45.2C185.2,45.2,185.2,45.2,185.2,45.2
			C185.2,45.2,185.2,45.2,185.2,45.2L185.2,45.2z M183.4,43.4C183.4,43.4,183.4,43.4,183.4,43.4c0.3,1,1,1.8,1.8,1.8
			c0.7,0,1.5-0.8,1.8-1.8c0.1,0,0.3-0.1,0.3-0.3c0-0.2,0-0.4-0.2-0.4c0,0,0,0,0,0c0-1.7-0.8-2.3-1.8-2.3c-1,0-2,0.7-1.9,2.3
			c0,0,0,0,0,0c-0.1,0-0.2,0.2-0.2,0.4C183.2,43.3,183.3,43.5,183.4,43.4L183.4,43.4z M186.6,45.5l-0.9,1.8l-0.1-1.2l0.2-0.2h-1.1
			l0.2,0.2l-0.1,1.2l-0.9-1.8c-1.6,0.2-2.8,0.9-2.8,2.6h8.4C189.4,46.4,188.2,45.7,186.6,45.5L186.6,45.5z"/>
	</g>
	<g>
		<g>
			<g>
				<defs>
					
						<rect id="SVGID_5_" x="191.3" y="40" transform="matrix(0.9999 1.669934e-02 -1.669934e-02 0.9999 0.7661 -3.2563)" width="8.1" height="8.5"/>
				</defs>
				<clipPath id="SVGID_6_">
					<use xlink:href="#SVGID_5_"  overflow="visible"/>
				</clipPath>
				<path clip-path="url(#SVGID_6_)" d="M199.4,47.7l-0.2-1.4c-0.1-0.4-0.4-0.7-0.8-0.8l-1.7-0.4c0.2-0.3,0.4-0.7,0.6-1
					c0.2-0.1,0.5-0.3,0.5-0.5c0.1-0.3,0-0.7-0.2-0.8l0-0.2c0.2-0.6,0.3-1.6-0.6-2.1c-0.4-0.2-0.7-0.2-1-0.2c0-0.1,0.1-0.2,0.1-0.2
					c-0.2,0-0.3,0.1-0.4,0.2c-0.3-0.1-0.6-0.2-1.1-0.1c-1.5,0.3-1.7,2.2-1.4,2.7c-0.2,0.1-0.3,0.4-0.2,0.8c0.1,0.3,0.3,0.5,0.5,0.5
					c0.1,0.4,0.3,0.7,0.6,1l-0.6,0.1l-1.1,0.2c-0.4,0.1-0.7,0.4-0.8,0.8l-0.3,1.4c0,0.2,0,0.4,0.1,0.5c0.1,0.1,0.3,0.2,0.5,0.2
					l6.8,0.1h0c0.2,0,0.4-0.1,0.5-0.2C199.3,48.1,199.4,47.9,199.4,47.7L199.4,47.7z M197,45.5l-1.4,1.5l-0.2-0.8l0.3-0.2l-0.2-0.2
					c0.3-0.1,0.6-0.2,0.8-0.4L197,45.5z M193.7,43.8c-0.1,0-0.4-0.1-0.5-0.3c-0.1-0.2,0-0.4,0.1-0.5c0,0,0.1,0,0.1,0l0-0.3
					c0,0,0,0,0,0c0,0,0,0,0,0l0-0.1c0-0.3,0.3-0.8,1.8-0.3c0.5,0.2,0.8-0.1,1-0.4c0.5,0.1,0.8,0.6,1,1V43c0,0,0,0,0.1,0c0,0,0,0,0,0
					c0,0,0,0,0,0c0,0,0,0,0,0c0.1,0,0.2,0.2,0.1,0.5c-0.1,0.2-0.3,0.4-0.4,0.3c-0.1,0.2-0.1,0.3-0.2,0.5c-0.3,0.3-0.8,0.3-1.1,0.3
					c0-0.1-0.1-0.2-0.2-0.2c-0.1,0-0.3,0.1-0.3,0.3c0,0.1,0.1,0.3,0.3,0.3c0.1,0,0.2,0,0.2-0.1c0.1,0,0.1,0,0.2,0
					c0.2,0,0.5,0,0.7-0.1c-0.1,0.1-0.1,0.2-0.2,0.3c0,0-0.1,0.1-0.1,0.1c0,0-0.1,0.1-0.1,0.1c-0.2,0.1-0.4,0.2-0.7,0.2
					c-0.3,0-0.5-0.1-0.7-0.2c0,0-0.1-0.1-0.1-0.1c0,0-0.1-0.1-0.1-0.1C194,44.7,193.8,44.2,193.7,43.8L193.7,43.8z M194.2,45.3
					c0.2,0.2,0.5,0.4,0.8,0.5l-0.2,0.1l0.3,0.2L195,47l-1.3-1.6L194.2,45.3z M199,48.1c-0.1,0.1-0.2,0.1-0.3,0.1l0,0.1l0-0.1l-1.3,0
					l0-0.7c0-0.1-0.1-0.1-0.1-0.1h0c-0.1,0-0.1,0.1-0.1,0.1l0,0.7l-3.6,0l0-0.7c0-0.1-0.1-0.1-0.1-0.1h0c-0.1,0-0.1,0.1-0.1,0.1
					l0,0.7l-1.3,0c-0.1,0-0.2,0-0.3-0.1c-0.1-0.1-0.1-0.2-0.1-0.3l0.3-1.4c0-0.3,0.3-0.5,0.6-0.6l0.9-0.2l1.9,2.2c0,0,0.1,0,0.1,0
					c0,0,0.1,0,0.1,0l1.9-2.2l1,0.2c0.3,0.1,0.5,0.3,0.6,0.6l0.2,1.4C199.1,47.9,199.1,48,199,48.1L199,48.1z"/>
			</g>
		</g>
	</g>
	<g>
		<path d="M212.4,94.5C212.4,94.5,212.4,94.5,212.4,94.5C212.4,94.5,212.4,94.5,212.4,94.5L212.4,94.5z M211.4,93.5
			C211.4,93.5,211.4,93.5,211.4,93.5c0.2,0.6,0.6,1,1,1c0.4,0,0.9-0.4,1-1c0.1,0,0.1-0.1,0.2-0.2c0-0.1,0-0.2-0.1-0.2c0,0,0,0,0,0
			c0-1-0.5-1.3-1.1-1.3c-0.6,0-1.1,0.4-1.1,1.3c0,0,0,0,0,0c-0.1,0-0.1,0.1-0.1,0.2C211.3,93.4,211.3,93.5,211.4,93.5L211.4,93.5z
			 M212.5,91.7L212.5,91.7C212.4,91.7,212.4,91.7,212.5,91.7C212.5,91.7,212.5,91.7,212.5,91.7L212.5,91.7z M213.2,94.7l-0.5,1.1
			l-0.1-0.7l0.1-0.1h-0.6l0.1,0.1l-0.1,0.7l-0.5-1.1c-0.9,0.1-1.6,0.5-1.6,1.5h4.8C214.8,95.2,214.2,94.8,213.2,94.7L213.2,94.7z
			 M209.1,95.2h-0.3l0.4-0.4c-0.9,0.1-1.6,0.5-1.6,1.4h2.1l-0.7-0.7L209.1,95.2z M210.6,93.2c0,0.4-0.2,0.9-0.5,1.2h1v-1.1
			c0-1.2-0.6-1.6-1.4-1.6c-0.8,0-1.4,0.4-1.4,1.6v1.1h1c-0.2-0.3-0.4-0.7-0.5-1.1l0,0c0.4,0,0.8-0.2,1-0.4
			C210.1,93,210.3,93.2,210.6,93.2L210.6,93.2z M216,95.4l-0.7,0.7h2.1c0-1-0.7-1.3-1.6-1.4l0.4,0.4h-0.3L216,95.4z M214.9,92.8
			c0.2,0.3,0.6,0.4,1,0.4l0,0c0,0.4-0.2,0.9-0.5,1.1h1v-1.1c0-1.2-0.6-1.6-1.4-1.6c-0.8,0-1.4,0.4-1.4,1.6v1.1h1
			c-0.3-0.3-0.4-0.8-0.5-1.2C214.5,93.2,214.8,93,214.9,92.8L214.9,92.8z"/>
	</g>
	<g>
		<g>
			<g>
				<defs>
					
						<rect id="SVGID_7_" x="168.2" y="100.7" transform="matrix(1 -3.199984e-03 3.199984e-03 1 -0.3361 0.553)" width="8.9" height="9.3"/>
				</defs>
				<clipPath id="SVGID_8_">
					<use xlink:href="#SVGID_7_"  overflow="visible"/>
				</clipPath>
				<path clip-path="url(#SVGID_8_)" d="M176.9,109l-0.3-1.5c-0.1-0.4-0.4-0.8-0.8-0.9l-1.9-0.4c0.3-0.3,0.5-0.7,0.6-1.1
					c0.2-0.1,0.5-0.3,0.6-0.6c0.1-0.4,0-0.7-0.2-0.8l0-0.3c0.2-0.6,0.3-1.7-0.6-2.2c-0.4-0.2-0.8-0.3-1.1-0.2c0-0.1,0.1-0.3,0.1-0.3
					c-0.2,0-0.3,0.1-0.4,0.2c-0.3-0.1-0.7-0.2-1.2-0.1c-1.6,0.3-1.8,2.4-1.5,2.9c-0.2,0.1-0.3,0.5-0.2,0.8c0.1,0.3,0.3,0.5,0.6,0.6
					c0.1,0.4,0.4,0.8,0.6,1.1l-0.6,0.1l-1.2,0.2c-0.4,0.1-0.8,0.5-0.8,0.9l-0.3,1.5c0,0.2,0,0.4,0.1,0.6c0.1,0.2,0.3,0.2,0.5,0.2
					l7.3,0.1h0c0.2,0,0.4-0.1,0.5-0.2C176.8,109.4,176.9,109.2,176.9,109L176.9,109z M172.4,107.3l-0.2,0.9l-1.4-1.7l0.6-0.1
					c0.3,0.3,0.6,0.4,0.9,0.5l-0.2,0.2L172.4,107.3z M172.9,108.2l-0.2-0.9l0.3-0.3l-0.2-0.2c0.3-0.1,0.6-0.2,0.9-0.5l0.7,0.1
					L172.9,108.2z M170.8,104.7c-0.1,0-0.4-0.1-0.5-0.4c-0.1-0.2,0-0.5,0.1-0.5c0,0,0.1,0,0.1,0l0-0.4c0,0,0,0,0,0c0,0,0,0,0,0
					l0-0.1c0-0.3,0.3-0.9,1.9-0.4c0.5,0.2,0.9-0.1,1-0.5c0.5,0.1,0.9,0.7,1,1l0,0.3c0,0,0,0,0.1,0c0,0,0,0,0,0c0,0,0,0,0,0
					c0,0,0,0,0,0c0.1,0,0.2,0.3,0.1,0.5c-0.1,0.2-0.4,0.4-0.5,0.4c-0.1,0.4-0.4,0.9-0.7,1.3c0,0-0.1,0.1-0.1,0.1
					c0,0-0.1,0.1-0.1,0.1c-0.2,0.2-0.5,0.3-0.7,0.3c-0.3,0-0.5-0.1-0.7-0.3c-0.1,0-0.1-0.1-0.1-0.1c0,0-0.1-0.1-0.1-0.1
					C171.1,105.7,170.9,105.2,170.8,104.7L170.8,104.7z M176.2,109.4l-1.4,0l0-0.8c0-0.1-0.1-0.1-0.1-0.1h0c-0.1,0-0.1,0.1-0.1,0.1
					l0,0.8l-3.9,0l0-0.8c0-0.1-0.1-0.2-0.1-0.2h0c-0.1,0-0.1,0.1-0.1,0.1l0,0.8l-1.4,0c-0.1,0-0.2,0-0.3-0.1
					c-0.1-0.1-0.1-0.2-0.1-0.3l0.3-1.5c0.1-0.3,0.3-0.6,0.6-0.6l1-0.2l2,2.4c0,0,0.1,0.1,0.1,0.1h0c0,0,0.1,0,0.1-0.1l2-2.3l1,0.2
					c0.3,0.1,0.6,0.4,0.6,0.6l0.3,1.5c0,0.1,0,0.2-0.1,0.3C176.4,109.4,176.3,109.4,176.2,109.4l0,0.1L176.2,109.4z"/>
			</g>
		</g>
	</g>
	<g>
		<path d="M366.8,43.5c0.3-0.3,0.5-0.7,0.7-1.2c0.2-0.1,0.3-0.3,0.4-0.5c0.1-0.2,0.2-0.7-0.1-0.9v-0.4c0-0.6-0.1-1.4-0.8-1.7
			c-0.1-0.2-0.1-0.3-0.1-0.3l-0.1-0.6l-0.5,0.4c-0.1,0.1-0.8,0.3-1.3,0.3l-0.2,0c-1.3,0.2-1.3,0.9-1.3,1.6c0,0.1,0,0.2,0,0.3l0,0.3
			c-0.2,0.1-0.2,0.4-0.1,0.9c0.1,0.2,0.2,0.4,0.4,0.5c0.1,0.2,0.3,0.8,0.7,1.2c-1.7,0.4-2.9,1.8-2.9,3.4v0.2h8v-0.2
			C369.7,45.3,368.5,43.9,366.8,43.5L366.8,43.5z M367.8,46.8V46c0-0.1-0.1-0.1-0.1-0.1c-0.1,0-0.2,0.1-0.2,0.1v0.8H364V46
			c0-0.1-0.1-0.1-0.1-0.1c-0.1,0-0.1,0.1-0.1,0.1v0.8h-1.6c0.1-1.1,0.8-2.1,1.8-2.6l1.8,2c0,0,0.1,0,0.1,0c0,0,0.1,0,0.1-0.1l1.7-2
			c1,0.5,1.8,1.5,1.8,2.6C369.4,46.8,367.8,46.8,367.8,46.8z M365.4,44l-0.2,0.2l0.3,0.3l-0.2,0.9l-1.2-1.3c0.3-0.1,0.5-0.2,0.8-0.2
			C365.1,43.9,365.3,43.9,365.4,44L365.4,44z M366.6,43.8c0.3,0.1,0.5,0.1,0.8,0.2l-1.2,1.4l-0.2-1l0.3-0.3L366,44
			C366.2,44,366.4,43.9,366.6,43.8L366.6,43.8z M364.2,42.1c-0.1,0-0.3-0.1-0.3-0.3c-0.1-0.2-0.1-0.6,0-0.6c0,0,0.1,0,0.1,0v-0.6
			c0-0.9-0.2-1.5,1.2-1.6l0,0c0,0,1.1-0.1,1.4-0.4c0,0,0,0.2,0.1,0.5c0.7,0.3,0.8,0.9,0.7,1.5v0.6c0,0,0.1,0,0.1,0
			c0.1,0,0.1,0.4,0,0.6c-0.1,0.2-0.2,0.3-0.3,0.3c-0.1,0.4-0.4,1-0.9,1.4c-0.1,0-0.1,0.1-0.2,0.1c-0.1,0.1-0.2,0.1-0.3,0.1
			c-0.1,0-0.1,0-0.2,0c-0.1,0-0.1,0-0.2,0c-0.1,0-0.2-0.1-0.3-0.1c-0.1,0-0.1-0.1-0.2-0.1C364.6,43.1,364.3,42.6,364.2,42.1
			L364.2,42.1z"/>
	</g>
	<g>
		<g>
			<g>
				<defs>
					<rect id="SVGID_9_" x="346" y="68.9" width="11.7" height="7.3"/>
				</defs>
				<clipPath id="SVGID_10_">
					<use xlink:href="#SVGID_9_"  overflow="visible"/>
				</clipPath>
				<path clip-path="url(#SVGID_10_)" d="M357.6,74.7l-0.1-0.8c0-0.2-0.2-0.4-0.5-0.5l-0.7-0.1l-0.1-0.3c0,0,0,0-0.1-0.1
					c0.1-0.2,0.2-0.3,0.3-0.5c0.1,0,0.2-0.2,0.3-0.3c0-0.2,0-0.4-0.1-0.4v-0.1c0.1-0.3,0.2-0.9-0.3-1.1c-0.2-0.1-0.4-0.1-0.5-0.1
					c0-0.1,0-0.1,0-0.1c-0.1,0-0.2,0.1-0.2,0.1c-0.2-0.1-0.3-0.1-0.6,0c-0.8,0.2-0.9,1.2-0.8,1.5c-0.1,0.1-0.2,0.2-0.1,0.4
					c0,0.1,0.2,0.3,0.3,0.3c0.1,0.2,0.2,0.3,0.3,0.5c0,0,0,0-0.1,0.1l-0.1,0.3l-0.7,0.1c-0.1,0-0.1,0-0.2,0.1l-0.4-0.1L353,73
					c0,0,0,0-0.1-0.1c0.2-0.2,0.3-0.5,0.4-0.8c0.2-0.1,0.4-0.2,0.4-0.4c0.1-0.3,0-0.5-0.2-0.6v-0.2c0.2-0.5,0.2-1.3-0.5-1.7
					c-0.3-0.2-0.6-0.2-0.8-0.1c0-0.1,0.1-0.2,0.1-0.2c-0.2,0-0.3,0.1-0.3,0.1c-0.2-0.1-0.5-0.1-0.9-0.1c-1.2,0.3-1.3,1.8-1.1,2.2
					c-0.2,0.1-0.2,0.4-0.2,0.6c0.1,0.2,0.2,0.4,0.4,0.4c0.1,0.3,0.2,0.6,0.4,0.8c0,0,0,0-0.1,0.1l-0.2,0.4l-0.4,0.1
					c0,0-0.1,0-0.2-0.1l-0.7-0.1l-0.1-0.3c0,0,0,0-0.1-0.1c0.1-0.2,0.2-0.3,0.3-0.5c0.1,0,0.2-0.2,0.3-0.3c0-0.2,0-0.4-0.1-0.4v-0.1
					c0.1-0.3,0.2-0.9-0.3-1.1c-0.2-0.1-0.4-0.1-0.5-0.1c0-0.1,0-0.1,0-0.1c-0.1,0-0.2,0.1-0.2,0.1c-0.2-0.1-0.3-0.1-0.6,0
					c-0.8,0.2-0.9,1.2-0.8,1.5c-0.1,0.1-0.2,0.2-0.1,0.4c0,0.1,0.2,0.3,0.3,0.3c0.1,0.2,0.2,0.3,0.3,0.5c0,0,0,0-0.1,0.1l-0.1,0.3
					l-0.7,0.1c-0.2,0-0.4,0.3-0.5,0.5l-0.1,0.8c0,0.1,0,0.2,0.1,0.3c0.1,0.1,0.2,0.1,0.3,0.1h2.2l0,0.2c0,0.2,0,0.3,0.1,0.4
					c0.1,0.1,0.2,0.2,0.4,0.2h5.4c0.2,0,0.3-0.1,0.4-0.2c0.1-0.1,0.1-0.3,0.1-0.4l0-0.2h2.2c0.1,0,0.2-0.1,0.3-0.1
					C357.6,74.9,357.6,74.8,357.6,74.7L357.6,74.7z M356.4,74.4c-0.1,0-0.1,0.1-0.1,0.1v0.4h-1.3l-0.1-0.6c-0.1-0.3-0.3-0.6-0.6-0.7
					l0.2,0l0.7,0.4c0,0,0,0,0.1,0c0,0,0,0,0,0c0,0,0.1,0,0.1-0.1l0-0.1l0,0.1c0,0,0,0.1,0.1,0.1c0,0,0,0,0,0c0,0,0,0,0.1,0l0.7-0.4
					l0.6,0.1c0.1,0,0.2,0.1,0.3,0.3l0.1,0.8c0,0,0,0.1,0,0.1c0,0-0.1,0-0.1,0h-0.6v-0.4C356.5,74.5,356.5,74.4,356.4,74.4
					L356.4,74.4z M354.7,75.4c0,0.1,0,0.2,0,0.2c0,0.1-0.1,0.1-0.2,0.1h-1v-0.6c0,0,0,0,0,0c0-0.1-0.1-0.1-0.1-0.1c0,0-0.1,0-0.1,0
					c0,0-0.1,0.1-0.1,0.1v0.6h-2.8v-0.6c0,0,0-0.1-0.1-0.1c0,0-0.1,0-0.1,0c-0.1,0-0.1,0.1-0.1,0.1c0,0,0,0,0,0v0.6h-1
					c-0.1,0-0.2,0-0.2-0.1c0-0.1-0.1-0.1,0-0.2l0.1-0.3l0-0.1l0-0.1l0.1-0.5c0-0.2,0.2-0.4,0.4-0.4l0.5-0.1l0.2,0l0.1,0l0.2,0
					c0,0,0,0,0,0l1,0.6c0,0,0,0,0.1,0c0,0,0,0,0,0c0,0,0.1,0,0.1-0.1l0.1-0.3l0.1,0.3c0,0,0,0.1,0.1,0.1c0,0,0,0,0,0c0,0,0,0,0.1,0
					l1-0.6c0,0,0,0,0,0l0.2,0l0.1,0l0.2,0l0.5,0.1c0.2,0,0.4,0.2,0.4,0.4l0.1,0.5l0,0.1l0,0.1L354.7,75.4z M347.2,74.4
					c-0.1,0-0.1,0.1-0.1,0.1v0.4h-0.6c0,0-0.1,0-0.1,0c0,0,0-0.1,0-0.1l0.1-0.8c0-0.1,0.1-0.2,0.3-0.3l0.6-0.1L348,74c0,0,0,0,0.1,0
					c0,0,0,0,0,0c0,0,0.1,0,0.1-0.1l0-0.1l0,0.1c0,0,0,0.1,0.1,0.1c0,0,0,0,0,0c0,0,0,0,0.1,0l0.7-0.4l0.2,0
					c-0.3,0.1-0.6,0.4-0.6,0.7l-0.1,0.6h-1.3v-0.4C347.4,74.5,347.3,74.4,347.2,74.4L347.2,74.4z M349,73.4l-0.2,0.1l-0.3,0.2
					l-0.1-0.1l0.2-0.1l0.2-0.1l0.1-0.1L349,73.4L349,73.4z M347.6,73.3l0.1,0.1l0.2,0.1l0.2,0.1l-0.1,0.1l-0.3-0.2l-0.2-0.1
					L347.6,73.3L347.6,73.3z M350.8,73.3L350.8,73.3l0.2,0l0.2,0.1l0.2,0.1l0.3,0.2l-0.1,0.3l-0.6-0.4l-0.1-0.1l0,0L350.8,73.3z
					 M352.9,73.5L352.9,73.5l-0.1,0.1l-0.6,0.4l-0.1-0.3l0.3-0.2l0.2-0.1l0.2-0.1l0.1-0.1l0,0.1L352.9,73.5z M356,73.4l-0.2,0.1
					l-0.3,0.2l-0.1-0.1l0.2-0.1l0.2-0.1l0.1-0.1L356,73.4L356,73.4z M354.7,73.3l0.1,0.1l0.2,0.1l0.2,0.1l-0.1,0.1l-0.3-0.2
					l-0.2-0.1L354.7,73.3L354.7,73.3z M354.5,72.3c-0.1,0-0.2-0.1-0.2-0.2c0-0.1,0-0.2,0.1-0.3c0,0,0,0,0.1,0v-0.2c0,0,0,0,0,0
					s0,0,0,0v-0.1c0-0.2,0.2-0.5,1-0.2c0.3,0.1,0.5-0.1,0.5-0.2c0.3,0,0.5,0.3,0.5,0.5v0.2c0,0,0,0,0.1,0c0.1,0,0.1,0.1,0.1,0.3
					c0,0.1-0.2,0.2-0.2,0.2c-0.1,0.2-0.2,0.5-0.4,0.7c0,0-0.1,0.1-0.1,0.1c-0.1,0-0.1,0.1-0.2,0.1c-0.1,0-0.1,0-0.2,0
					c-0.1,0-0.1,0-0.2,0c-0.1,0-0.1,0-0.2-0.1c0,0-0.1-0.1-0.1-0.1C354.7,72.9,354.5,72.6,354.5,72.3L354.5,72.3z M350.5,71.9
					c-0.1,0-0.3-0.1-0.4-0.3c0-0.2,0-0.3,0.1-0.4c0,0,0.1,0,0.1,0V71c0,0,0,0,0,0c0,0,0,0,0,0v-0.1c0-0.2,0.2-0.7,1.4-0.3
					c0.4,0.1,0.7-0.1,0.8-0.4c0.4,0,0.7,0.5,0.8,0.8v0.2c0,0,0,0,0,0c0,0,0,0,0,0c0,0,0,0,0,0c0,0,0,0,0,0c0.1,0,0.1,0.2,0.1,0.4
					c0,0.2-0.3,0.3-0.4,0.3c-0.1,0.5-0.5,1.1-0.9,1.3c-0.1,0.1-0.3,0.1-0.4,0.1c-0.1,0-0.3,0-0.4-0.1C351,73,350.6,72.4,350.5,71.9
					L350.5,71.9z M347.4,72.3c-0.1,0-0.2-0.1-0.2-0.2c0-0.1,0-0.2,0.1-0.3c0,0,0,0,0.1,0v-0.2c0,0,0,0,0,0c0,0,0,0,0,0v-0.1
					c0-0.2,0.2-0.5,1-0.2c0.3,0.1,0.5-0.1,0.5-0.2c0.3,0,0.5,0.3,0.5,0.5v0.2c0,0,0,0,0.1,0c0.1,0,0.1,0.1,0.1,0.3
					c0,0.1-0.2,0.2-0.2,0.2c-0.1,0.2-0.2,0.5-0.4,0.7c0,0-0.1,0.1-0.1,0.1c-0.1,0-0.1,0.1-0.2,0.1c-0.1,0-0.1,0-0.2,0
					c-0.1,0-0.1,0-0.2,0c-0.1,0-0.1,0-0.2-0.1c0,0-0.1-0.1-0.1-0.1C347.6,72.9,347.5,72.6,347.4,72.3L347.4,72.3z"/>
			</g>
		</g>
	</g>
	<g>
		<path d="M352.9,95.6v-2.5c0-1.9-1-2.6-2.2-2.6c-1.2,0-2.2,0.7-2.2,2.6v2.5c-0.4,0.5-0.6,1.1-0.6,1.7v0.1h5.6v-0.1
			C353.4,96.7,353.2,96.1,352.9,95.6L352.9,95.6z M348,97.2c0-0.5,0.2-1,0.5-1.4c0.2-0.2,0.4-0.4,0.6-0.6l0.5,0.6l1,1.1
			c0,0,0.1,0,0.1,0h0c0,0,0.1,0,0.1,0l0.9-1.1l0.5-0.6c0.2,0.2,0.4,0.4,0.6,0.6c0.3,0.4,0.5,0.9,0.5,1.4L348,97.2z M349.3,93.1
			c0.7,0,1.3-0.3,1.6-0.7c0.2,0.3,0.6,0.6,1.1,0.7v0.3c0,0,0.1,0,0.1,0c0.1,0,0.1,0.2,0.1,0.4c0,0.2-0.3,0.3-0.4,0.3
			c-0.1,0.2-0.2,0.5-0.4,0.7c0,0-0.1,0.1-0.1,0.1c0,0-0.1,0.1-0.1,0.1c0.2,0.1,0.4,0.2,0.6,0.3l-0.6,0.7l-0.5,0.5l-0.1-0.5l-0.1-0.3
			l0.2-0.2l-0.3-0.3l-0.3,0.3l0.2,0.2l-0.1,0.3l-0.1,0.5l-0.4-0.5l-0.6-0.7c0.2-0.1,0.4-0.2,0.6-0.3c0,0-0.1-0.1-0.1-0.1
			c0,0-0.1-0.1-0.1-0.1c-0.2-0.2-0.3-0.5-0.4-0.7c-0.1,0-0.3-0.1-0.4-0.3c0-0.2,0-0.4,0.1-0.4c0,0,0.1,0,0.1,0v-0.2L349.3,93.1z"/>
	</g>
	<g>
		<path d="M386.5,103.7h-3.6l1.3-1.3l-0.4-0.4h0.6l-0.7-0.7C385.2,101.4,386.5,102,386.5,103.7L386.5,103.7z M381.4,102h-0.6
			l0.7-0.7c-1.6,0.2-2.8,0.8-2.8,2.4h3.6l-1.3-1.3L381.4,102z M384.1,98.6c-0.1,0.7-0.4,1.6-0.8,2h1.7v-1.9c0-2-1.1-2.8-2.4-2.8
			c-1.3,0-2.4,0.8-2.4,2.8v1.9h1.7c-0.4-0.4-0.7-1.3-0.8-2h0c0.7,0,1.4-0.3,1.7-0.8C383.1,98.2,383.6,98.5,384.1,98.6L384.1,98.6z"
			/>
	</g>
	<g>
		<path d="M341.8,125.9c0-0.1,0-0.3,0.1-0.3c0,0,0,0,0,0c0-1,0.5-1.4,1.2-1.4c0.6,0,1.1,0.4,1.1,1.4c0,0,0,0,0,0
			c0.1,0,0.1,0.1,0.1,0.3c0,0.1-0.1,0.2-0.2,0.2c-0.2,0.6-0.7,1.1-1.1,1.1c-0.5,0-0.9-0.5-1.1-1.1c0,0,0,0,0,0
			C341.9,126.1,341.8,126,341.8,125.9L341.8,125.9z M334.4,124.2C334.4,124.2,334.4,124.2,334.4,124.2
			C334.5,124.2,334.5,124.2,334.4,124.2L334.4,124.2z M343.1,127.2C343.1,127.2,343.1,127.2,343.1,127.2
			C343.1,127.2,343.1,127.2,343.1,127.2L343.1,127.2z M343,124.2C343.1,124.2,343.1,124.2,343,124.2
			C343.1,124.2,343.1,124.2,343,124.2L343,124.2z M334.4,127.2C334.4,127.2,334.4,127.2,334.4,127.2
			C334.4,127.2,334.4,127.2,334.4,127.2L334.4,127.2z M340.2,124.7c-0.1,0.7-0.3,1.5-0.8,1.9h1.6v-1.8c0-1.9-1-2.7-2.3-2.7
			c-1.3,0-2.3,0.7-2.3,2.7v1.8h1.6c-0.4-0.4-0.7-1.2-0.8-1.9l0,0c0.7,0,1.3-0.3,1.7-0.7C339.3,124.4,339.7,124.6,340.2,124.7
			L340.2,124.7z M345.7,129c0-1-0.7-1.5-1.7-1.6l-0.6,1.1l-0.1-0.7l0.1-0.1h-0.7l0.1,0.1l-0.1,0.7l-0.6-1.1c-0.4,0-0.7,0.1-0.9,0.3
			c-0.4-0.2-1-0.3-1.6-0.4l0.7,0.7h-0.6l0.4,0.4l-1.2,1.2h3.4c0-0.2,0-0.4-0.1-0.6L345.7,129L345.7,129L345.7,129z M333.3,126.1
			C333.3,126.1,333.3,126.1,333.3,126.1c0.2,0.6,0.6,1.1,1.1,1.1c0.4,0,0.9-0.5,1.1-1.1c0.1,0,0.2-0.1,0.2-0.2c0-0.1,0-0.3-0.1-0.3
			c0,0,0,0,0,0c0-1-0.5-1.4-1.1-1.4c-0.6,0-1.2,0.4-1.2,1.4c0,0,0,0,0,0c-0.1,0-0.1,0.1-0.1,0.3C333.2,126,333.3,126.1,333.3,126.1
			L333.3,126.1z M337.6,127.9h-0.6l0.7-0.7c-0.6,0.1-1.1,0.2-1.6,0.4c-0.3-0.1-0.6-0.2-0.9-0.3l-0.6,1.1l-0.1-0.7l0.1-0.1h-0.7
			l0.1,0.1l-0.1,0.7l-0.6-1.1c-1,0.1-1.7,0.6-1.7,1.6h3.3c0,0.2-0.1,0.4-0.1,0.6h3.4l-1.2-1.2L337.6,127.9z"/>
	</g>
	<g>
		<path d="M223.3,126.8c-0.1-1.9-1-2.6-2.2-2.6c-1.2,0-2.1,0.7-2.2,2.6c-0.1,1-0.1,2.7-0.5,3.3h5.3
			C223.4,129.6,223.4,127.8,223.3,126.8L223.3,126.8z M222.7,127.3c0,0.2-0.3,0.3-0.3,0.3c-0.2,0.6-0.8,1.3-1.3,1.3
			c-0.5,0-1.1-0.7-1.3-1.3c-0.1,0-0.3-0.1-0.3-0.3c0-0.2,0-0.4,0.1-0.4c0,0,0.1,0,0.1,0v-0.2l0.2,0c0.7,0,1.3-0.3,1.6-0.7
			c0.2,0.3,0.6,0.5,1.1,0.7v0.3c0,0,0.1,0,0.1,0C222.7,126.9,222.8,127.1,222.7,127.3L222.7,127.3z"/>
	</g>
</g>
<g id="Calque_3_1_">
	<path fill="#312782" d="M257.6,180.8c0.6,0,1.1,0.1,1.7,0.3c0.5,0.2,1,0.5,1.4,0.9c0.4,0.4,0.7,0.8,0.9,1.4
		c0.2,0.5,0.3,1.1,0.3,1.7H261c0-0.5-0.1-0.9-0.3-1.3c-0.2-0.4-0.4-0.8-0.7-1.1c-0.3-0.3-0.7-0.6-1.1-0.7c-0.4-0.2-0.9-0.3-1.3-0.3
		c-0.5,0-0.9,0.1-1.3,0.3c-0.4,0.2-0.8,0.4-1.1,0.7c-0.3,0.3-0.6,0.7-0.7,1.1c-0.2,0.4-0.3,0.9-0.3,1.3v4.3h-0.9v-4.3
		c0-0.6,0.1-1.2,0.3-1.7c0.2-0.5,0.5-1,0.9-1.4c0.4-0.4,0.8-0.7,1.4-0.9C256.4,180.9,256.9,180.8,257.6,180.8z"/>
	<path fill="#312782" d="M276.4,180.8c0.6,0,1.1,0.1,1.7,0.3c0.5,0.2,1,0.5,1.4,0.9c0.4,0.4,0.7,0.9,0.9,1.4
		c0.2,0.5,0.3,1.1,0.3,1.7h-0.9c0-0.5-0.1-0.9-0.3-1.3c-0.2-0.4-0.4-0.8-0.7-1.1c-0.3-0.3-0.7-0.6-1.1-0.7c-0.4-0.2-0.9-0.3-1.3-0.3
		c-0.5,0-0.9,0.1-1.3,0.3c-0.4,0.2-0.8,0.4-1.1,0.7c-0.3,0.3-0.6,0.7-0.7,1.1c-0.2,0.4-0.3,0.9-0.3,1.3v4.3h-0.9v-4.3
		c0-0.6,0.1-1.1,0.3-1.7c0.2-0.5,0.5-1,0.9-1.4c0.4-0.4,0.8-0.7,1.4-0.9C275.2,180.9,275.8,180.8,276.4,180.8z"/>
	<path fill="#312782" d="M309.5,188.6c0.7,0,1.4-0.2,2-0.6c0.6-0.4,1-0.9,1.2-1.6h1c-0.1,0.4-0.4,0.8-0.6,1.2c-0.3,0.4-0.6,0.7-1,1
		c-0.4,0.3-0.8,0.5-1.2,0.6c-0.4,0.2-0.9,0.2-1.4,0.2c-0.6,0-1.2-0.1-1.7-0.3c-0.5-0.2-1-0.5-1.4-0.9c-0.4-0.4-0.7-0.8-0.9-1.4
		c-0.2-0.5-0.3-1.1-0.3-1.7c0-0.6,0.1-1.2,0.3-1.7c0.2-0.5,0.5-1,0.9-1.4c0.4-0.4,0.8-0.7,1.4-0.9c0.5-0.2,1.1-0.3,1.7-0.3
		c0.6,0,1.2,0.1,1.7,0.3c0.5,0.2,1,0.5,1.4,0.9c0.4,0.4,0.7,0.8,0.9,1.4c0.2,0.5,0.3,1.1,0.3,1.7v0.4h-1.6H306
		c0.1,0.4,0.2,0.8,0.4,1.2c0.2,0.4,0.5,0.7,0.8,1c0.3,0.3,0.7,0.5,1,0.6C308.6,188.5,309.1,188.6,309.5,188.6z M309.5,181.7
		c-0.4,0-0.9,0.1-1.2,0.2c-0.4,0.2-0.7,0.4-1,0.6c-0.3,0.3-0.6,0.6-0.8,1c-0.2,0.4-0.3,0.8-0.4,1.2h6.9c-0.1-0.4-0.2-0.8-0.4-1.2
		c-0.2-0.4-0.5-0.7-0.8-1c-0.3-0.3-0.7-0.5-1.1-0.6C310.3,181.8,309.9,181.7,309.5,181.7z"/>
	<path fill="#312782" d="M309.5,188.6c0.7,0,1.4-0.2,2-0.6c0.6-0.4,1-0.9,1.2-1.6h1c-0.1,0.4-0.4,0.8-0.6,1.2c-0.3,0.4-0.6,0.7-1,1
		c-0.4,0.3-0.8,0.5-1.2,0.6c-0.4,0.2-0.9,0.2-1.4,0.2c-0.6,0-1.2-0.1-1.7-0.3c-0.5-0.2-1-0.5-1.4-0.9c-0.4-0.4-0.7-0.8-0.9-1.4
		c-0.2-0.5-0.3-1.1-0.3-1.7c0-0.6,0.1-1.2,0.3-1.7c0.2-0.5,0.5-1,0.9-1.4c0.4-0.4,0.8-0.7,1.4-0.9c0.5-0.2,1.1-0.3,1.7-0.3
		c0.6,0,1.2,0.1,1.7,0.3c0.5,0.2,1,0.5,1.4,0.9c0.4,0.4,0.7,0.8,0.9,1.4c0.2,0.5,0.3,1.1,0.3,1.7v0.4h-1.6H306
		c0.1,0.4,0.2,0.8,0.4,1.2c0.2,0.4,0.5,0.7,0.8,1c0.3,0.3,0.7,0.5,1,0.6C308.6,188.5,309.1,188.6,309.5,188.6z M309.5,181.7
		c-0.4,0-0.9,0.1-1.2,0.2c-0.4,0.2-0.7,0.4-1,0.6c-0.3,0.3-0.6,0.6-0.8,1c-0.2,0.4-0.3,0.8-0.4,1.2h6.9c-0.1-0.4-0.2-0.8-0.4-1.2
		c-0.2-0.4-0.5-0.7-0.8-1c-0.3-0.3-0.7-0.5-1.1-0.6C310.3,181.8,309.9,181.7,309.5,181.7z"/>
	<path fill="#312782" d="M299.8,180.8c0.6,0,1.2,0.1,1.7,0.3c0.5,0.2,1,0.5,1.4,0.9c0.4,0.4,0.7,0.8,0.9,1.4
		c0.2,0.5,0.3,1.1,0.3,1.7v4.3h-0.9v-4.3c0-0.5-0.1-0.9-0.3-1.3c-0.2-0.4-0.4-0.8-0.7-1.1c-0.3-0.3-0.7-0.6-1.1-0.7
		c-0.4-0.2-0.9-0.3-1.3-0.3c-0.5,0-0.9,0.1-1.3,0.3c-0.4,0.2-0.8,0.4-1.1,0.7c-0.3,0.3-0.6,0.7-0.7,1.1c-0.2,0.4-0.3,0.9-0.3,1.3
		v4.3h-0.9v-4.3c0-0.5-0.1-0.9-0.3-1.3c-0.2-0.4-0.4-0.8-0.7-1.1c-0.3-0.3-0.7-0.6-1.1-0.7c-0.4-0.2-0.9-0.3-1.3-0.3
		s-0.9,0.1-1.3,0.3c-0.4,0.2-0.8,0.4-1.1,0.7c-0.3,0.3-0.6,0.7-0.7,1.1c-0.2,0.4-0.3,0.9-0.3,1.3v1.3l-0.9-0.8l0-0.5
		c0-0.6,0.1-1.2,0.4-1.7c0.2-0.5,0.5-1,0.9-1.4c0.4-0.4,0.9-0.7,1.4-0.9c0.5-0.2,1.1-0.3,1.7-0.3c0.4,0,0.8,0.1,1.2,0.2
		c0.4,0.1,0.8,0.3,1.1,0.5c0.3,0.2,0.6,0.5,0.9,0.8c0.3,0.3,0.5,0.6,0.7,1c0.2-0.3,0.4-0.7,0.7-1c0.3-0.3,0.6-0.6,0.9-0.8
		c0.3-0.2,0.7-0.4,1.1-0.5C299,180.9,299.4,180.8,299.8,180.8z"/>
	<rect x="263.8" y="180.8" fill="#312782" width="0.8" height="8.7"/>
	<rect x="269.3" y="180.8" fill="#312782" width="0.8" height="8.7"/>
	<circle fill="#312782" cx="267" cy="178.9" r="1.2"/>
	<g>
		<path fill="#3996D2" d="M281.2,188.2c0.4,0.4,0.9,0.7,1.4,0.9c0.5,0.2,1.1,0.3,1.7,0.3c0.7,0,1.4-0.2,2-0.5
			c0.2-0.1,0.5-0.3,0.7-0.4l-0.5-0.7c-0.2,0.2-0.5,0.4-0.8,0.5c-0.4,0.2-0.9,0.3-1.4,0.3c-0.5,0-0.9-0.1-1.3-0.3
			c-0.4-0.2-0.8-0.4-1.1-0.7s-0.6-0.7-0.7-1.1c-0.2-0.4-0.3-0.9-0.3-1.3c0-0.5,0.1-0.9,0.3-1.3c0.2-0.4,0.4-0.8,0.7-1.1
			c0.3-0.3,0.7-0.6,1.1-0.7c0.4-0.2,0.9-0.3,1.3-0.3c0.5,0,1,0.1,1.4,0.3c0.4,0.2,0.8,0.4,1.1,0.7c0.3,0.3,0.6,0.7,0.7,1.1
			c0.2,0.4,0.3,0.9,0.3,1.3c0,0.2,0,0.5,0,0.5l0.9,0.8l0-1.3c0-0.6-0.1-1.2-0.3-1.7c-0.2-0.5-0.5-1-0.9-1.4
			c-0.4-0.4-0.8-0.7-1.4-0.9c-0.5-0.2-1.1-0.3-1.7-0.3c-0.6,0-1.1,0.1-1.7,0.3c-0.5,0.2-1,0.5-1.4,0.9c-0.4,0.4-0.7,0.8-0.9,1.4
			c-0.2,0.5-0.3,1.1-0.3,1.7c0,0.6,0.1,1.2,0.3,1.7C280.5,187.4,280.8,187.8,281.2,188.2z"/>
		<path fill="#3996D2" d="M287.7,189.5c0,0.5-0.1,0.9-0.3,1.3c-0.2,0.4-0.4,0.8-0.7,1.1c-0.3,0.3-0.7,0.6-1.1,0.7
			c-0.4,0.2-0.9,0.3-1.4,0.3c-0.5,0-0.9-0.1-1.3-0.3c-0.4-0.2-0.8-0.4-1.1-0.7c-0.3-0.3-0.6-0.7-0.7-1.1c-0.2-0.4-0.3-0.9-0.3-1.3
			h-0.9c0,0.6,0.1,1.1,0.3,1.7c0.2,0.5,0.5,1,0.9,1.4c0.4,0.4,0.9,0.7,1.4,0.9c0.5,0.2,1.1,0.3,1.7,0.3c0.6,0,1.2-0.1,1.7-0.3
			c0.5-0.2,1-0.5,1.4-0.9c0.4-0.4,0.7-0.9,0.9-1.4c0.2-0.5,0.3-1.1,0.3-1.7H287.7z"/>
	</g>
	<g>
		<path fill="#3996D2" d="M280.8,188.9C280.8,188.9,280.8,188.9,280.8,188.9l-0.7-0.7c-0.1,0.4-0.1,0.7-0.1,1.1l0,0.2h0.9l0-0.2
			C280.7,189.1,280.8,189,280.8,188.9z"/>
		<path fill="#3996D2" d="M281,186.4c-0.2,0.3-0.4,0.5-0.6,0.9c0.2,0.2,0.3,0.5,0.6,0.8c0,0,0-0.1,0-0.1c0.1-0.3,0.3-0.5,0.4-0.7
			C281.2,186.9,281.1,186.5,281,186.4z"/>
		<path fill="#3996D2" d="M288.2,187.6c-0.2-0.5-0.5-1-0.9-1.4c-0.4-0.4-0.9-0.7-1.4-0.9c-0.5-0.2-1.1-0.3-1.7-0.3
			c-0.6,0-1.2,0.1-1.7,0.3c-0.3,0.2-0.7,0.3-0.9,0.6l0.4,0.7c0.2-0.2,0.5-0.4,0.8-0.5c0.4-0.2,0.9-0.3,1.4-0.3
			c0.5,0,0.9,0.1,1.3,0.3c0.4,0.2,0.8,0.4,1.1,0.7c0.3,0.3,0.6,0.7,0.7,1.1c0.2,0.4,0.3,0.9,0.3,1.3l0,0.2h0.9v-0.2
			C288.5,188.7,288.4,188.1,288.2,187.6z"/>
	</g>
	<rect x="266.6" y="180.8" fill="#3996D2" width="0.8" height="8.7"/>
	<circle fill="#3996D2" cx="264.2" cy="178.9" r="0.6"/>
	<circle fill="#3996D2" cx="269.8" cy="178.9" r="0.6"/>
</g>
<g id="Calque_4" display="none">
	<path display="inline" fill-rule="evenodd" clip-rule="evenodd" fill="#63B34B" d="M352.7,63.3c4.7,0,8.5,3.8,8.5,8.5
		c0,4.7-3.8,8.5-8.5,8.5c-4.7,0-8.5-3.8-8.5-8.5C344.2,67.1,348,63.3,352.7,63.3L352.7,63.3L352.7,63.3z"/>
	<path display="inline" fill-rule="evenodd" clip-rule="evenodd" fill="#F29816" d="M213.5,65.6c3.9,0,7.1,3.2,7.1,7.1
		c0,3.9-3.2,7.1-7.1,7.1c-3.9,0-7.1-3.2-7.1-7.1C206.4,68.8,209.6,65.6,213.5,65.6L213.5,65.6L213.5,65.6z"/>
	<path display="inline" fill-rule="evenodd" clip-rule="evenodd" fill="#A33D80" d="M190.8,29.1c7.8,0,14.2,6.4,14.2,14.2
		c0,7.8-6.4,14.2-14.2,14.2c-7.8,0-14.2-6.3-14.2-14.2C176.6,35.5,183,29.1,190.8,29.1L190.8,29.1L190.8,29.1z"/>
	<path display="inline" fill-rule="evenodd" clip-rule="evenodd" fill="#E4261B" d="M371.5,29.1c7.8,0,14.2,6.4,14.2,14.2
		c0,7.8-6.4,14.2-14.2,14.2s-14.2-6.3-14.2-14.2C357.3,35.5,363.7,29.1,371.5,29.1L371.5,29.1L371.5,29.1z"/>
	<path display="inline" fill-rule="evenodd" clip-rule="evenodd" fill="#00999A" d="M380.6,92.4c7.1,0,12.8,5.7,12.8,12.8
		c0,7-5.7,12.8-12.8,12.8c-7,0-12.8-5.7-12.8-12.8C367.8,98.2,373.5,92.4,380.6,92.4L380.6,92.4L380.6,92.4z"/>
	<path display="inline" fill-rule="evenodd" clip-rule="evenodd" fill="#A33D80" d="M351.5,87.1c3.9,0,7.1,3.2,7.1,7.1
		c0,3.9-3.2,7.1-7.1,7.1c-3.9,0-7.1-3.2-7.1-7.1C344.4,90.3,347.6,87.1,351.5,87.1L351.5,87.1L351.5,87.1z"/>
	<path display="inline" fill-rule="evenodd" clip-rule="evenodd" fill="#E4261B" d="M212.6,87c3.9,0,7.1,3.2,7.1,7.1
		c0,3.9-3.2,7.1-7.1,7.1c-3.9,0-7.1-3.2-7.1-7.1C205.6,90.2,208.7,87,212.6,87L212.6,87L212.6,87z"/>
	<path display="inline" fill-rule="evenodd" clip-rule="evenodd" fill="#00999A" d="M224.7,117.3c5.5,0,9.9,4.5,9.9,9.9
		c0,5.5-4.5,9.9-9.9,9.9c-5.5,0-10-4.5-10-9.9C214.8,121.7,219.2,117.3,224.7,117.3L224.7,117.3L224.7,117.3z"/>
	<path display="inline" fill-rule="evenodd" clip-rule="evenodd" fill="#F29816" d="M339.2,116.6c5.5,0,9.9,4.5,9.9,9.9
		c0,5.5-4.5,9.9-9.9,9.9c-5.5,0-9.9-4.4-9.9-9.9C329.3,121.1,333.8,116.6,339.2,116.6L339.2,116.6L339.2,116.6z"/>
	<path display="inline" fill-rule="evenodd" clip-rule="evenodd" fill="#57859D" d="M178.8,92.4c7.1,0,12.8,5.7,12.8,12.8
		c0,7.1-5.7,12.8-12.8,12.8c-7,0-12.8-5.7-12.8-12.8C166,98.2,171.7,92.4,178.8,92.4L178.8,92.4L178.8,92.4z"/>
</g>
</svg>
