<?xml version="1.0" encoding="utf-8"?>
<!-- Generator: Adobe Illustrator 18.1.0, SVG Export Plug-In . SVG Version: 6.00 Build 0)  -->
<svg version="1.1" id="Calque_1" xmlns="http://www.w3.org/2000/svg" xmlns:xlink="http://www.w3.org/1999/xlink" x="0px" y="0px"
	 viewBox="0 0 566.93 152.667" enable-background="new 0 0 566.93 152.667" xml:space="preserve">
<path fill="#312783" d="M42.947,30.208c5.454,0,10.59,1.038,15.403,3.124s9.063,4.926,12.754,8.509
	c3.687,3.584,6.6,7.834,8.744,12.75c2.135,4.926,3.207,10.164,3.207,15.726h-8.02c0-4.387-0.862-8.529-2.57-12.436
	c-1.709-3.897-4.01-7.295-6.899-10.184c-2.889-2.889-6.282-5.19-10.184-6.904c-3.907-1.704-8.054-2.566-12.436-2.566
	c-4.387,0-8.529,0.862-12.436,2.566c-3.902,1.714-7.295,4.015-10.184,6.904c-2.889,2.889-5.19,6.287-6.899,10.184
	c-1.714,3.907-2.57,8.049-2.57,12.436v40.109h-8.02V70.317c0-5.562,1.043-10.801,3.129-15.726c2.086-4.916,4.921-9.166,8.505-12.75
	c3.579-3.584,7.804-6.424,12.671-8.509S37.277,30.208,42.947,30.208z"/>
<path fill="#312783" d="M217.822,30.208c5.454,0,10.585,1.067,15.403,3.212c4.808,2.135,9.058,5.053,12.75,8.744
	c3.692,3.682,6.6,7.942,8.744,12.75c2.135,4.818,3.212,9.949,3.212,15.403h-8.02c0-4.387-0.862-8.529-2.575-12.436
	c-1.704-3.897-4.005-7.295-6.894-10.184c-2.889-2.889-6.287-5.19-10.184-6.904c-3.907-1.704-8.059-2.566-12.436-2.566
	c-4.387,0-8.529,0.862-12.436,2.566c-3.907,1.714-7.295,4.015-10.184,6.904c-2.889,2.889-5.19,6.287-6.904,10.184
	c-1.714,3.907-2.566,8.049-2.566,12.436v40.109h-8.02V70.317c0-5.454,1.038-10.585,3.124-15.403c2.086-4.808,4.926-9.068,8.51-12.75
	c3.574-3.692,7.804-6.61,12.671-8.744C206.884,31.275,212.153,30.208,217.822,30.208z"/>
<path fill="#312783" d="M524.418,102.407c6.845,0,12.887-1.821,18.125-5.454c5.239-3.633,9.097-8.509,11.555-14.6h8.823
	c-1.391,4.064-3.339,7.804-5.856,11.232c-2.517,3.418-5.454,6.365-8.823,8.823c-3.369,2.458-7.09,4.407-11.153,5.856
	c-4.064,1.439-8.284,2.164-12.671,2.164c-5.67,0-10.938-1.038-15.805-3.124s-9.087-4.926-12.671-8.509
	c-3.584-3.584-6.424-7.804-8.509-12.671c-2.086-4.867-3.124-10.135-3.124-15.805c0-5.562,1.038-10.801,3.124-15.726
	c2.086-4.916,4.926-9.166,8.509-12.75c3.584-3.584,7.804-6.424,12.671-8.509s10.135-3.124,15.805-3.124
	c5.562,0,10.801,1.038,15.726,3.124c4.916,2.086,9.166,4.926,12.75,8.509s6.424,7.834,8.509,12.75
	c2.086,4.926,3.124,10.164,3.124,15.726v4.015h-14.444h-57.755c0.646,4.064,1.9,7.804,3.77,11.222
	c1.87,3.427,4.25,6.365,7.139,8.833c2.889,2.458,6.12,4.407,9.714,5.856C516.526,101.682,520.354,102.407,524.418,102.407z
	 M524.418,38.228c-4.064,0-7.893,0.725-11.467,2.164c-3.594,1.449-6.825,3.398-9.714,5.856c-2.889,2.468-5.268,5.435-7.139,8.911
	c-1.87,3.476-3.124,7.188-3.77,11.144h64.179c-0.646-3.956-1.9-7.667-3.77-11.144c-1.87-3.476-4.25-6.443-7.139-8.911
	c-2.889-2.458-6.159-4.407-9.792-5.856C532.174,38.953,528.374,38.228,524.418,38.228z"/>
<path fill="#312783" d="M524.418,102.407c6.845,0,12.887-1.821,18.125-5.454c5.239-3.633,9.097-8.509,11.555-14.6h8.823
	c-1.391,4.064-3.339,7.804-5.856,11.232c-2.517,3.418-5.454,6.365-8.823,8.823c-3.369,2.458-7.09,4.407-11.153,5.856
	c-4.064,1.439-8.284,2.164-12.671,2.164c-5.67,0-10.938-1.038-15.805-3.124s-9.087-4.926-12.671-8.509
	c-3.584-3.584-6.424-7.804-8.509-12.671c-2.086-4.867-3.124-10.135-3.124-15.805c0-5.562,1.038-10.801,3.124-15.726
	c2.086-4.916,4.926-9.166,8.509-12.75c3.584-3.584,7.804-6.424,12.671-8.509s10.135-3.124,15.805-3.124
	c5.562,0,10.801,1.038,15.726,3.124c4.916,2.086,9.166,4.926,12.75,8.509s6.424,7.834,8.509,12.75
	c2.086,4.926,3.124,10.164,3.124,15.726v4.015h-14.444h-57.755c0.646,4.064,1.9,7.804,3.77,11.222
	c1.87,3.427,4.25,6.365,7.139,8.833c2.889,2.458,6.12,4.407,9.714,5.856C516.526,101.682,520.354,102.407,524.418,102.407z
	 M524.418,38.228c-4.064,0-7.893,0.725-11.467,2.164c-3.594,1.449-6.825,3.398-9.714,5.856c-2.889,2.468-5.268,5.435-7.139,8.911
	c-1.87,3.476-3.124,7.188-3.77,11.144h64.179c-0.646-3.956-1.9-7.667-3.77-11.144c-1.87-3.476-4.25-6.443-7.139-8.911
	c-2.889-2.458-6.159-4.407-9.792-5.856C532.174,38.953,528.374,38.228,524.418,38.228z"/>
<path fill="#312783" d="M434.564,30.208c5.562,0,10.801,1.038,15.726,3.124c4.916,2.086,9.166,4.926,12.75,8.509
	s6.424,7.834,8.509,12.75c2.086,4.926,3.124,10.164,3.124,15.726v40.109h-8.02V70.317c0-4.387-0.862-8.529-2.566-12.436
	c-1.714-3.897-4.015-7.295-6.904-10.184c-2.889-2.889-6.287-5.19-10.184-6.904c-3.907-1.704-8.049-2.566-12.436-2.566
	s-8.529,0.862-12.436,2.566c-3.907,1.714-7.295,4.015-10.184,6.904c-2.889,2.889-5.19,6.287-6.904,10.184
	c-1.704,3.907-2.566,8.049-2.566,12.436v40.109h-8.02V70.317c0-4.387-0.862-8.529-2.566-12.436
	c-1.714-3.897-4.015-7.295-6.904-10.184c-2.889-2.889-6.277-5.19-10.184-6.904c-3.907-1.704-8.049-2.566-12.436-2.566
	c-4.387,0-8.529,0.862-12.436,2.566c-3.897,1.714-7.295,4.015-10.184,6.904c-2.889,2.889-5.19,6.287-6.894,10.184
	c-1.714,3.907-2.732,8.049-2.732,12.436v11.79l-8.107-7.563l0.087-4.227c0-5.562,1.224-10.801,3.368-15.726
	c2.135-4.916,5.053-9.166,8.745-12.75s7.942-6.424,12.75-8.509c4.818-2.086,9.949-3.124,15.403-3.124
	c3.956,0,7.785,0.558,11.477,1.684c3.692,1.126,7.08,2.703,10.184,4.73c3.104,2.037,5.885,4.416,8.343,7.139
	c2.458,2.732,4.495,5.699,6.101,8.911c1.596-3.212,3.662-6.179,6.169-8.911c2.517-2.722,5.347-5.102,8.509-7.139
	c3.153-2.027,6.551-3.604,10.184-4.73C426.965,30.766,430.716,30.208,434.564,30.208z"/>
<rect x="100.793" y="29.974" fill="#312783" width="7.838" height="80.461"/>
<rect x="152.129" y="29.974" fill="#312783" width="7.838" height="80.461"/>
<circle fill="#312783" cx="130.414" cy="12.879" r="10.886"/>
<g>
	<path fill="#3997D3" d="M261.858,98.793c3.692,3.584,7.942,6.424,12.75,8.51c4.818,2.086,9.949,3.124,15.403,3.124
		c6.845,0,12.994-1.469,18.449-4.416c2.183-1.176,4.215-2.51,6.109-3.986l-4.199-6.788c-2.277,1.833-4.804,3.377-7.599,4.605
		c-3.907,1.714-8.157,2.566-12.759,2.566c-4.387,0-8.529-0.852-12.436-2.566c-3.897-1.714-7.295-4.015-10.184-6.904
		c-2.889-2.889-5.19-6.277-6.894-10.184c-1.714-3.907-2.575-8.049-2.575-12.436c0-4.387,0.862-8.529,2.575-12.436
		c1.704-3.897,4.005-7.295,6.894-10.184c2.889-2.889,6.287-5.19,10.184-6.904c3.907-1.704,8.049-2.566,12.436-2.566
		c4.602,0,8.852,0.862,12.759,2.566c3.897,1.714,7.295,4.015,10.184,6.904c2.889,2.889,5.131,6.287,6.737,10.184
		c1.606,3.907,2.409,8.049,2.409,12.436c0,1.438-0.197,4.195-0.197,4.195l8.217,7.61l0-11.805c0-5.562-1.038-10.801-3.124-15.726
		c-2.086-4.916-4.926-9.165-8.509-12.749c-3.584-3.584-7.834-6.424-12.75-8.509c-4.925-2.086-10.164-3.124-15.726-3.124
		c-5.454,0-10.585,1.038-15.403,3.124c-4.808,2.086-9.058,4.925-12.75,8.509c-3.692,3.584-6.61,7.834-8.744,12.749
		c-2.145,4.926-3.212,10.164-3.212,15.726c0,5.67,1.067,10.938,3.212,15.805C255.248,90.989,258.166,95.209,261.858,98.793z"/>
	<path fill="#3997D3" d="M322.1,110.426c0,4.387-0.803,8.529-2.409,12.436c-1.606,3.897-3.848,7.295-6.737,10.184
		c-2.889,2.889-6.287,5.19-10.184,6.904c-3.907,1.704-8.157,2.566-12.759,2.566c-4.387,0-8.529-0.862-12.436-2.566
		c-3.897-1.714-7.295-4.015-10.184-6.904c-2.889-2.889-5.19-6.287-6.894-10.184c-1.714-3.907-2.575-8.049-2.575-12.436h-8.02
		c0,5.454,1.067,10.585,3.212,15.403c2.135,4.808,5.053,9.068,8.744,12.749c3.692,3.692,7.942,6.61,12.75,8.745
		c4.818,2.145,9.949,3.212,15.403,3.212c5.562,0,10.801-1.067,15.726-3.212c4.916-2.135,9.166-5.053,12.75-8.745
		c3.584-3.682,6.424-7.942,8.509-12.749c2.086-4.818,3.124-9.949,3.124-15.403H322.1z"/>
</g>
<g>
	<path fill="#3997D3" d="M258.166,104.767c-0.058,0.014-0.091,0.021-0.091,0.021l-6.858-6.312
		c-0.873,3.264-1.316,6.659-1.316,10.191l0.01,1.759h8.02l-0.01-1.759C257.922,107.342,258.02,106.047,258.166,104.767z"/>
	<path fill="#3997D3" d="M260.215,82.001c-2.271,2.565-3.555,4.815-5.154,7.886c1.551,2.207,3.159,5.097,5.377,7.104
		c0.096-0.251-0.21-0.51-0.107-0.759c1.04-2.524,2.376-4.816,3.953-6.918C262.554,86.829,260.834,83.309,260.215,82.001z"/>
	<path fill="#3997D3" d="M326.908,93.264c-2.135-4.808-5.053-9.068-8.745-12.749c-3.692-3.692-7.942-6.61-12.749-8.745
		c-4.818-2.144-9.949-3.212-15.403-3.212c-5.562,0-10.801,1.067-15.726,3.212c-3.233,1.404-6.149,3.181-8.807,5.26l4.162,6.728
		c2.281-1.837,4.812-3.384,7.612-4.615c3.907-1.704,8.157-2.566,12.759-2.566c4.387,0,8.529,0.862,12.436,2.566
		c3.897,1.714,7.295,4.015,10.184,6.904c2.889,2.889,5.19,6.287,6.894,10.184c1.714,3.907,2.575,8.049,2.575,12.436l-0.001,1.948
		h8.021v-1.948C330.12,103.213,329.053,98.082,326.908,93.264z"/>
</g>
<rect x="126.557" y="29.974" fill="#3997D3" width="7.838" height="80.461"/>
<circle fill="#3997D3" cx="104.712" cy="12.879" r="5.443"/>
<circle fill="#3997D3" cx="156.048" cy="12.879" r="5.443"/>
</svg>
