<?xml version="1.0" encoding="utf-8"?>
<!-- Generator: Adobe Illustrator 18.1.1, SVG Export Plug-In . SVG Version: 6.00 Build 0)  -->
<svg version="1.1" id="Calque_1" xmlns="http://www.w3.org/2000/svg" xmlns:xlink="http://www.w3.org/1999/xlink" x="0px" y="0px"
	 viewBox="0 0 850.4 283.5" enable-background="new 0 0 850.4 283.5" xml:space="preserve">
<path fill="#444444" d="M64.4,72.5c8.2,0,15.9,1.6,23.1,4.7c7.2,3.1,13.6,7.4,19.1,12.8c5.5,5.4,9.9,11.8,13.1,19.1
	c3.2,7.4,4.8,15.2,4.8,23.6h-12c0-6.6-1.3-12.8-3.9-18.7c-2.6-5.8-6-10.9-10.3-15.3C94,94.4,88.9,91,83.1,88.4
	c-5.9-2.6-12.1-3.8-18.7-3.8c-6.6,0-12.8,1.3-18.7,3.8c-5.9,2.6-10.9,6-15.3,10.4c-4.3,4.3-7.8,9.4-10.3,15.3
	c-2.6,5.9-3.9,12.1-3.9,18.7v60.2h-12v-60.2c0-8.3,1.6-16.2,4.7-23.6c3.1-7.4,7.4-13.7,12.8-19.1c5.4-5.4,11.7-9.6,19-12.8
	S55.9,72.5,64.4,72.5z"/>
<path fill="#444444" d="M326.7,72.5c8.2,0,15.9,1.6,23.1,4.8c7.2,3.2,13.6,7.6,19.1,13.1c5.5,5.5,9.9,11.9,13.1,19.1
	c3.2,7.2,4.8,14.9,4.8,23.1h-12c0-6.6-1.3-12.8-3.9-18.7c-2.6-5.8-6-10.9-10.3-15.3c-4.3-4.3-9.4-7.8-15.3-10.4
	c-5.9-2.6-12.1-3.8-18.7-3.8c-6.6,0-12.8,1.3-18.7,3.8c-5.9,2.6-10.9,6-15.3,10.4c-4.3,4.3-7.8,9.4-10.4,15.3
	c-2.6,5.9-3.8,12.1-3.8,18.7v60.2h-12v-60.2c0-8.2,1.6-15.9,4.7-23.1c3.1-7.2,7.4-13.6,12.8-19.1c5.4-5.5,11.7-9.9,19-13.1
	C310.3,74.1,318.2,72.5,326.7,72.5z"/>
<path fill="#312783" d="M786.6,180.8c10.3,0,19.3-2.7,27.2-8.2c7.9-5.4,13.6-12.8,17.3-21.9h13.2c-2.1,6.1-5,11.7-8.8,16.8
	c-3.8,5.1-8.2,9.5-13.2,13.2c-5.1,3.7-10.6,6.6-16.7,8.8c-6.1,2.2-12.4,3.2-19,3.2c-8.5,0-16.4-1.6-23.7-4.7
	c-7.3-3.1-13.6-7.4-19-12.8c-5.4-5.4-9.6-11.7-12.8-19c-3.1-7.3-4.7-15.2-4.7-23.7c0-8.3,1.6-16.2,4.7-23.6
	c3.1-7.4,7.4-13.7,12.8-19.1c5.4-5.4,11.7-9.6,19-12.8s15.2-4.7,23.7-4.7c8.3,0,16.2,1.6,23.6,4.7c7.4,3.1,13.7,7.4,19.1,12.8
	c5.4,5.4,9.6,11.8,12.8,19.1c3.1,7.4,4.7,15.2,4.7,23.6v6h-21.7h-86.6c1,6.1,2.8,11.7,5.7,16.8c2.8,5.1,6.4,9.5,10.7,13.2
	c4.3,3.7,9.2,6.6,14.6,8.8C774.8,179.8,780.5,180.8,786.6,180.8z M786.6,84.6c-6.1,0-11.8,1.1-17.2,3.2c-5.4,2.2-10.2,5.1-14.6,8.8
	c-4.3,3.7-7.9,8.2-10.7,13.4c-2.8,5.2-4.7,10.8-5.7,16.7h96.3c-1-5.9-2.9-11.5-5.7-16.7c-2.8-5.2-6.4-9.7-10.7-13.4
	c-4.3-3.7-9.2-6.6-14.7-8.8C798.3,85.7,792.6,84.6,786.6,84.6z"/>
<path fill="#444444" d="M786.6,180.8c10.3,0,19.3-2.7,27.2-8.2c7.9-5.4,13.6-12.8,17.3-21.9h13.2c-2.1,6.1-5,11.7-8.8,16.8
	c-3.8,5.1-8.2,9.5-13.2,13.2c-5.1,3.7-10.6,6.6-16.7,8.8c-6.1,2.2-12.4,3.2-19,3.2c-8.5,0-16.4-1.6-23.7-4.7
	c-7.3-3.1-13.6-7.4-19-12.8c-5.4-5.4-9.6-11.7-12.8-19c-3.1-7.3-4.7-15.2-4.7-23.7c0-8.3,1.6-16.2,4.7-23.6
	c3.1-7.4,7.4-13.7,12.8-19.1c5.4-5.4,11.7-9.6,19-12.8s15.2-4.7,23.7-4.7c8.3,0,16.2,1.6,23.6,4.7c7.4,3.1,13.7,7.4,19.1,12.8
	c5.4,5.4,9.6,11.8,12.8,19.1c3.1,7.4,4.7,15.2,4.7,23.6v6h-21.7h-86.6c1,6.1,2.8,11.7,5.7,16.8c2.8,5.1,6.4,9.5,10.7,13.2
	c4.3,3.7,9.2,6.6,14.6,8.8C774.8,179.8,780.5,180.8,786.6,180.8z M786.6,84.6c-6.1,0-11.8,1.1-17.2,3.2c-5.4,2.2-10.2,5.1-14.6,8.8
	c-4.3,3.7-7.9,8.2-10.7,13.4c-2.8,5.2-4.7,10.8-5.7,16.7h96.3c-1-5.9-2.9-11.5-5.7-16.7c-2.8-5.2-6.4-9.7-10.7-13.4
	c-4.3-3.7-9.2-6.6-14.7-8.8C798.3,85.7,792.6,84.6,786.6,84.6z"/>
<path fill="#444444" d="M651.8,72.5c8.3,0,16.2,1.6,23.6,4.7c7.4,3.1,13.7,7.4,19.1,12.8c5.4,5.4,9.6,11.8,12.8,19.1
	c3.1,7.4,4.7,15.2,4.7,23.6v60.2h-12v-60.2c0-6.6-1.3-12.8-3.8-18.7c-2.6-5.8-6-10.9-10.4-15.3c-4.3-4.3-9.4-7.8-15.3-10.4
	c-5.9-2.6-12.1-3.8-18.7-3.8s-12.8,1.3-18.7,3.8c-5.9,2.6-10.9,6-15.3,10.4c-4.3,4.3-7.8,9.4-10.4,15.3c-2.6,5.9-3.8,12.1-3.8,18.7
	v60.2h-12v-60.2c0-6.6-1.3-12.8-3.8-18.7c-2.6-5.8-6-10.9-10.4-15.3c-4.3-4.3-9.4-7.8-15.3-10.4c-5.9-2.6-12.1-3.8-18.7-3.8
	s-12.8,1.3-18.7,3.8c-5.8,2.6-10.9,6-15.3,10.4c-4.3,4.3-7.8,9.4-10.3,15.3c-2.6,5.9-4.1,12.1-4.1,18.7v17.7L483,139l0.1-6.3
	c0-8.3,1.8-16.2,5.1-23.6c3.2-7.4,7.6-13.7,13.1-19.1c5.5-5.4,11.9-9.6,19.1-12.8c7.2-3.1,14.9-4.7,23.1-4.7
	c5.9,0,11.7,0.8,17.2,2.5c5.5,1.7,10.6,4.1,15.3,7.1c4.7,3.1,8.8,6.6,12.5,10.7c3.7,4.1,6.7,8.5,9.2,13.4c2.4-4.8,5.5-9.3,9.3-13.4
	c3.8-4.1,8-7.7,12.8-10.7c4.7-3,9.8-5.4,15.3-7.1C640.4,73.4,646.1,72.5,651.8,72.5z"/>
<rect x="151.2" y="72.2" fill="#444444" width="11.8" height="120.7"/>
<rect x="228.2" y="72.2" fill="#444444" width="11.8" height="120.7"/>
<circle fill="#444444" cx="195.6" cy="46.5" r="16.3"/>
<g>
	<path fill="#3997D3" d="M392.8,175.4c5.5,5.4,11.9,9.6,19.1,12.8c7.2,3.1,14.9,4.7,23.1,4.7c10.3,0,19.5-2.2,27.7-6.6
		c3.3-1.8,6.3-3.8,9.2-6l-6.3-10.2c-3.4,2.7-7.2,5.1-11.4,6.9c-5.9,2.6-12.2,3.8-19.1,3.8c-6.6,0-12.8-1.3-18.7-3.8
		c-5.8-2.6-10.9-6-15.3-10.4c-4.3-4.3-7.8-9.4-10.3-15.3c-2.6-5.9-3.9-12.1-3.9-18.7c0-6.6,1.3-12.8,3.9-18.7
		c2.6-5.8,6-10.9,10.3-15.3c4.3-4.3,9.4-7.8,15.3-10.4c5.9-2.6,12.1-3.8,18.7-3.8c6.9,0,13.3,1.3,19.1,3.8c5.8,2.6,10.9,6,15.3,10.4
		c4.3,4.3,7.7,9.4,10.1,15.3c2.4,5.9,3.6,12.1,3.6,18.7c0,2.2-0.3,6.3-0.3,6.3l12.3,11.4v-17.7c0-8.3-1.6-16.2-4.7-23.6
		c-3.1-7.4-7.4-13.7-12.8-19.1c-5.4-5.4-11.8-9.6-19.1-12.8c-7.4-3.1-15.2-4.7-23.6-4.7c-8.2,0-15.9,1.6-23.1,4.7
		c-7.2,3.1-13.6,7.4-19.1,12.8c-5.5,5.4-9.9,11.8-13.1,19.1c-3.2,7.4-4.8,15.2-4.8,23.6c0,8.5,1.6,16.4,4.8,23.7
		C382.9,163.7,387.2,170,392.8,175.4z"/>
	<path fill="#3997D3" d="M483.1,192.9c0,6.6-1.2,12.8-3.6,18.7c-2.4,5.8-5.8,10.9-10.1,15.3c-4.3,4.3-9.4,7.8-15.3,10.4
		c-5.9,2.6-12.2,3.8-19.1,3.8c-6.6,0-12.8-1.3-18.7-3.8c-5.8-2.6-10.9-6-15.3-10.4c-4.3-4.3-7.8-9.4-10.3-15.3
		c-2.6-5.9-3.9-12.1-3.9-18.7h-12c0,8.2,1.6,15.9,4.8,23.1c3.2,7.2,7.6,13.6,13.1,19.1c5.5,5.5,11.9,9.9,19.1,13.1
		c7.2,3.2,14.9,4.8,23.1,4.8c8.3,0,16.2-1.6,23.6-4.8c7.4-3.2,13.7-7.6,19.1-13.1c5.4-5.5,9.6-11.9,12.8-19.1
		c3.1-7.2,4.7-14.9,4.7-23.1H483.1z"/>
</g>
<g>
	<path fill="#3997D3" d="M387.2,184.4c-0.1,0-0.1,0-0.1,0l-10.3-9.5c-1.3,4.9-2,10-2,15.3l0,2.6h12l0-2.6
		C386.9,188.2,387,186.3,387.2,184.4z"/>
	<path fill="#3997D3" d="M390.3,150.2c-3.4,3.8-5.3,7.2-7.7,11.8c2.3,3.3,4.7,7.6,8.1,10.7c0.1-0.4-0.3-0.8-0.2-1.1
		c1.6-3.8,3.6-7.2,5.9-10.4C393.8,157.5,391.2,152.2,390.3,150.2z"/>
	<path fill="#3997D3" d="M490.4,167.1c-3.2-7.2-7.6-13.6-13.1-19.1c-5.5-5.5-11.9-9.9-19.1-13.1c-7.2-3.2-14.9-4.8-23.1-4.8
		c-8.3,0-16.2,1.6-23.6,4.8c-4.8,2.1-9.2,4.8-13.2,7.9l6.2,10.1c3.4-2.8,7.2-5.1,11.4-6.9c5.9-2.6,12.2-3.8,19.1-3.8
		c6.6,0,12.8,1.3,18.7,3.8c5.8,2.6,10.9,6,15.3,10.4c4.3,4.3,7.8,9.4,10.3,15.3c2.6,5.9,3.9,12.1,3.9,18.7l0,2.9h12v-2.9
		C495.2,182,493.6,174.4,490.4,167.1z"/>
</g>
<rect x="189.8" y="72.2" fill="#3997D3" width="11.8" height="120.7"/>
<circle fill="#3997D3" cx="157.1" cy="46.5" r="8.2"/>
<circle fill="#3997D3" cx="234.1" cy="46.5" r="8.2"/>
</svg>
