<?xml version="1.0" encoding="utf-8"?>
<!-- Generator: Adobe Illustrator 18.1.0, SVG Export Plug-In . SVG Version: 6.00 Build 0)  -->
<svg version="1.1" id="Calque_1" xmlns="http://www.w3.org/2000/svg" xmlns:xlink="http://www.w3.org/1999/xlink" x="0px" y="0px"
	 viewBox="0 0 95 140.667" enable-background="new 0 0 95 140.667" xml:space="preserve">
<path fill="#3997D3" d="M83.777,93.078c0,4.972-0.91,9.666-2.73,14.094c-1.82,4.417-4.362,8.268-7.635,11.542
	c-3.274,3.274-7.125,5.882-11.542,7.824c-4.428,1.931-9.245,2.908-14.461,2.908c-4.972,0-9.666-0.977-14.095-2.908
	c-4.417-1.942-8.268-4.55-11.542-7.824c-3.274-3.274-5.882-7.125-7.813-11.542c-1.942-4.428-2.919-9.123-2.919-14.094H1.951
	c0,6.182,1.21,11.997,3.64,17.457c2.419,5.449,5.727,10.277,9.911,14.45c4.184,4.184,9,7.491,14.45,9.911
	c5.46,2.43,11.276,3.64,17.457,3.64c6.304,0,12.241-1.21,17.823-3.64c5.571-2.419,10.388-5.727,14.45-9.911
	c4.062-4.173,7.28-9,9.644-14.45c2.364-5.46,3.54-11.276,3.54-17.457H83.777z"/>
<g>
	<path fill="#3997D3" d="M11.317,86.664c-0.066,0.016-0.103,0.024-0.103,0.024l-7.772-7.154c-0.99,3.699-1.492,7.547-1.492,11.55
		l0.011,1.994h9.089l-0.011-1.994C11.04,89.583,11.151,88.115,11.317,86.664z"/>
	<path fill="#3997D3" d="M13.639,60.862c-2.573,2.907-4.029,5.457-5.841,8.937c1.758,2.501,3.58,5.776,6.094,8.051
		c0.109-0.285-0.238-0.578-0.122-0.86c1.179-2.861,2.693-5.458,4.48-7.841C16.29,66.334,14.341,62.345,13.639,60.862z"/>
	<path fill="#3997D3" d="M89.226,73.627c-2.419-5.449-5.727-10.277-9.911-14.45c-4.184-4.184-9-7.491-14.45-9.911
		c-5.46-2.43-11.276-3.64-17.457-3.64c-6.304,0-12.241,1.21-17.823,3.64c-3.664,1.591-6.969,3.605-9.981,5.962l4.717,7.625
		c2.585-2.082,5.454-3.835,8.627-5.23c4.428-1.931,9.245-2.908,14.461-2.908c4.972,0,9.666,0.977,14.094,2.908
		c4.417,1.942,8.268,4.55,11.542,7.824c3.274,3.274,5.882,7.125,7.813,11.542c1.942,4.428,2.919,9.123,2.919,14.094l-0.001,2.208
		h9.09v-2.208C92.866,84.903,91.656,79.087,89.226,73.627z"/>
</g>
<path fill="#2E2C7D" d="M15.502,79.894c4.184,4.062,9,7.28,14.45,9.644c5.46,2.364,11.276,3.54,17.457,3.54
	c7.757,0,14.727-1.665,20.909-5.005c2.474-1.333,4.778-2.844,6.923-4.518l-4.759-7.693c-2.581,2.077-5.445,3.827-8.613,5.219
	c-4.428,1.942-9.245,2.908-14.461,2.908c-4.972,0-9.666-0.966-14.095-2.908c-4.417-1.942-8.268-4.55-11.542-7.824
	c-3.274-3.274-5.882-7.114-7.813-11.542c-1.942-4.428-2.919-9.123-2.919-14.095c0-4.972,0.977-9.666,2.919-14.094
	c1.931-4.417,4.539-8.268,7.813-11.542c3.274-3.274,7.125-5.882,11.542-7.824c4.428-1.931,9.123-2.908,14.095-2.908
	c5.216,0,10.033,0.977,14.461,2.908c4.417,1.942,8.268,4.55,11.542,7.824c3.274,3.274,5.815,7.125,7.635,11.542
	c1.82,4.428,2.73,9.123,2.73,14.094c0,1.63-0.224,4.754-0.224,4.754L92.865,61l0-13.379c0-6.304-1.176-12.241-3.54-17.823
	c-2.364-5.571-5.582-10.388-9.644-14.45c-4.062-4.062-8.878-7.28-14.45-9.644c-5.582-2.364-11.52-3.54-17.823-3.54
	c-6.182,0-11.997,1.176-17.457,3.54c-5.449,2.364-10.266,5.582-14.45,9.644c-4.184,4.062-7.491,8.878-9.911,14.45
	c-2.43,5.582-3.64,11.52-3.64,17.823c0,6.426,1.21,12.396,3.64,17.912C8.011,71.049,11.318,75.832,15.502,79.894z"/>
</svg>
