<?xml version="1.0" encoding="utf-8"?>
<!-- Generator: Adobe Illustrator 18.1.1, SVG Export Plug-In . SVG Version: 6.00 Build 0)  -->
<svg version="1.1" id="Calque_1" xmlns="http://www.w3.org/2000/svg" xmlns:xlink="http://www.w3.org/1999/xlink" x="0px" y="0px"
	 viewBox="0 0 850.4 283.5" enable-background="new 0 0 850.4 283.5" xml:space="preserve">
<path fill="#3997D3" d="M498.3,187.6c0,10-1.8,19.5-5.5,28.4c-3.7,8.9-8.8,16.7-15.4,23.3c-6.6,6.6-14.4,11.9-23.3,15.8
	c-8.9,3.9-18.6,5.9-29.1,5.9c-10,0-19.5-2-28.4-5.9c-8.9-3.9-16.7-9.2-23.3-15.8c-6.6-6.6-11.9-14.4-15.7-23.3
	c-3.9-8.9-5.9-18.4-5.9-28.4h-18.3c0,12.5,2.4,24.2,7.3,35.2c4.9,11,11.5,20.7,20,29.1c8.4,8.4,18.1,15.1,29.1,20
	c11,4.9,22.7,7.3,35.2,7.3c12.7,0,24.7-2.4,35.9-7.3c11.2-4.9,20.9-11.5,29.1-20c8.2-8.4,14.7-18.1,19.4-29.1
	c4.8-11,7.1-22.7,7.1-35.2L498.3,187.6L498.3,187.6z"/>
<g>
	<path fill="#3997D3" d="M352.3,174.6c-0.1,0-0.2,0-0.2,0l-15.7-14.4c-2,7.5-3,15.2-3,23.3l0,4h18.3l0-4
		C351.7,180.5,351.9,177.6,352.3,174.6z"/>
	<path fill="#3997D3" d="M357,122.6c-5.2,5.9-8.1,11-11.8,18c3.5,5,7.2,11.6,12.3,16.2c0.2-0.6-0.5-1.2-0.2-1.7
		c2.4-5.8,5.4-11,9-15.8C362.3,133.7,358.4,125.6,357,122.6z"/>
	<path fill="#3997D3" d="M509.3,148.4c-4.9-11-11.5-20.7-20-29.1c-8.4-8.4-18.1-15.1-29.1-20c-11-4.9-22.7-7.3-35.2-7.3
		c-12.7,0-24.7,2.4-35.9,7.3c-7.4,3.2-14,7.3-20.1,12l9.5,15.4c5.2-4.2,11-7.7,17.4-10.5c8.9-3.9,18.6-5.9,29.1-5.9
		c10,0,19.5,2,28.4,5.9c8.9,3.9,16.7,9.2,23.3,15.8s11.9,14.4,15.7,23.3c3.9,8.9,5.9,18.4,5.9,28.4l0,4.4h18.3v-4.4
		C516.6,171.1,514.2,159.4,509.3,148.4z"/>
</g>
<path fill="#444444" d="M360.7,161c8.4,8.2,18.1,14.7,29.1,19.4c11,4.8,22.7,7.1,35.2,7.1c15.6,0,29.7-3.4,42.1-10.1
	c5-2.7,9.6-5.7,14-9.1l-9.6-15.5c-5.2,4.2-11,7.7-17.4,10.5c-8.9,3.9-18.6,5.9-29.1,5.9c-10,0-19.5-1.9-28.4-5.9
	c-8.9-3.9-16.7-9.2-23.3-15.8s-11.9-14.3-15.7-23.3c-3.9-8.9-5.9-18.4-5.9-28.4s2-19.5,5.9-28.4c3.9-8.9,9.1-16.7,15.7-23.3
	s14.4-11.9,23.3-15.8c8.9-3.9,18.4-5.9,28.4-5.9c10.5,0,20.2,2,29.1,5.9c8.9,3.9,16.7,9.2,23.3,15.8c6.6,6.6,11.7,14.4,15.4,23.3
	c3.7,8.9,5.5,18.4,5.5,28.4c0,3.3-0.5,9.6-0.5,9.6l18.8,17.4V96c0-12.7-2.4-24.7-7.1-35.9c-4.8-11.2-11.2-20.9-19.4-29.1
	c-8.2-8.2-17.9-14.7-29.1-19.4c-11.2-4.8-23.2-7.1-35.9-7.1c-12.5,0-24.2,2.4-35.2,7.1c-11,4.8-20.7,11.2-29.1,19.4
	c-8.4,8.2-15.1,17.9-20,29.1c-4.9,11.2-7.3,23.2-7.3,35.9c0,12.9,2.4,25,7.3,36.1C345.6,143.2,352.3,152.8,360.7,161z"/>
</svg>
