<?xml version="1.0" encoding="utf-8"?>
<!-- Generator: Adobe Illustrator 18.1.1, SVG Export Plug-In . SVG Version: 6.00 Build 0)  -->
<svg version="1.1" id="Calque_1" xmlns="http://www.w3.org/2000/svg" xmlns:xlink="http://www.w3.org/1999/xlink" x="0px" y="0px"
	 viewBox="0 0 85.04 23" enable-background="new 0 0 85.04 23" xml:space="preserve">
<path fill="#FFFFFF" d="M18.537,7.058c0.516,0,1.001,0.098,1.456,0.295c0.455,0.197,0.857,0.466,1.206,0.805
	c0.349,0.339,0.624,0.741,0.827,1.205c0.202,0.466,0.303,0.961,0.303,1.487h-0.758c0-0.415-0.081-0.806-0.243-1.176
	c-0.162-0.368-0.379-0.69-0.652-0.963s-0.594-0.491-0.963-0.653c-0.369-0.161-0.761-0.243-1.176-0.243
	c-0.415,0-0.806,0.081-1.176,0.243c-0.369,0.162-0.69,0.38-0.963,0.653c-0.273,0.273-0.491,0.594-0.652,0.963
	c-0.162,0.369-0.243,0.761-0.243,1.176v3.792h-0.758V10.85c0-0.526,0.099-1.021,0.296-1.487c0.197-0.465,0.465-0.867,0.804-1.205
	c0.338-0.339,0.738-0.607,1.198-0.805C17.503,7.156,18.001,7.058,18.537,7.058z"/>
<path fill="#FFFFFF" d="M35.071,7.058c0.516,0,1.001,0.101,1.456,0.304c0.455,0.202,0.856,0.478,1.205,0.827
	c0.349,0.348,0.624,0.751,0.827,1.205c0.202,0.456,0.304,0.941,0.304,1.456h-0.758c0-0.415-0.081-0.806-0.243-1.176
	c-0.161-0.368-0.379-0.69-0.652-0.963c-0.273-0.273-0.594-0.491-0.963-0.653c-0.369-0.161-0.762-0.243-1.176-0.243
	c-0.415,0-0.806,0.081-1.176,0.243c-0.369,0.162-0.69,0.38-0.963,0.653c-0.273,0.273-0.491,0.594-0.653,0.963
	c-0.162,0.369-0.243,0.761-0.243,1.176v3.792h-0.758V10.85c0-0.516,0.098-1.001,0.295-1.456c0.197-0.455,0.466-0.857,0.805-1.205
	c0.338-0.349,0.738-0.625,1.198-0.827C34.037,7.159,34.535,7.058,35.071,7.058z"/>
<path fill="#FFFFFF" d="M64.058,13.884c0.647,0,1.218-0.172,1.714-0.516c0.495-0.343,0.86-0.805,1.092-1.38h0.834
	c-0.131,0.384-0.316,0.738-0.554,1.062c-0.238,0.323-0.516,0.602-0.834,0.834c-0.318,0.232-0.67,0.417-1.055,0.554
	c-0.384,0.136-0.783,0.205-1.198,0.205c-0.536,0-1.034-0.098-1.494-0.295c-0.46-0.197-0.859-0.466-1.198-0.805
	s-0.607-0.738-0.805-1.198c-0.197-0.46-0.295-0.958-0.295-1.494c0-0.526,0.098-1.021,0.295-1.487
	c0.197-0.465,0.466-0.867,0.805-1.205c0.339-0.339,0.738-0.607,1.198-0.805c0.46-0.197,0.958-0.295,1.494-0.295
	c0.526,0,1.021,0.098,1.487,0.295c0.465,0.197,0.867,0.466,1.205,0.805c0.339,0.339,0.607,0.741,0.805,1.205
	c0.197,0.466,0.295,0.961,0.295,1.487v0.38h-1.366h-5.46c0.061,0.384,0.18,0.738,0.356,1.061c0.177,0.324,0.402,0.602,0.675,0.835
	c0.273,0.232,0.579,0.417,0.918,0.554C63.312,13.816,63.674,13.884,64.058,13.884z M64.058,7.817c-0.384,0-0.746,0.069-1.084,0.205
	c-0.34,0.137-0.645,0.321-0.918,0.554c-0.273,0.233-0.498,0.514-0.675,0.842c-0.177,0.329-0.295,0.68-0.356,1.054h6.068
	c-0.061-0.374-0.18-0.725-0.356-1.054c-0.177-0.329-0.402-0.609-0.675-0.842c-0.273-0.232-0.582-0.417-0.926-0.554
	C64.792,7.885,64.432,7.817,64.058,7.817z"/>
<path fill="#FFFFFF" d="M64.058,13.884c0.647,0,1.218-0.172,1.714-0.516c0.495-0.343,0.86-0.805,1.092-1.38h0.834
	c-0.131,0.384-0.316,0.738-0.554,1.062c-0.238,0.323-0.516,0.602-0.834,0.834c-0.318,0.232-0.67,0.417-1.055,0.554
	c-0.384,0.136-0.783,0.205-1.198,0.205c-0.536,0-1.034-0.098-1.494-0.295c-0.46-0.197-0.859-0.466-1.198-0.805
	s-0.607-0.738-0.805-1.198c-0.197-0.46-0.295-0.958-0.295-1.494c0-0.526,0.098-1.021,0.295-1.487
	c0.197-0.465,0.466-0.867,0.805-1.205c0.339-0.339,0.738-0.607,1.198-0.805c0.46-0.197,0.958-0.295,1.494-0.295
	c0.526,0,1.021,0.098,1.487,0.295c0.465,0.197,0.867,0.466,1.205,0.805c0.339,0.339,0.607,0.741,0.805,1.205
	c0.197,0.466,0.295,0.961,0.295,1.487v0.38h-1.366h-5.46c0.061,0.384,0.18,0.738,0.356,1.061c0.177,0.324,0.402,0.602,0.675,0.835
	c0.273,0.232,0.579,0.417,0.918,0.554C63.312,13.816,63.674,13.884,64.058,13.884z M64.058,7.817c-0.384,0-0.746,0.069-1.084,0.205
	c-0.34,0.137-0.645,0.321-0.918,0.554c-0.273,0.233-0.498,0.514-0.675,0.842c-0.177,0.329-0.295,0.68-0.356,1.054h6.068
	c-0.061-0.374-0.18-0.725-0.356-1.054c-0.177-0.329-0.402-0.609-0.675-0.842c-0.273-0.232-0.582-0.417-0.926-0.554
	C64.792,7.885,64.432,7.817,64.058,7.817z"/>
<path fill="#FFFFFF" d="M55.563,7.058c0.526,0,1.021,0.098,1.487,0.295c0.465,0.197,0.867,0.466,1.205,0.805
	c0.339,0.339,0.607,0.741,0.805,1.205c0.197,0.466,0.295,0.961,0.295,1.487v3.792h-0.758V10.85c0-0.415-0.081-0.806-0.243-1.176
	c-0.162-0.368-0.38-0.69-0.653-0.963c-0.273-0.273-0.594-0.491-0.963-0.653c-0.369-0.161-0.761-0.243-1.176-0.243
	c-0.415,0-0.806,0.081-1.176,0.243c-0.369,0.162-0.69,0.38-0.963,0.653s-0.491,0.594-0.653,0.963
	c-0.161,0.369-0.243,0.761-0.243,1.176v3.792h-0.758V10.85c0-0.415-0.081-0.806-0.243-1.176c-0.162-0.368-0.38-0.69-0.653-0.963
	s-0.593-0.491-0.963-0.653c-0.369-0.161-0.761-0.243-1.176-0.243c-0.415,0-0.806,0.081-1.176,0.243
	c-0.368,0.162-0.69,0.38-0.963,0.653c-0.273,0.273-0.491,0.594-0.652,0.963c-0.162,0.369-0.258,0.761-0.258,1.176v1.115
	l-0.766-0.715l0.008-0.4c0-0.526,0.116-1.021,0.318-1.487c0.202-0.465,0.478-0.867,0.827-1.205c0.349-0.339,0.751-0.607,1.205-0.805
	c0.456-0.197,0.941-0.295,1.456-0.295c0.374,0,0.736,0.053,1.085,0.159c0.349,0.106,0.669,0.256,0.963,0.447
	c0.293,0.193,0.556,0.418,0.789,0.675c0.232,0.258,0.425,0.539,0.577,0.842c0.151-0.304,0.346-0.584,0.583-0.842
	c0.238-0.257,0.505-0.482,0.805-0.675c0.298-0.192,0.619-0.341,0.963-0.447C54.845,7.111,55.199,7.058,55.563,7.058z"/>
<rect x="24.006" y="7.036" fill="#FFFFFF" width="0.741" height="7.607"/>
<rect x="28.86" y="7.036" fill="#FFFFFF" width="0.741" height="7.607"/>
<circle fill="#FFFFFF" cx="26.807" cy="5.42" r="1.029"/>
<g>
	<path fill="#3997D3" d="M39.234,13.543c0.349,0.339,0.751,0.607,1.205,0.805c0.456,0.197,0.941,0.295,1.456,0.295
		c0.647,0,1.229-0.139,1.744-0.418c0.206-0.111,0.399-0.237,0.578-0.377l-0.397-0.642c-0.215,0.173-0.454,0.319-0.718,0.435
		c-0.369,0.162-0.771,0.243-1.206,0.243c-0.415,0-0.806-0.081-1.176-0.243c-0.368-0.162-0.69-0.38-0.963-0.653
		c-0.273-0.273-0.491-0.593-0.652-0.963c-0.162-0.369-0.243-0.761-0.243-1.176c0-0.415,0.081-0.806,0.243-1.176
		c0.161-0.368,0.379-0.69,0.652-0.963c0.273-0.273,0.594-0.491,0.963-0.653c0.369-0.161,0.761-0.243,1.176-0.243
		c0.435,0,0.837,0.081,1.206,0.243c0.368,0.162,0.69,0.38,0.963,0.653c0.273,0.273,0.485,0.594,0.637,0.963
		c0.152,0.369,0.228,0.761,0.228,1.176c0,0.136-0.019,0.397-0.019,0.397l0.777,0.72l0-1.116c0-0.526-0.098-1.021-0.295-1.487
		c-0.197-0.465-0.466-0.867-0.805-1.205c-0.339-0.339-0.741-0.607-1.205-0.805c-0.466-0.197-0.961-0.295-1.487-0.295
		c-0.516,0-1.001,0.098-1.456,0.295c-0.455,0.197-0.856,0.466-1.205,0.805c-0.349,0.339-0.625,0.741-0.827,1.205
		c-0.203,0.466-0.304,0.961-0.304,1.487c0,0.536,0.101,1.034,0.304,1.494C38.61,12.805,38.885,13.204,39.234,13.543z"/>
	<path fill="#3997D3" d="M44.93,14.643c0,0.415-0.076,0.806-0.228,1.176c-0.152,0.368-0.364,0.69-0.637,0.963
		c-0.273,0.273-0.594,0.491-0.963,0.653c-0.369,0.161-0.771,0.243-1.206,0.243c-0.415,0-0.806-0.081-1.176-0.243
		c-0.368-0.162-0.69-0.38-0.963-0.653c-0.273-0.273-0.491-0.594-0.652-0.963c-0.162-0.369-0.243-0.761-0.243-1.176h-0.758
		c0,0.516,0.101,1.001,0.304,1.456c0.202,0.455,0.478,0.857,0.827,1.205c0.349,0.349,0.751,0.625,1.205,0.827
		c0.456,0.203,0.941,0.304,1.456,0.304c0.526,0,1.021-0.101,1.487-0.304c0.465-0.202,0.867-0.478,1.205-0.827
		c0.339-0.348,0.607-0.751,0.805-1.205c0.197-0.456,0.295-0.941,0.295-1.456H44.93z"/>
</g>
<g>
	<path fill="#3997D3" d="M38.885,14.108c-0.005,0.001-0.009,0.002-0.009,0.002l-0.648-0.597c-0.083,0.309-0.124,0.63-0.124,0.964
		l0.001,0.166h0.758l-0.001-0.166C38.862,14.351,38.872,14.229,38.885,14.108z"/>
	<path fill="#3997D3" d="M39.079,11.955c-0.215,0.243-0.336,0.455-0.487,0.746c0.147,0.209,0.299,0.482,0.508,0.672
		c0.009-0.024-0.02-0.048-0.01-0.072c0.098-0.239,0.225-0.455,0.374-0.654C39.3,12.412,39.138,12.079,39.079,11.955z"/>
	<path fill="#3997D3" d="M45.385,13.02c-0.202-0.455-0.478-0.857-0.827-1.205c-0.349-0.349-0.751-0.625-1.205-0.827
		c-0.456-0.203-0.941-0.304-1.456-0.304c-0.526,0-1.021,0.101-1.487,0.304c-0.306,0.133-0.581,0.301-0.833,0.497l0.393,0.636
		c0.216-0.174,0.455-0.32,0.72-0.436c0.369-0.161,0.771-0.243,1.206-0.243c0.415,0,0.806,0.081,1.176,0.243
		c0.368,0.162,0.69,0.38,0.963,0.653c0.273,0.273,0.491,0.594,0.652,0.963c0.162,0.369,0.243,0.761,0.243,1.176l0,0.184h0.758
		v-0.184C45.688,13.961,45.587,13.475,45.385,13.02z"/>
</g>
<rect x="26.442" y="7.036" fill="#3997D3" width="0.741" height="7.607"/>
<circle fill="#3997D3" cx="24.377" cy="5.42" r="0.515"/>
<circle fill="#3997D3" cx="29.231" cy="5.42" r="0.515"/>
</svg>
