<?xml version="1.0" encoding="utf-8"?>
<!-- Generator: Adobe Illustrator 18.1.1, SVG Export Plug-In . SVG Version: 6.00 Build 0)  -->
<svg version="1.1" id="Calque_1" xmlns="http://www.w3.org/2000/svg" xmlns:xlink="http://www.w3.org/1999/xlink" x="0px" y="0px"
	 viewBox="0 0 850.4 283.5" enable-background="new 0 0 850.4 283.5" xml:space="preserve">
<path fill="#FFFFFF" d="M97.9,81c7.3,0,14.1,1.4,20.5,4.2c6.4,2.8,12.1,6.6,17,11.4c4.9,4.8,8.8,10.5,11.7,17
	c2.8,6.6,4.3,13.6,4.3,21h-10.7c0-5.9-1.1-11.4-3.4-16.6c-2.3-5.2-5.3-9.7-9.2-13.6c-3.9-3.9-8.4-6.9-13.6-9.2
	c-5.2-2.3-10.7-3.4-16.6-3.4c-5.9,0-11.4,1.1-16.6,3.4c-5.2,2.3-9.7,5.4-13.6,9.2c-3.9,3.9-6.9,8.4-9.2,13.6
	c-2.3,5.2-3.4,10.7-3.4,16.6V188H44.4v-53.5c0-7.4,1.4-14.4,4.2-21c2.8-6.6,6.6-12.2,11.3-17c4.8-4.8,10.4-8.6,16.9-11.4
	C83.3,82.4,90.4,81,97.9,81z"/>
<path fill="#FFFFFF" d="M331.1,81c7.3,0,14.1,1.4,20.5,4.3c6.4,2.8,12.1,6.7,17,11.7c4.9,4.9,8.8,10.6,11.7,17
	c2.8,6.4,4.3,13.3,4.3,20.5h-10.7c0-5.9-1.1-11.4-3.4-16.6c-2.3-5.2-5.3-9.7-9.2-13.6c-3.9-3.9-8.4-6.9-13.6-9.2
	c-5.2-2.3-10.7-3.4-16.6-3.4c-5.9,0-11.4,1.1-16.6,3.4c-5.2,2.3-9.7,5.4-13.6,9.2c-3.9,3.9-6.9,8.4-9.2,13.6
	c-2.3,5.2-3.4,10.7-3.4,16.6V188h-10.7v-53.5c0-7.3,1.4-14.1,4.2-20.5c2.8-6.4,6.6-12.1,11.4-17c4.8-4.9,10.4-8.8,16.9-11.7
	C316.6,82.4,323.6,81,331.1,81z"/>
<path fill="#FFFFFF" d="M740,177.3c9.1,0,17.2-2.4,24.2-7.3c7-4.8,12.1-11.4,15.4-19.5h11.8c-1.8,5.4-4.5,10.4-7.8,15
	c-3.4,4.6-7.3,8.5-11.8,11.8c-4.5,3.3-9.5,5.9-14.9,7.8c-5.4,1.9-11,2.9-16.9,2.9c-7.6,0-14.6-1.4-21.1-4.2
	c-6.5-2.8-12.1-6.6-16.9-11.4s-8.6-10.4-11.4-16.9c-2.8-6.5-4.2-13.5-4.2-21.1c0-7.4,1.4-14.4,4.2-21c2.8-6.6,6.6-12.2,11.4-17
	c4.8-4.8,10.4-8.6,16.9-11.4c6.5-2.8,13.5-4.2,21.1-4.2c7.4,0,14.4,1.4,21,4.2c6.6,2.8,12.2,6.6,17,11.4c4.8,4.8,8.6,10.5,11.4,17
	c2.8,6.6,4.2,13.6,4.2,21v5.4h-19.3h-77c0.9,5.4,2.5,10.4,5,15c2.5,4.6,5.7,8.5,9.5,11.8c3.9,3.3,8.2,5.9,12.9,7.8
	C729.5,176.3,734.6,177.3,740,177.3z M740,91.7c-5.4,0-10.5,1-15.3,2.9c-4.8,1.9-9.1,4.5-12.9,7.8c-3.9,3.3-7,7.2-9.5,11.9
	c-2.5,4.6-4.2,9.6-5,14.9h85.6c-0.9-5.3-2.5-10.2-5-14.9c-2.5-4.6-5.7-8.6-9.5-11.9c-3.9-3.3-8.2-5.9-13.1-7.8
	C750.4,92.7,745.3,91.7,740,91.7z"/>
<path fill="#FFFFFF" d="M740,177.3c9.1,0,17.2-2.4,24.2-7.3c7-4.8,12.1-11.4,15.4-19.5h11.8c-1.8,5.4-4.5,10.4-7.8,15
	c-3.4,4.6-7.3,8.5-11.8,11.8c-4.5,3.3-9.5,5.9-14.9,7.8c-5.4,1.9-11,2.9-16.9,2.9c-7.6,0-14.6-1.4-21.1-4.2
	c-6.5-2.8-12.1-6.6-16.9-11.4s-8.6-10.4-11.4-16.9c-2.8-6.5-4.2-13.5-4.2-21.1c0-7.4,1.4-14.4,4.2-21c2.8-6.6,6.6-12.2,11.4-17
	c4.8-4.8,10.4-8.6,16.9-11.4c6.5-2.8,13.5-4.2,21.1-4.2c7.4,0,14.4,1.4,21,4.2c6.6,2.8,12.2,6.6,17,11.4c4.8,4.8,8.6,10.5,11.4,17
	c2.8,6.6,4.2,13.6,4.2,21v5.4h-19.3h-77c0.9,5.4,2.5,10.4,5,15c2.5,4.6,5.7,8.5,9.5,11.8c3.9,3.3,8.2,5.9,12.9,7.8
	C729.5,176.3,734.6,177.3,740,177.3z M740,91.7c-5.4,0-10.5,1-15.3,2.9c-4.8,1.9-9.1,4.5-12.9,7.8c-3.9,3.3-7,7.2-9.5,11.9
	c-2.5,4.6-4.2,9.6-5,14.9h85.6c-0.9-5.3-2.5-10.2-5-14.9c-2.5-4.6-5.7-8.6-9.5-11.9c-3.9-3.3-8.2-5.9-13.1-7.8
	C750.4,92.7,745.3,91.7,740,91.7z"/>
<path fill="#FFFFFF" d="M620.2,81c7.4,0,14.4,1.4,21,4.2c6.6,2.8,12.2,6.6,17,11.4c4.8,4.8,8.6,10.5,11.4,17
	c2.8,6.6,4.2,13.6,4.2,21V188H663v-53.5c0-5.9-1.1-11.4-3.4-16.6c-2.3-5.2-5.4-9.7-9.2-13.6c-3.9-3.9-8.4-6.9-13.6-9.2
	c-5.2-2.3-10.7-3.4-16.6-3.4s-11.4,1.1-16.6,3.4c-5.2,2.3-9.7,5.4-13.6,9.2s-6.9,8.4-9.2,13.6c-2.3,5.2-3.4,10.7-3.4,16.6V188h-10.7
	v-53.5c0-5.9-1.1-11.4-3.4-16.6c-2.3-5.2-5.4-9.7-9.2-13.6s-8.4-6.9-13.6-9.2c-5.2-2.3-10.7-3.4-16.6-3.4s-11.4,1.1-16.6,3.4
	c-5.2,2.3-9.7,5.4-13.6,9.2c-3.9,3.9-6.9,8.4-9.2,13.6c-2.3,5.2-3.6,10.7-3.6,16.6v15.7l-10.8-10.1l0.1-5.6c0-7.4,1.6-14.4,4.5-21
	c2.8-6.6,6.7-12.2,11.7-17c4.9-4.8,10.6-8.6,17-11.4c6.4-2.8,13.3-4.2,20.5-4.2c5.3,0,10.4,0.7,15.3,2.2c4.9,1.5,9.4,3.6,13.6,6.3
	c4.1,2.7,7.8,5.9,11.1,9.5c3.3,3.6,6,7.6,8.1,11.9c2.1-4.3,4.9-8.2,8.2-11.9c3.4-3.6,7.1-6.8,11.4-9.5c4.2-2.7,8.7-4.8,13.6-6.3
	C610.1,81.8,615.1,81,620.2,81z"/>
<rect x="175.1" y="80.7" fill="#FFFFFF" width="10.5" height="107.3"/>
<rect x="243.5" y="80.7" fill="#FFFFFF" width="10.5" height="107.3"/>
<circle fill="#FFFFFF" cx="214.6" cy="57.9" r="14.5"/>
<g>
	<path fill="#3997D3" d="M389.9,172.5c4.9,4.8,10.6,8.6,17,11.4c6.4,2.8,13.3,4.2,20.5,4.2c9.1,0,17.3-2,24.6-5.9
		c2.9-1.6,5.6-3.3,8.2-5.3l-5.6-9.1c-3,2.4-6.4,4.5-10.1,6.1c-5.2,2.3-10.9,3.4-17,3.4c-5.9,0-11.4-1.1-16.6-3.4
		c-5.2-2.3-9.7-5.4-13.6-9.2c-3.9-3.9-6.9-8.4-9.2-13.6c-2.3-5.2-3.4-10.7-3.4-16.6s1.1-11.4,3.4-16.6c2.3-5.2,5.3-9.7,9.2-13.6
		c3.9-3.9,8.4-6.9,13.6-9.2c5.2-2.3,10.7-3.4,16.6-3.4c6.1,0,11.8,1.1,17,3.4c5.2,2.3,9.7,5.4,13.6,9.2c3.9,3.9,6.8,8.4,9,13.6
		c2.1,5.2,3.2,10.7,3.2,16.6c0,1.9-0.3,5.6-0.3,5.6l11,10.2v-15.7c0-7.4-1.4-14.4-4.2-21c-2.8-6.6-6.6-12.2-11.4-17
		c-4.8-4.8-10.5-8.6-17-11.4c-6.6-2.8-13.6-4.2-21-4.2c-7.3,0-14.1,1.4-20.5,4.2s-12.1,6.6-17,11.4c-4.9,4.8-8.8,10.5-11.7,17
		c-2.9,6.6-4.3,13.6-4.3,21c0,7.6,1.4,14.6,4.3,21.1C381.1,162.1,384.9,167.7,389.9,172.5z"/>
	<path fill="#3997D3" d="M470.2,188c0,5.9-1.1,11.4-3.2,16.6c-2.1,5.2-5.1,9.7-9,13.6c-3.9,3.9-8.4,6.9-13.6,9.2
		c-5.2,2.3-10.9,3.4-17,3.4c-5.9,0-11.4-1.1-16.6-3.4c-5.2-2.3-9.7-5.4-13.6-9.2c-3.9-3.9-6.9-8.4-9.2-13.6
		c-2.3-5.2-3.4-10.7-3.4-16.6h-10.7c0,7.3,1.4,14.1,4.3,20.5c2.8,6.4,6.7,12.1,11.7,17c4.9,4.9,10.6,8.8,17,11.7
		c6.4,2.9,13.3,4.3,20.5,4.3c7.4,0,14.4-1.4,21-4.3c6.6-2.8,12.2-6.7,17-11.7c4.8-4.9,8.6-10.6,11.4-17c2.8-6.4,4.2-13.3,4.2-20.5
		C480.9,188,470.2,188,470.2,188z"/>
</g>
<g>
	<path fill="#3997D3" d="M384.9,180.5c-0.1,0-0.1,0-0.1,0l-9.1-8.4c-1.2,4.4-1.7,8.9-1.7,13.6l0,2.3h10.7l0-2.3
		C384.6,183.9,384.8,182.2,384.9,180.5z"/>
	<path fill="#3997D3" d="M387.7,150.1c-3,3.4-4.7,6.4-6.9,10.5c2.1,2.9,4.2,6.8,7.2,9.5c0.1-0.3-0.3-0.7-0.1-1
		c1.4-3.4,3.2-6.4,5.3-9.2C390.8,156.5,388.5,151.8,387.7,150.1z"/>
	<path fill="#3997D3" d="M476.6,165.1c-2.8-6.4-6.7-12.1-11.7-17c-4.9-4.9-10.6-8.8-17-11.7c-6.4-2.9-13.3-4.3-20.5-4.3
		c-7.4,0-14.4,1.4-21,4.3c-4.3,1.9-8.2,4.2-11.7,7l5.5,9c3-2.5,6.4-4.5,10.2-6.1c5.2-2.3,10.9-3.4,17-3.4c5.9,0,11.4,1.1,16.6,3.4
		c5.2,2.3,9.7,5.4,13.6,9.2c3.9,3.9,6.9,8.4,9.2,13.6c2.3,5.2,3.4,10.7,3.4,16.6v2.6h10.7v-2.6C480.9,178.4,479.5,171.5,476.6,165.1
		z"/>
</g>
<rect x="209.4" y="80.7" fill="#3997D3" width="10.5" height="107.3"/>
<circle fill="#3997D3" cx="180.3" cy="57.9" r="7.3"/>
<circle fill="#3997D3" cx="248.8" cy="57.9" r="7.3"/>
</svg>
