<?xml version="1.0" encoding="utf-8"?>
<!-- Generator: Adobe Illustrator 18.1.1, SVG Export Plug-In . SVG Version: 6.00 Build 0)  -->
<svg version="1.1" id="Calque_1" xmlns="http://www.w3.org/2000/svg" xmlns:xlink="http://www.w3.org/1999/xlink" x="0px" y="0px"
	 viewBox="185 0 194 283.46" enable-background="new 185 0 194 283.46" xml:space="preserve">
<path fill="#FFFFFF" d="M327.865,174.564c0,6.574-1.203,12.78-3.61,18.635c-2.406,5.84-5.767,10.932-10.095,15.26
	c-4.329,4.329-9.42,7.777-15.26,10.345c-5.855,2.553-12.223,3.845-19.12,3.845c-6.574,0-12.78-1.292-18.636-3.845
	c-5.84-2.568-10.932-6.016-15.26-10.345c-4.329-4.329-7.777-9.42-10.33-15.26c-2.568-5.855-3.859-12.062-3.859-18.635h-12.017
	c0,8.174,1.6,15.862,4.813,23.081c3.198,7.204,7.572,13.588,13.104,19.105c5.532,5.532,11.899,9.904,19.105,13.104
	c7.219,3.213,14.909,4.813,23.081,4.813c8.335,0,16.185-1.6,23.565-4.813c7.366-3.198,13.735-7.572,19.105-13.104
	c5.371-5.517,9.625-11.9,12.751-19.105c3.126-7.219,4.68-14.909,4.68-23.081L327.865,174.564L327.865,174.564z"/>
<g>
	<path fill="#FFFFFF" d="M232.061,166.084c-0.087,0.021-0.136,0.032-0.136,0.032l-10.276-9.459
		c-1.309,4.891-1.973,9.978-1.973,15.271l0.015,2.636h12.017l-0.015-2.636C231.695,169.943,231.842,168.002,232.061,166.084z"/>
	<path fill="#FFFFFF" d="M235.131,131.969c-3.402,3.844-5.327,7.215-7.723,11.816c2.324,3.307,4.733,7.637,8.057,10.645
		c0.144-0.377-0.315-0.764-0.161-1.137c1.559-3.783,3.561-7.216,5.923-10.367C238.636,139.204,236.06,133.93,235.131,131.969z"/>
	<path fill="#FFFFFF" d="M335.07,148.847c-3.198-7.204-7.572-13.588-13.104-19.105c-5.532-5.532-11.899-9.904-19.105-13.104
		c-7.219-3.213-14.909-4.813-23.081-4.813c-8.335,0-16.185,1.6-23.565,4.813c-4.844,2.104-9.214,4.766-13.197,7.883l6.237,10.082
		c3.418-2.753,7.211-5.07,11.406-6.915c5.855-2.553,12.223-3.845,19.12-3.845c6.574,0,12.78,1.292,18.635,3.845
		c5.84,2.568,10.932,6.016,15.26,10.345c4.329,4.329,7.777,9.42,10.33,15.26c2.568,5.855,3.859,12.062,3.859,18.635l-0.001,2.919
		h12.018v-2.919C339.883,163.755,338.283,156.066,335.07,148.847z"/>
</g>
<path fill="#FFFFFF" d="M237.595,157.133c5.532,5.371,11.899,9.625,19.105,12.751c7.219,3.126,14.909,4.68,23.081,4.68
	c10.256,0,19.472-2.201,27.645-6.617c3.271-1.762,6.317-3.76,9.153-5.974l-6.292-10.171c-3.413,2.746-7.199,5.06-11.388,6.9
	c-5.855,2.568-12.223,3.845-19.12,3.845c-6.574,0-12.78-1.277-18.636-3.845c-5.84-2.568-10.932-6.016-15.26-10.345
	s-7.777-9.406-10.33-15.26c-2.568-5.855-3.859-12.062-3.859-18.636c0-6.574,1.292-12.78,3.859-18.635
	c2.553-5.84,6.001-10.932,10.33-15.26c4.329-4.329,9.42-7.777,15.26-10.345c5.855-2.553,12.062-3.845,18.636-3.845
	c6.896,0,13.265,1.292,19.12,3.845c5.84,2.568,10.932,6.016,15.26,10.345c4.329,4.329,7.688,9.42,10.095,15.26
	c2.406,5.855,3.609,12.062,3.609,18.635c0,2.155-0.296,6.286-0.296,6.286l12.313,11.405v-17.689c0-8.335-1.555-16.185-4.68-23.565
	c-3.126-7.366-7.38-13.735-12.751-19.105c-5.371-5.371-11.738-9.625-19.105-12.751c-7.38-3.126-15.231-4.68-23.565-4.68
	c-8.174,0-15.862,1.555-23.081,4.68c-7.204,3.126-13.573,7.38-19.105,12.751c-5.532,5.371-9.904,11.738-13.104,19.105
	c-3.213,7.38-4.813,15.231-4.813,23.565c0,8.496,1.6,16.39,4.813,23.683C227.69,145.438,232.063,151.762,237.595,157.133z"/>
</svg>
